G04 DipTrace 3.3.1.3*
G04 Bottom.sol*
%MOIN*%
G04 #@! TF.FileFunction,Copper,L2,Bot*
G04 #@! TF.Part,Single*
%AMOUTLINE0*
4,1,20,
0.0,0.029528,
0.015208,0.028082,
0.028926,0.023888,
0.039814,0.017356,
0.046804,0.009125,
0.049213,0.0,
0.046804,-0.009125,
0.039814,-0.017356,
0.028926,-0.023888,
0.015208,-0.028082,
0.0,-0.029528,
-0.015208,-0.028082,
-0.028926,-0.023888,
-0.039814,-0.017356,
-0.046804,-0.009125,
-0.049213,0.0,
-0.046804,0.009125,
-0.039814,0.017356,
-0.028926,0.023888,
-0.015208,0.028082,
0.0,0.029528,
0*%
G04 #@! TA.AperFunction,Conductor*
%ADD14C,0.012*%
%ADD15C,0.01*%
%ADD19C,0.007874*%
G04 #@! TA.AperFunction,CopperBalancing*
%ADD23C,0.025*%
%ADD24C,0.012992*%
G04 #@! TA.AperFunction,ComponentPad*
%ADD33O,0.15748X0.062992*%
%ADD34R,0.059055X0.059055*%
%ADD35C,0.059055*%
G04 #@! TA.AperFunction,ComponentPad*
%ADD36C,0.07874*%
%ADD43C,0.07874*%
%ADD45C,0.11811*%
%ADD49R,0.046X0.063*%
%ADD50R,0.025X0.008*%
G04 #@! TA.AperFunction,ViaPad*
%ADD64C,0.0315*%
%ADD66C,0.023622*%
%ADD68C,0.027559*%
%ADD69C,0.031748*%
G04 #@! TA.AperFunction,ComponentPad*
%ADD141OUTLINE0*%
%FSLAX26Y26*%
G04*
G70*
G90*
G75*
G01*
G04 Bottom*
%LPD*%
X1349941Y936201D2*
D14*
Y893898D1*
X1355079D1*
Y876398D1*
X1312579Y833898D1*
X1170079D1*
X1149941Y813760D1*
Y718701D1*
X1355079Y893898D2*
X1522579D1*
X1577579Y948898D1*
X1149941Y718701D2*
Y656260D1*
X1122579Y628898D1*
X1390079Y841398D2*
X1355079Y876398D1*
X1577579Y948898D2*
X1615079Y986398D1*
Y1118898D1*
X1722579Y1226398D1*
X1797579D1*
X2217579Y1214150D2*
Y1187383D1*
X2287260Y1117702D1*
X2309760D1*
X2217579Y1214150D2*
X2314630Y1311201D1*
X2549941D1*
X2584941Y1346201D1*
Y1488701D1*
X2634941Y1538701D1*
X2669941D1*
X1349941Y936201D2*
X1417441Y1003701D1*
Y1061201D1*
X1522579Y628898D2*
D15*
X1537579D1*
X1599882Y691201D1*
X1852323D1*
X1871205Y672319D1*
X1795079Y756398D2*
X1682638D1*
X1639941Y713701D1*
X1217382D1*
X1222382Y718701D1*
X1209941D1*
Y641535D1*
X1222579Y628898D1*
X2207579Y1153898D2*
X2210079D1*
X2272579Y1091398D1*
Y788563D1*
X2372441Y688701D1*
X2444941D1*
X2504744Y628898D1*
X2522579D1*
X1839661Y1285980D2*
X1826744Y1298898D1*
X1240955D1*
X1174941Y1232883D1*
Y1011201D1*
Y1013701D1*
X1024941D1*
X974941Y1063701D1*
X609606D1*
X602441Y1070866D1*
X1835079Y1328898D2*
X1827776Y1336201D1*
X843318D1*
X729941Y1222824D1*
Y1113701D1*
X1742579Y866772D2*
X1755512D1*
X1622441Y733701D1*
X1479941D1*
X1452579Y761063D1*
Y838898D1*
X1427579Y928898D2*
Y936398D1*
X1505079Y1013898D1*
Y1201398D1*
X1540079Y1236398D1*
X1567579D1*
X2172441Y1213701D2*
Y1233701D1*
X2204941Y1266201D1*
X2164941Y701201D2*
Y713701D1*
X2117441Y761201D1*
X2222579Y628898D2*
X2194744D1*
X2139941Y683701D1*
X2095329D1*
X2026579Y752451D1*
Y1036769D1*
X1913320Y1150028D1*
X1792957D1*
X1767579Y1175406D1*
Y1190406D1*
X2174941Y1178701D2*
Y1067521D1*
X1745745Y1131028D2*
X1905449D1*
X2007579Y1028898D1*
Y743898D1*
X2122579Y628898D1*
X1342441Y1176201D2*
D19*
X1437441D1*
X1464941Y1203701D1*
X2197579Y1013898D2*
D15*
Y1001398D1*
X2167579Y971398D1*
Y801398D1*
X2190079Y778898D1*
X2225079D1*
X2242579Y796398D1*
Y821398D1*
X2235079Y918898D2*
X2202953Y886772D1*
Y808898D1*
X1977441Y1316201D2*
X2087776D1*
X2127579Y1276398D1*
Y786398D1*
X2235079Y678898D1*
X2247579D1*
X2297579Y628898D1*
X2322579D1*
X2109941Y711201D2*
X2094701D1*
X2045580Y760322D1*
Y1044638D1*
X2066949Y1066007D1*
Y1244799D1*
X2057850Y1253898D1*
X2251079Y1195881D2*
X2314760D1*
X1502579Y783898D2*
X1565079Y846398D1*
X1607579D1*
X1682579Y921398D1*
Y941398D1*
X1705079Y893898D2*
X1597579Y786398D1*
X1595079D1*
X2009941Y1343701D2*
X2013244Y1340398D1*
X2090449D1*
X2146579Y1284268D1*
Y794437D1*
X2239618Y701398D1*
X2327244D1*
X2399744Y628898D1*
X2422579D1*
X1727579Y1171398D2*
Y1153694D1*
X1716871Y1142987D1*
Y1119605D1*
X1740079Y1096398D1*
Y931398D1*
X1742579Y928898D1*
X1447441Y1368701D2*
D14*
X1449941Y1366201D1*
X1559882D1*
X1622579Y1428898D1*
Y1426063D1*
X1674941Y1373701D1*
X2554941D1*
X1447441Y1368701D2*
X914941D1*
X854941Y1428701D1*
Y1486201D1*
X1180079Y796398D2*
D15*
X1387579D1*
X1420079Y828898D1*
Y861398D1*
X1432579Y873898D1*
X1543238D1*
X1635079Y965739D1*
Y1053898D1*
X1682579Y1101398D1*
X1690079D1*
D64*
X2309760Y1117702D3*
X1417441Y1061201D3*
X729941Y1113701D3*
D66*
X2172441Y1213701D3*
D64*
X2174941Y1178701D3*
Y1067521D3*
D66*
X1342441Y1176201D3*
D64*
X1464941Y1203701D3*
X2314760Y1195881D3*
D66*
X2251079D3*
D64*
X2554941Y1373701D3*
D68*
X1329760Y1030202D3*
X1359760D3*
D64*
X1829941Y1063701D3*
X614941Y678701D3*
X939941Y776201D3*
X699941Y1361201D3*
X707441Y1571201D3*
X1329941Y1626201D3*
X2027441Y1636201D3*
X2557441Y1646201D3*
X3072441Y1638701D3*
X2744941Y451201D3*
X2472441Y1133701D3*
X1224941Y1191201D3*
D66*
X2117441Y761201D3*
D64*
X1899941Y786201D3*
X2389941Y741201D3*
X1227441Y1136201D3*
X739941Y691201D3*
X732441Y461201D3*
X829941Y783701D3*
X1155079Y878898D3*
X1477579Y931398D3*
X1567579Y1143898D3*
D69*
X1575079Y1043898D3*
X1890079Y1083898D3*
X1892579Y941398D3*
X2030079Y1083898D3*
X1965079Y1151398D3*
X1830079Y886398D3*
X2164941Y701201D3*
X2204941Y1266201D3*
X1767579Y1190406D3*
X2057850Y1253898D3*
D64*
X1390079Y841398D3*
X1577579Y948898D3*
X1447441Y1368701D3*
D69*
X1742579Y866772D3*
X1839661Y1285980D3*
X1835079Y1328898D3*
D64*
X1180079Y796398D3*
X1705079Y893898D3*
X1567579Y1236398D3*
D69*
X2235079Y918898D3*
X2197579Y1013898D3*
X2009941Y1343701D3*
D64*
X1727579Y1171398D3*
X1318579Y909898D3*
D69*
X1672579Y1041398D3*
X1960079Y941398D3*
X1892579Y1011398D3*
X1967579Y998898D3*
X1800079Y1268898D3*
X2097579Y1071398D3*
X2242579Y1336398D3*
X1745745Y1131028D3*
X2109941Y711201D3*
X1871205Y672319D3*
D64*
X1349941Y936201D3*
D69*
X1797579Y1226398D3*
X2217579Y1214150D3*
D64*
X1795079Y756398D3*
X1452579Y838898D3*
X1174941Y1011201D3*
X1690079Y1101398D3*
X1682579Y941398D3*
X1427579Y928898D3*
D69*
X2202953Y808898D3*
X2242579Y821398D3*
X1977441Y1316201D3*
D64*
X1742579Y928898D3*
D69*
X2207579Y1153898D3*
X405102Y1661332D2*
D23*
X3297499D1*
X405245Y1636463D2*
X3297535D1*
X405390Y1611594D2*
X3297606D1*
X405533Y1586726D2*
X1171828D1*
X1218059D2*
X1388783D1*
X1456114D2*
X1488793D1*
X1556088D2*
X1588766D1*
X1656097D2*
X1688776D1*
X1756106D2*
X1788785D1*
X1856115D2*
X1888794D1*
X1956089D2*
X1988768D1*
X2056098D2*
X2088777D1*
X2156108D2*
X2188786D1*
X2256117D2*
X2288795D1*
X2356089D2*
X2388768D1*
X2456098D2*
X2488777D1*
X2556108D2*
X2611429D1*
X2801269D2*
X2838613D1*
X2901278D2*
X2938585D1*
X3001287D2*
X3038594D1*
X3101297D2*
X3138604D1*
X3201270D2*
X3297643D1*
X405677Y1561857D2*
X812520D1*
X897362D2*
X967610D1*
X1082273D2*
X1129699D1*
X1260186D2*
X1363018D1*
X2581837D2*
X2609635D1*
X3223446D2*
X3297678D1*
X405820Y1536988D2*
X783597D1*
X926285D2*
X947228D1*
X1276262D2*
X1354585D1*
X3228434D2*
X3297751D1*
X405963Y1512119D2*
X770929D1*
X1282579D2*
X1356201D1*
X3221760D2*
X3297786D1*
X406108Y1487251D2*
X766911D1*
X1281394D2*
X1368760D1*
X2728459D2*
X2745277D1*
X2794594D2*
X2845287D1*
X2894604D2*
X2945297D1*
X2994613D2*
X3045269D1*
X3094587D2*
X3145278D1*
X3194596D2*
X3297823D1*
X406251Y1462382D2*
X770283D1*
X1272352D2*
X1363378D1*
X2619946D2*
X3297894D1*
X406394Y1437513D2*
X782089D1*
X927791D2*
X960182D1*
X1089701D2*
X1138240D1*
X1251646D2*
X1354765D1*
X3221402D2*
X3297930D1*
X406538Y1412644D2*
X808752D1*
X919430D2*
X1004105D1*
X1045778D2*
X1356236D1*
X3230588D2*
X3297966D1*
X406681Y1387776D2*
X847399D1*
X3227860D2*
X3298038D1*
X406825Y1362907D2*
X824146D1*
X3210492D2*
X3298073D1*
X406969Y1338038D2*
X798130D1*
X1878938D2*
X1938636D1*
X2139852D2*
X2293819D1*
X3221257D2*
X3298109D1*
X407112Y1313169D2*
X441190D1*
X558974D2*
X773262D1*
X1876928D2*
X1932680D1*
X2164719D2*
X2268161D1*
X3237046D2*
X3298181D1*
X597908Y1288301D2*
X748394D1*
X1884463D2*
X1943051D1*
X2180329D2*
X2243294D1*
X2575486D2*
X2604146D1*
X3240743D2*
X3298217D1*
X607310Y1263432D2*
X723526D1*
X1252543D2*
X1521412D1*
X1602522D2*
X1774503D1*
X1878041D2*
X2014066D1*
X2180580D2*
X2218427D1*
X2315325D2*
X2610210D1*
X3234678D2*
X3298253D1*
X605156Y1238563D2*
X700165D1*
X1227639D2*
X1438591D1*
X1612282D2*
X1686299D1*
X1840650D2*
X2015860D1*
X2290458D2*
X2624168D1*
X3220719D2*
X3298324D1*
X658768Y1213694D2*
X695932D1*
X1208944D2*
X1332122D1*
X1352768D2*
X1421403D1*
X1605715D2*
X1661432D1*
X1840505D2*
X2032941D1*
X2355551D2*
X2608056D1*
X3236831D2*
X3298361D1*
X407829Y1188825D2*
X527743D1*
X677140D2*
X695932D1*
X1208944D2*
X1303774D1*
X1539545D2*
X1636564D1*
X1819657D2*
X2032941D1*
X2358925D2*
X2604109D1*
X3240743D2*
X3298396D1*
X407974Y1163957D2*
X477756D1*
X680406D2*
X695932D1*
X1208944D2*
X1303630D1*
X1539079D2*
X1611696D1*
X1946436D2*
X2032941D1*
X2344929D2*
X2609995D1*
X3234894D2*
X3298469D1*
X408117Y1139088D2*
X453354D1*
X671794D2*
X693671D1*
X1208944D2*
X1330471D1*
X1354419D2*
X1471102D1*
X1539079D2*
X1587115D1*
X1971303D2*
X2032941D1*
X2348698D2*
X2624706D1*
X3220146D2*
X3298504D1*
X408260Y1114219D2*
X449802D1*
X660096D2*
X685202D1*
X1208944D2*
X1471102D1*
X1539079D2*
X1580083D1*
X1996172D2*
X2032941D1*
X2354367D2*
X2608236D1*
X3236652D2*
X3298539D1*
X408404Y1089350D2*
X460531D1*
X1208944D2*
X1383437D1*
X1451449D2*
X1471102D1*
X1539079D2*
X1580083D1*
X1774084D2*
X1900097D1*
X2343566D2*
X2604109D1*
X3240778D2*
X3298612D1*
X408547Y1064482D2*
X524585D1*
X1208944D2*
X1372815D1*
X1539079D2*
X1580083D1*
X1774084D2*
X1924965D1*
X2306570D2*
X2609743D1*
X3235144D2*
X3298647D1*
X408690Y1039613D2*
X533772D1*
X1208944D2*
X1378629D1*
X1456259D2*
X1471102D1*
X1539079D2*
X1580083D1*
X1669087D2*
X1706071D1*
X1774084D2*
X1949833D1*
X2306570D2*
X2625281D1*
X3219606D2*
X3298684D1*
X408835Y1014744D2*
X528999D1*
X675885D2*
X976869D1*
X1219530D2*
X1380028D1*
X1539079D2*
X1580083D1*
X1669087D2*
X1706071D1*
X1774084D2*
X1973588D1*
X2079566D2*
X2093585D1*
X2306570D2*
X2608415D1*
X3236437D2*
X3298755D1*
X408978Y989875D2*
X486978D1*
X680585D2*
X1001844D1*
X1213896D2*
X1355160D1*
X1528098D2*
X1564831D1*
X1669087D2*
X1706071D1*
X1774084D2*
X1973588D1*
X2079566D2*
X2093585D1*
X2306570D2*
X2604109D1*
X3240778D2*
X3298791D1*
X409122Y965007D2*
X454790D1*
X673660D2*
X1316549D1*
X1503230D2*
X1536016D1*
X1774084D2*
X1973588D1*
X2079566D2*
X2093585D1*
X2306570D2*
X2609528D1*
X3235360D2*
X3298827D1*
X409265Y940138D2*
X449514D1*
X655969D2*
X1305388D1*
X1478362D2*
X1520371D1*
X1785782D2*
X1973588D1*
X2079566D2*
X2093585D1*
X2306570D2*
X2625854D1*
X3219033D2*
X3298899D1*
X409408Y915269D2*
X458163D1*
X676315D2*
X1310735D1*
X1785064D2*
X1973588D1*
X2079566D2*
X2093585D1*
X2306570D2*
X2608630D1*
X3236257D2*
X3298934D1*
X409552Y890400D2*
X524333D1*
X680550D2*
X1315150D1*
X1780256D2*
X1973588D1*
X2079566D2*
X2093585D1*
X2306570D2*
X2604073D1*
X3240815D2*
X3298971D1*
X409696Y865531D2*
X531833D1*
X673050D2*
X1160165D1*
X1789479D2*
X1973588D1*
X2079566D2*
X2093585D1*
X2306570D2*
X2609277D1*
X3235612D2*
X3299042D1*
X642656Y840663D2*
X1128408D1*
X1778427D2*
X1973588D1*
X2079566D2*
X2093585D1*
X2306570D2*
X2504459D1*
X2590413D2*
X2626465D1*
X3218423D2*
X3299079D1*
X607167Y815794D2*
X1115024D1*
X1751585D2*
X1973588D1*
X2079566D2*
X2093585D1*
X2306570D2*
X2484902D1*
X3236042D2*
X3299114D1*
X605516Y790925D2*
X1114951D1*
X1726717D2*
X1768259D1*
X1821917D2*
X1973588D1*
X2079566D2*
X2093585D1*
X2317262D2*
X2479125D1*
X3240815D2*
X3299186D1*
X590803Y766056D2*
X1097942D1*
X1838711D2*
X1973588D1*
X2086887D2*
X2101049D1*
X2342131D2*
X2483108D1*
X3235827D2*
X3299222D1*
X410413Y741188D2*
X1097942D1*
X1836990D2*
X1973696D1*
X2366999D2*
X2499327D1*
X2595545D2*
X2627075D1*
X3217812D2*
X3299257D1*
X410556Y716319D2*
X1097942D1*
X1873806D2*
X1988121D1*
X2462558D2*
X2613906D1*
X3220469D2*
X3299329D1*
X410701Y691450D2*
X999476D1*
X1045707D2*
X1097942D1*
X1945682D2*
X1999461D1*
X2545702D2*
X2613906D1*
X3230408D2*
X3299365D1*
X410844Y666581D2*
X966068D1*
X2579110D2*
X2613906D1*
X3228291D2*
X3299402D1*
X410987Y641713D2*
X955482D1*
X2589696D2*
X2613906D1*
X2812034D2*
X2832871D1*
X2912008D2*
X2932844D1*
X3012017D2*
X3032853D1*
X3112026D2*
X3132862D1*
X3212035D2*
X3299472D1*
X411131Y616844D2*
X955339D1*
X2589840D2*
X3299509D1*
X411274Y591975D2*
X965530D1*
X2579613D2*
X2613906D1*
X3218064D2*
X3299545D1*
X411419Y567106D2*
X966427D1*
X2578465D2*
X2613906D1*
X3229906D2*
X3299580D1*
X411562Y542238D2*
X955482D1*
X2589408D2*
X2613906D1*
X3229188D2*
X3299652D1*
X411705Y517369D2*
X955051D1*
X2589803D2*
X2613906D1*
X2815336D2*
X2829570D1*
X2915308D2*
X2929579D1*
X3015318D2*
X3029552D1*
X3115327D2*
X3129562D1*
X3215301D2*
X3299688D1*
X411812Y492500D2*
X964920D1*
X2579971D2*
X3299724D1*
X411957Y467631D2*
X995277D1*
X1049618D2*
X1095287D1*
X1149592D2*
X1195260D1*
X1249601D2*
X1295269D1*
X1349610D2*
X1395278D1*
X1449619D2*
X1495287D1*
X1549593D2*
X1595261D1*
X1649602D2*
X1695270D1*
X1749612D2*
X1795280D1*
X1849621D2*
X1895289D1*
X1949593D2*
X1995262D1*
X2049602D2*
X2095272D1*
X2149612D2*
X2195281D1*
X2249621D2*
X2295290D1*
X2349594D2*
X2395264D1*
X2449604D2*
X2495273D1*
X2549613D2*
X3299795D1*
X412100Y442762D2*
X3299832D1*
X412243Y417894D2*
X3299867D1*
X534630Y865075D2*
X531000Y872262D1*
X528283Y880623D1*
X526909Y889306D1*
Y898096D1*
X527617Y903425D1*
X521937Y900016D1*
X514957Y897125D1*
X507610Y895361D1*
X500079Y894768D1*
X492547Y895361D1*
X485201Y897125D1*
X478220Y900016D1*
X471780Y903963D1*
X466034Y908869D1*
X461129Y914614D1*
X457181Y921055D1*
X454290Y928035D1*
X452526Y935382D1*
X451933Y942913D1*
X452526Y950445D1*
X454290Y957791D1*
X457181Y964772D1*
X461129Y971213D1*
X466034Y976958D1*
X471780Y981864D1*
X478220Y985811D1*
X485201Y988702D1*
X492547Y990466D1*
X500079Y991059D1*
X507610Y990466D1*
X514957Y988702D1*
X521937Y985811D1*
X527580Y982398D1*
X526909Y987731D1*
Y996521D1*
X528283Y1005203D1*
X531000Y1013564D1*
X534991Y1021396D1*
X540159Y1028508D1*
X542923Y1031499D1*
X537434Y1037938D1*
X532843Y1045434D1*
X529478Y1053555D1*
X527427Y1062102D1*
X526736Y1070866D1*
X527427Y1079630D1*
X527617Y1080591D1*
X521937Y1077181D1*
X514957Y1074290D1*
X507610Y1072526D1*
X500079Y1071933D1*
X492547Y1072526D1*
X485201Y1074290D1*
X478220Y1077181D1*
X471780Y1081129D1*
X466034Y1086034D1*
X461129Y1091780D1*
X457181Y1098220D1*
X454290Y1105201D1*
X452526Y1112547D1*
X451933Y1120079D1*
X452526Y1127610D1*
X454290Y1134957D1*
X457181Y1141937D1*
X461129Y1148378D1*
X466034Y1154123D1*
X471780Y1159029D1*
X478220Y1162976D1*
X485201Y1165867D1*
X492547Y1167631D1*
X500079Y1168224D1*
X507610Y1167631D1*
X514957Y1165867D1*
X521937Y1162976D1*
X527580Y1159563D1*
X526832Y1166005D1*
X526883Y1173349D1*
X527894Y1180623D1*
X529848Y1187702D1*
X532711Y1194465D1*
X534462Y1197917D1*
X448388Y1198088D1*
X441117Y1199114D1*
X434033Y1201050D1*
X427249Y1203866D1*
X420877Y1207518D1*
X415017Y1211945D1*
X409765Y1217077D1*
X405134Y1222934D1*
X407316Y843021D1*
X411903Y848163D1*
X417424Y853007D1*
X423512Y857114D1*
X430070Y860420D1*
X436993Y862869D1*
X444171Y864424D1*
X451488Y865059D1*
X534601Y865075D1*
X677972Y889306D2*
X676598Y880623D1*
X673882Y872262D1*
X669891Y864430D1*
X664723Y857319D1*
X658508Y851104D1*
X651396Y845936D1*
X643564Y841945D1*
X635203Y839228D1*
X626521Y837854D1*
X596613Y837681D1*
X600230Y830824D1*
X602806Y823946D1*
X604492Y816798D1*
X605261Y809495D1*
X605050Y801583D1*
X603891Y794331D1*
X601824Y787283D1*
X598885Y780554D1*
X595117Y774249D1*
X590584Y768471D1*
X585356Y763314D1*
X579518Y758857D1*
X573164Y755175D1*
X566395Y752324D1*
X559320Y750353D1*
X552054Y749291D1*
X541811Y749098D1*
X448388Y749269D1*
X441117Y750295D1*
X434033Y752231D1*
X427249Y755047D1*
X420877Y758699D1*
X415017Y763126D1*
X409765Y768259D1*
X407734Y770648D1*
X409869Y398710D1*
X3302433Y401190D1*
X3299965Y1678747D1*
X757550Y1686201D1*
X402480Y1678954D1*
X404757Y1288336D1*
X409385Y1294307D1*
X414587Y1299491D1*
X420403Y1303976D1*
X426739Y1307690D1*
X433493Y1310573D1*
X440558Y1312579D1*
X447819Y1313676D1*
X458346Y1313894D1*
X551484Y1313744D1*
X558761Y1312755D1*
X565856Y1310853D1*
X572651Y1308070D1*
X579042Y1304450D1*
X584923Y1300051D1*
X590201Y1294945D1*
X594791Y1289213D1*
X598621Y1282945D1*
X601627Y1276244D1*
X603762Y1269218D1*
X604992Y1261978D1*
X605282Y1254068D1*
X604585Y1246757D1*
X602970Y1239593D1*
X600462Y1232690D1*
X597101Y1226160D1*
X596576Y1225312D1*
X626377Y1225150D1*
X633647Y1224113D1*
X640719Y1222135D1*
X647472Y1219249D1*
X653790Y1215504D1*
X659563Y1210965D1*
X664693Y1205710D1*
X669091Y1199828D1*
X672681Y1193423D1*
X675404Y1186602D1*
X677210Y1179484D1*
X678071Y1172190D1*
X678025Y1165619D1*
X677064Y1158339D1*
X675160Y1151247D1*
X672344Y1144463D1*
X668664Y1138108D1*
X664185Y1132289D1*
X658983Y1127105D1*
X653148Y1122646D1*
X648887Y1120084D1*
X655054Y1116188D1*
X661738Y1110478D1*
X667448Y1103794D1*
X672039Y1096298D1*
X672551Y1095190D1*
X691961Y1095193D1*
X689766Y1100647D1*
X688219Y1107093D1*
X687698Y1113701D1*
X688219Y1120308D1*
X689766Y1126755D1*
X692303Y1132878D1*
X695766Y1138530D1*
X698444Y1141810D1*
X698546Y1225295D1*
X699319Y1230176D1*
X700846Y1234875D1*
X703089Y1239278D1*
X705995Y1243277D1*
X753143Y1290563D1*
X822865Y1360147D1*
X826864Y1363052D1*
X831266Y1365295D1*
X835966Y1366823D1*
X840846Y1367596D1*
X869979Y1367693D1*
X834594Y1403096D1*
X828505Y1404840D1*
X822203Y1407165D1*
X816104Y1409978D1*
X810243Y1413260D1*
X804657Y1416992D1*
X799382Y1421150D1*
X794450Y1425710D1*
X789890Y1430642D1*
X785732Y1435917D1*
X782000Y1441503D1*
X778718Y1447364D1*
X775906Y1453463D1*
X773580Y1459765D1*
X771757Y1466230D1*
X770448Y1472819D1*
X769657Y1479488D1*
X769394Y1486201D1*
X769657Y1492913D1*
X770448Y1499583D1*
X771757Y1506172D1*
X773580Y1512636D1*
X775906Y1518938D1*
X778718Y1525038D1*
X782000Y1530899D1*
X785732Y1536484D1*
X789890Y1541760D1*
X794450Y1546692D1*
X799382Y1551252D1*
X804657Y1555409D1*
X810243Y1559142D1*
X816104Y1562424D1*
X822203Y1565236D1*
X828505Y1567562D1*
X834970Y1569385D1*
X841559Y1570694D1*
X848228Y1571484D1*
X854941Y1571748D1*
X861654Y1571484D1*
X868323Y1570694D1*
X874912Y1569385D1*
X881377Y1567562D1*
X887678Y1565236D1*
X893778Y1562424D1*
X899639Y1559142D1*
X905224Y1555409D1*
X910500Y1551252D1*
X915432Y1546692D1*
X919992Y1541760D1*
X924150Y1536484D1*
X927882Y1530899D1*
X931164Y1525038D1*
X933976Y1518938D1*
X936302Y1512636D1*
X938125Y1506172D1*
X939457Y1499402D1*
X940283Y1508505D1*
X942089Y1517508D1*
X944850Y1526265D1*
X948534Y1534676D1*
X953098Y1542643D1*
X958490Y1550076D1*
X964646Y1556887D1*
X971497Y1563000D1*
X978965Y1568344D1*
X986962Y1572856D1*
X995396Y1576484D1*
X1004171Y1579189D1*
X1013185Y1580937D1*
X1022335Y1581709D1*
X1031514Y1581495D1*
X1040618Y1580299D1*
X1049541Y1578135D1*
X1058181Y1575026D1*
X1066437Y1571009D1*
X1074217Y1566131D1*
X1081428Y1560448D1*
X1087988Y1554024D1*
X1093822Y1546933D1*
X1098862Y1539259D1*
X1103051Y1531088D1*
X1106340Y1522516D1*
X1108692Y1513639D1*
X1109547Y1508828D1*
X1110448Y1517083D1*
X1111757Y1523672D1*
X1113580Y1530136D1*
X1115906Y1536438D1*
X1118718Y1542538D1*
X1122000Y1548399D1*
X1125732Y1553984D1*
X1129890Y1559260D1*
X1134450Y1564192D1*
X1139382Y1568752D1*
X1144657Y1572909D1*
X1150243Y1576642D1*
X1156104Y1579924D1*
X1162203Y1582736D1*
X1168505Y1585062D1*
X1174970Y1586885D1*
X1181559Y1588194D1*
X1188228Y1588984D1*
X1194941Y1589248D1*
X1201654Y1588984D1*
X1208323Y1588194D1*
X1214912Y1586885D1*
X1221377Y1585062D1*
X1227678Y1582736D1*
X1233778Y1579924D1*
X1239639Y1576642D1*
X1245224Y1572909D1*
X1250500Y1568752D1*
X1255432Y1564192D1*
X1259992Y1559260D1*
X1264150Y1553984D1*
X1267882Y1548399D1*
X1271164Y1542538D1*
X1273976Y1536438D1*
X1276302Y1530136D1*
X1278125Y1523672D1*
X1279434Y1517083D1*
X1280224Y1510413D1*
X1280488Y1503701D1*
X1280224Y1496988D1*
X1279434Y1490319D1*
X1278125Y1483730D1*
X1276302Y1477265D1*
X1273976Y1470963D1*
X1271164Y1464864D1*
X1267882Y1459003D1*
X1264150Y1453417D1*
X1259992Y1448142D1*
X1255432Y1443210D1*
X1250500Y1438650D1*
X1245224Y1434492D1*
X1239639Y1430760D1*
X1233778Y1427478D1*
X1227678Y1424665D1*
X1221377Y1422340D1*
X1214912Y1420517D1*
X1208323Y1419207D1*
X1201654Y1418417D1*
X1194941Y1418154D1*
X1188228Y1418417D1*
X1181559Y1419207D1*
X1174970Y1420517D1*
X1168505Y1422340D1*
X1162203Y1424665D1*
X1156104Y1427478D1*
X1150243Y1430760D1*
X1144657Y1434492D1*
X1139382Y1438650D1*
X1134450Y1443210D1*
X1129890Y1448142D1*
X1125732Y1453417D1*
X1122000Y1459003D1*
X1118718Y1464864D1*
X1115906Y1470963D1*
X1113580Y1477265D1*
X1111757Y1483730D1*
X1110311Y1490693D1*
X1109228Y1481575D1*
X1107176Y1472626D1*
X1104175Y1463948D1*
X1100262Y1455642D1*
X1095482Y1447802D1*
X1089887Y1440521D1*
X1083546Y1433881D1*
X1076529Y1427958D1*
X1068917Y1422823D1*
X1060801Y1418531D1*
X1052269Y1415136D1*
X1043424Y1412675D1*
X1034365Y1411175D1*
X1025197Y1410654D1*
X1016028Y1411119D1*
X1006959Y1412564D1*
X998100Y1414974D1*
X989549Y1418318D1*
X981406Y1422560D1*
X973764Y1427650D1*
X966711Y1433530D1*
X960329Y1440133D1*
X954693Y1447379D1*
X949865Y1455190D1*
X945902Y1463472D1*
X942849Y1472133D1*
X940743Y1481070D1*
X940425Y1482959D1*
X939434Y1472819D1*
X938125Y1466230D1*
X936302Y1459765D1*
X933976Y1453463D1*
X931164Y1447364D1*
X927882Y1441503D1*
X924150Y1435917D1*
X919992Y1430642D1*
X915432Y1425710D1*
X909366Y1420257D1*
X928385Y1401207D1*
X1362811Y1401193D1*
X1359940Y1408545D1*
X1357528Y1418594D1*
X1356717Y1428898D1*
X1357528Y1439201D1*
X1359940Y1449251D1*
X1363895Y1458798D1*
X1369295Y1467610D1*
X1376007Y1475470D1*
X1379522Y1478719D1*
X1372360Y1485927D1*
X1366285Y1494287D1*
X1361592Y1503496D1*
X1358399Y1513325D1*
X1356782Y1523533D1*
Y1533869D1*
X1358399Y1544076D1*
X1361592Y1553906D1*
X1366285Y1563114D1*
X1372360Y1571475D1*
X1379667Y1578782D1*
X1388028Y1584857D1*
X1397236Y1589550D1*
X1407066Y1592743D1*
X1417273Y1594360D1*
X1427609D1*
X1437816Y1592743D1*
X1447646Y1589550D1*
X1456854Y1584857D1*
X1465215Y1578782D1*
X1472427Y1571579D1*
X1479667Y1578782D1*
X1488028Y1584857D1*
X1497236Y1589550D1*
X1507066Y1592743D1*
X1517273Y1594360D1*
X1527609D1*
X1537816Y1592743D1*
X1547646Y1589550D1*
X1556854Y1584857D1*
X1565215Y1578782D1*
X1572427Y1571579D1*
X1579667Y1578782D1*
X1588028Y1584857D1*
X1597236Y1589550D1*
X1607066Y1592743D1*
X1617273Y1594360D1*
X1627609D1*
X1637816Y1592743D1*
X1647646Y1589550D1*
X1656854Y1584857D1*
X1665215Y1578782D1*
X1672427Y1571579D1*
X1679667Y1578782D1*
X1688028Y1584857D1*
X1697236Y1589550D1*
X1707066Y1592743D1*
X1717273Y1594360D1*
X1727609D1*
X1737816Y1592743D1*
X1747646Y1589550D1*
X1756854Y1584857D1*
X1765215Y1578782D1*
X1772427Y1571579D1*
X1779667Y1578782D1*
X1788028Y1584857D1*
X1797236Y1589550D1*
X1807066Y1592743D1*
X1817273Y1594360D1*
X1827609D1*
X1837816Y1592743D1*
X1847646Y1589550D1*
X1856854Y1584857D1*
X1865215Y1578782D1*
X1872427Y1571579D1*
X1879667Y1578782D1*
X1888028Y1584857D1*
X1897236Y1589550D1*
X1907066Y1592743D1*
X1917273Y1594360D1*
X1927609D1*
X1937816Y1592743D1*
X1947646Y1589550D1*
X1956854Y1584857D1*
X1965215Y1578782D1*
X1972427Y1571579D1*
X1979667Y1578782D1*
X1988028Y1584857D1*
X1997236Y1589550D1*
X2007066Y1592743D1*
X2017273Y1594360D1*
X2027609D1*
X2037816Y1592743D1*
X2047646Y1589550D1*
X2056854Y1584857D1*
X2065215Y1578782D1*
X2072427Y1571579D1*
X2079667Y1578782D1*
X2088028Y1584857D1*
X2097236Y1589550D1*
X2107066Y1592743D1*
X2117273Y1594360D1*
X2127609D1*
X2137816Y1592743D1*
X2147646Y1589550D1*
X2156854Y1584857D1*
X2165215Y1578782D1*
X2172427Y1571579D1*
X2179667Y1578782D1*
X2188028Y1584857D1*
X2197236Y1589550D1*
X2207066Y1592743D1*
X2217273Y1594360D1*
X2227609D1*
X2237816Y1592743D1*
X2247646Y1589550D1*
X2256854Y1584857D1*
X2265215Y1578782D1*
X2272427Y1571579D1*
X2279667Y1578782D1*
X2288028Y1584857D1*
X2297236Y1589550D1*
X2307066Y1592743D1*
X2317273Y1594360D1*
X2327609D1*
X2337816Y1592743D1*
X2347646Y1589550D1*
X2356854Y1584857D1*
X2365215Y1578782D1*
X2372427Y1571579D1*
X2379667Y1578782D1*
X2388028Y1584857D1*
X2397236Y1589550D1*
X2407066Y1592743D1*
X2417273Y1594360D1*
X2427609D1*
X2437816Y1592743D1*
X2447646Y1589550D1*
X2456854Y1584857D1*
X2465215Y1578782D1*
X2472427Y1571579D1*
X2479667Y1578782D1*
X2488028Y1584857D1*
X2497236Y1589550D1*
X2507066Y1592743D1*
X2517273Y1594360D1*
X2527609D1*
X2537816Y1592743D1*
X2547646Y1589550D1*
X2556854Y1584857D1*
X2565215Y1578782D1*
X2572522Y1571475D1*
X2578597Y1563114D1*
X2583290Y1553906D1*
X2586483Y1544076D1*
X2587685Y1537379D1*
X2613846Y1563415D1*
X2613921Y1594720D1*
X2725961D1*
Y1573369D1*
X2730329Y1578312D1*
X2737013Y1584022D1*
X2744509Y1588614D1*
X2752630Y1591979D1*
X2761177Y1594030D1*
X2769941Y1594720D1*
X2778705Y1594030D1*
X2787252Y1591979D1*
X2795373Y1588614D1*
X2802869Y1584022D1*
X2809552Y1578312D1*
X2815262Y1571629D1*
X2819934Y1563962D1*
X2824619Y1571629D1*
X2830329Y1578312D1*
X2837013Y1584022D1*
X2844509Y1588614D1*
X2852630Y1591979D1*
X2861177Y1594030D1*
X2869941Y1594720D1*
X2878705Y1594030D1*
X2887252Y1591979D1*
X2895373Y1588614D1*
X2902869Y1584022D1*
X2909552Y1578312D1*
X2915262Y1571629D1*
X2919934Y1563962D1*
X2924619Y1571629D1*
X2930329Y1578312D1*
X2937013Y1584022D1*
X2944509Y1588614D1*
X2952630Y1591979D1*
X2961177Y1594030D1*
X2969941Y1594720D1*
X2978705Y1594030D1*
X2987252Y1591979D1*
X2995373Y1588614D1*
X3002869Y1584022D1*
X3009552Y1578312D1*
X3015262Y1571629D1*
X3019934Y1563962D1*
X3024619Y1571629D1*
X3030329Y1578312D1*
X3037013Y1584022D1*
X3044509Y1588614D1*
X3052630Y1591979D1*
X3061177Y1594030D1*
X3069941Y1594720D1*
X3078705Y1594030D1*
X3087252Y1591979D1*
X3095373Y1588614D1*
X3102869Y1584022D1*
X3109552Y1578312D1*
X3115262Y1571629D1*
X3119934Y1563962D1*
X3124619Y1571629D1*
X3130329Y1578312D1*
X3137013Y1584022D1*
X3144509Y1588614D1*
X3152630Y1591979D1*
X3161177Y1594030D1*
X3169941Y1594720D1*
X3178705Y1594030D1*
X3187252Y1591979D1*
X3195373Y1588614D1*
X3202869Y1584022D1*
X3209552Y1578312D1*
X3215262Y1571629D1*
X3219854Y1564133D1*
X3223219Y1556012D1*
X3225270Y1547465D1*
X3225961Y1538701D1*
X3225270Y1529937D1*
X3223219Y1521390D1*
X3219854Y1513269D1*
X3215262Y1505773D1*
X3209552Y1499089D1*
X3202869Y1493379D1*
X3195373Y1488787D1*
X3187252Y1485423D1*
X3178705Y1483371D1*
X3169941Y1482681D1*
X3161177Y1483371D1*
X3152630Y1485423D1*
X3144509Y1488787D1*
X3137013Y1493379D1*
X3130329Y1499089D1*
X3124619Y1505773D1*
X3119948Y1513440D1*
X3115262Y1505773D1*
X3109552Y1499089D1*
X3102869Y1493379D1*
X3095373Y1488787D1*
X3087252Y1485423D1*
X3078705Y1483371D1*
X3069941Y1482681D1*
X3061177Y1483371D1*
X3052630Y1485423D1*
X3044509Y1488787D1*
X3037013Y1493379D1*
X3030329Y1499089D1*
X3024619Y1505773D1*
X3019948Y1513440D1*
X3015262Y1505773D1*
X3009552Y1499089D1*
X3002869Y1493379D1*
X2995373Y1488787D1*
X2987252Y1485423D1*
X2978705Y1483371D1*
X2969941Y1482681D1*
X2961177Y1483371D1*
X2952630Y1485423D1*
X2944509Y1488787D1*
X2937013Y1493379D1*
X2930329Y1499089D1*
X2924619Y1505773D1*
X2919948Y1513440D1*
X2915262Y1505773D1*
X2909552Y1499089D1*
X2902869Y1493379D1*
X2895373Y1488787D1*
X2887252Y1485423D1*
X2878705Y1483371D1*
X2869941Y1482681D1*
X2861177Y1483371D1*
X2852630Y1485423D1*
X2844509Y1488787D1*
X2837013Y1493379D1*
X2830329Y1499089D1*
X2824619Y1505773D1*
X2819948Y1513440D1*
X2815262Y1505773D1*
X2809552Y1499089D1*
X2802869Y1493379D1*
X2795373Y1488787D1*
X2787252Y1485423D1*
X2778705Y1483371D1*
X2769941Y1482681D1*
X2761177Y1483371D1*
X2752630Y1485423D1*
X2744509Y1488787D1*
X2737013Y1493379D1*
X2730329Y1499089D1*
X2725971Y1504059D1*
X2725961Y1482681D1*
X2624875D1*
X2617445Y1475253D1*
X2617433Y1462255D1*
X2728461Y1462220D1*
Y1440869D1*
X2732829Y1445812D1*
X2739513Y1451522D1*
X2747009Y1456114D1*
X2755130Y1459479D1*
X2763677Y1461530D1*
X2772441Y1462220D1*
X2781205Y1461530D1*
X2789752Y1459479D1*
X2797873Y1456114D1*
X2805369Y1451522D1*
X2812052Y1445812D1*
X2817762Y1439129D1*
X2822434Y1431462D1*
X2827119Y1439129D1*
X2832829Y1445812D1*
X2839513Y1451522D1*
X2847009Y1456114D1*
X2855130Y1459479D1*
X2863677Y1461530D1*
X2872441Y1462220D1*
X2881205Y1461530D1*
X2889752Y1459479D1*
X2897873Y1456114D1*
X2905369Y1451522D1*
X2912052Y1445812D1*
X2917762Y1439129D1*
X2922434Y1431462D1*
X2927119Y1439129D1*
X2932829Y1445812D1*
X2939513Y1451522D1*
X2947009Y1456114D1*
X2955130Y1459479D1*
X2963677Y1461530D1*
X2972441Y1462220D1*
X2981205Y1461530D1*
X2989752Y1459479D1*
X2997873Y1456114D1*
X3005369Y1451522D1*
X3012052Y1445812D1*
X3017762Y1439129D1*
X3022434Y1431462D1*
X3027119Y1439129D1*
X3032829Y1445812D1*
X3039513Y1451522D1*
X3047009Y1456114D1*
X3055130Y1459479D1*
X3063677Y1461530D1*
X3072441Y1462220D1*
X3081205Y1461530D1*
X3089752Y1459479D1*
X3097873Y1456114D1*
X3105369Y1451522D1*
X3112052Y1445812D1*
X3117762Y1439129D1*
X3122434Y1431462D1*
X3127119Y1439129D1*
X3132829Y1445812D1*
X3139513Y1451522D1*
X3147009Y1456114D1*
X3155130Y1459479D1*
X3163677Y1461530D1*
X3172441Y1462220D1*
X3181205Y1461530D1*
X3189752Y1459479D1*
X3197873Y1456114D1*
X3205369Y1451522D1*
X3212052Y1445812D1*
X3217762Y1439129D1*
X3222354Y1431633D1*
X3225719Y1423512D1*
X3227770Y1414965D1*
X3228461Y1406201D1*
X3227770Y1397437D1*
X3225719Y1388890D1*
X3222354Y1380769D1*
X3217762Y1373273D1*
X3212052Y1366589D1*
X3205369Y1360879D1*
X3197873Y1356287D1*
X3192509Y1353940D1*
X3202341Y1349885D1*
X3211154Y1344484D1*
X3219013Y1337773D1*
X3225724Y1329913D1*
X3231125Y1321101D1*
X3235080Y1311554D1*
X3237492Y1301504D1*
X3238303Y1291201D1*
X3237492Y1280898D1*
X3235080Y1270848D1*
X3231125Y1261301D1*
X3225724Y1252488D1*
X3219013Y1244629D1*
X3215319Y1241215D1*
X3222522Y1233975D1*
X3228597Y1225614D1*
X3233290Y1216406D1*
X3236483Y1206576D1*
X3238100Y1196369D1*
Y1186033D1*
X3236483Y1175825D1*
X3233290Y1165996D1*
X3228597Y1156787D1*
X3222522Y1148427D1*
X3215319Y1141215D1*
X3222522Y1133975D1*
X3228597Y1125614D1*
X3233290Y1116406D1*
X3236483Y1106576D1*
X3238100Y1096369D1*
Y1086033D1*
X3236483Y1075825D1*
X3233290Y1065996D1*
X3228597Y1056787D1*
X3222522Y1048427D1*
X3215319Y1041215D1*
X3222522Y1033975D1*
X3228597Y1025614D1*
X3233290Y1016406D1*
X3236483Y1006576D1*
X3238100Y996369D1*
Y986033D1*
X3236483Y975825D1*
X3233290Y965996D1*
X3228597Y956787D1*
X3222522Y948427D1*
X3215319Y941215D1*
X3222522Y933975D1*
X3228597Y925614D1*
X3233290Y916406D1*
X3236483Y906576D1*
X3238100Y896369D1*
Y886033D1*
X3236483Y875825D1*
X3233290Y865996D1*
X3228597Y856787D1*
X3222522Y848427D1*
X3215319Y841215D1*
X3222522Y833975D1*
X3228597Y825614D1*
X3233290Y816406D1*
X3236483Y806576D1*
X3238100Y796369D1*
Y786033D1*
X3236483Y775825D1*
X3233290Y765996D1*
X3228597Y756787D1*
X3222522Y748427D1*
X3215215Y741119D1*
X3206854Y735045D1*
X3201003Y731900D1*
X3207066Y727739D1*
X3212529Y722831D1*
X3217303Y717251D1*
X3221306Y711094D1*
X3224470Y704467D1*
X3226739Y697482D1*
X3228075Y690261D1*
X3228461Y683701D1*
X3227979Y676373D1*
X3226543Y669171D1*
X3224178Y662218D1*
X3220923Y655635D1*
X3216835Y649534D1*
X3211984Y644021D1*
X3206454Y639189D1*
X3200339Y635122D1*
X3193744Y631890D1*
X3186785Y629549D1*
X3179577Y628138D1*
X3172248Y627681D1*
X3164921Y628188D1*
X3157724Y629648D1*
X3150780Y632038D1*
X3144209Y635316D1*
X3138121Y639425D1*
X3132625Y644294D1*
X3127812Y649841D1*
X3123766Y655971D1*
X3122445Y658446D1*
X3118979Y652517D1*
X3114500Y646698D1*
X3109298Y641514D1*
X3103463Y637055D1*
X3097094Y633398D1*
X3090303Y630605D1*
X3083203Y628724D1*
X3075920Y627789D1*
X3068576Y627815D1*
X3061299Y628801D1*
X3054213Y630730D1*
X3047440Y633570D1*
X3041097Y637270D1*
X3035293Y641769D1*
X3030127Y646990D1*
X3025689Y652840D1*
X3022445Y658446D1*
X3018979Y652517D1*
X3014500Y646698D1*
X3009298Y641514D1*
X3003463Y637055D1*
X2997094Y633398D1*
X2990303Y630605D1*
X2983203Y628724D1*
X2975920Y627789D1*
X2968576Y627815D1*
X2961299Y628801D1*
X2954213Y630730D1*
X2947440Y633570D1*
X2941097Y637270D1*
X2935293Y641769D1*
X2930127Y646990D1*
X2925689Y652840D1*
X2922445Y658446D1*
X2918979Y652517D1*
X2914500Y646698D1*
X2909298Y641514D1*
X2903463Y637055D1*
X2897094Y633398D1*
X2890303Y630605D1*
X2883203Y628724D1*
X2875920Y627789D1*
X2868576Y627815D1*
X2861299Y628801D1*
X2854213Y630730D1*
X2847440Y633570D1*
X2841097Y637270D1*
X2835293Y641769D1*
X2830127Y646990D1*
X2825689Y652840D1*
X2822445Y658446D1*
X2818979Y652517D1*
X2814500Y646698D1*
X2809298Y641514D1*
X2803463Y637055D1*
X2797094Y633398D1*
X2790303Y630605D1*
X2783203Y628724D1*
X2775920Y627789D1*
X2768576Y627815D1*
X2761299Y628801D1*
X2754213Y630730D1*
X2747440Y633570D1*
X2741097Y637270D1*
X2735293Y641769D1*
X2730127Y646990D1*
X2728463Y649012D1*
X2728461Y627681D1*
X2616421D1*
Y739720D1*
X2631357D1*
X2625869Y744629D1*
X2619157Y752488D1*
X2613757Y761301D1*
X2610383Y769276D1*
X2608290Y763496D1*
X2603597Y754287D1*
X2597522Y745927D1*
X2590215Y738619D1*
X2581854Y732545D1*
X2572646Y727852D1*
X2562816Y724659D1*
X2552609Y723042D1*
X2542273D1*
X2532066Y724659D1*
X2522236Y727852D1*
X2513028Y732545D1*
X2504667Y738619D1*
X2497360Y745927D1*
X2491285Y754287D1*
X2486592Y763496D1*
X2483399Y773325D1*
X2481782Y783533D1*
Y793869D1*
X2483399Y804076D1*
X2486592Y813906D1*
X2491285Y823114D1*
X2497360Y831475D1*
X2504667Y838782D1*
X2513028Y844857D1*
X2522236Y849550D1*
X2532066Y852743D1*
X2542273Y854360D1*
X2552609D1*
X2562816Y852743D1*
X2572646Y849550D1*
X2581854Y844857D1*
X2590215Y838782D1*
X2597522Y831475D1*
X2603597Y823114D1*
X2608290Y813906D1*
X2609499Y810626D1*
X2611592Y816406D1*
X2616285Y825614D1*
X2622360Y833975D1*
X2629563Y841186D1*
X2622360Y848427D1*
X2616285Y856787D1*
X2611592Y865996D1*
X2608399Y875825D1*
X2606782Y886033D1*
Y896369D1*
X2608399Y906576D1*
X2611592Y916406D1*
X2616285Y925614D1*
X2622360Y933975D1*
X2629563Y941186D1*
X2622360Y948427D1*
X2616285Y956787D1*
X2611592Y965996D1*
X2608399Y975825D1*
X2606782Y986033D1*
Y996369D1*
X2608399Y1006576D1*
X2611592Y1016406D1*
X2616285Y1025614D1*
X2622360Y1033975D1*
X2629563Y1041186D1*
X2622360Y1048427D1*
X2616285Y1056787D1*
X2611592Y1065996D1*
X2608399Y1075825D1*
X2606782Y1086033D1*
Y1096369D1*
X2608399Y1106576D1*
X2611592Y1116406D1*
X2616285Y1125614D1*
X2622360Y1133975D1*
X2629563Y1141186D1*
X2622360Y1148427D1*
X2616285Y1156787D1*
X2611592Y1165996D1*
X2608399Y1175825D1*
X2606782Y1186033D1*
Y1196369D1*
X2608399Y1206576D1*
X2611592Y1216406D1*
X2616285Y1225614D1*
X2622360Y1233975D1*
X2629563Y1241186D1*
X2622360Y1248427D1*
X2616285Y1256787D1*
X2611592Y1265996D1*
X2608399Y1275825D1*
X2606782Y1286033D1*
Y1296369D1*
X2608399Y1306576D1*
X2611592Y1316406D1*
X2616285Y1325614D1*
X2622360Y1333975D1*
X2629667Y1341282D1*
X2638028Y1347357D1*
X2643182Y1350181D1*
X2617429D1*
X2617333Y1343651D1*
X2616535Y1338615D1*
X2614959Y1333766D1*
X2612646Y1329223D1*
X2609648Y1325098D1*
X2572916Y1288226D1*
X2569039Y1284913D1*
X2564692Y1282249D1*
X2559982Y1280299D1*
X2555024Y1279109D1*
X2549930Y1278709D1*
X2328070D1*
X2276734Y1227353D1*
X2286640Y1227373D1*
X2289930Y1230055D1*
X2295583Y1233518D1*
X2301706Y1236055D1*
X2308152Y1237602D1*
X2314760Y1238123D1*
X2321367Y1237602D1*
X2327814Y1236055D1*
X2333937Y1233518D1*
X2339589Y1230055D1*
X2344630Y1225751D1*
X2348934Y1220710D1*
X2352398Y1215058D1*
X2354934Y1208934D1*
X2356482Y1202488D1*
X2357003Y1195881D1*
X2356482Y1189273D1*
X2354934Y1182827D1*
X2352398Y1176703D1*
X2348934Y1171051D1*
X2344630Y1166010D1*
X2339589Y1161706D1*
X2333937Y1158243D1*
X2328045Y1155791D1*
X2334589Y1151877D1*
X2339630Y1147572D1*
X2343934Y1142531D1*
X2347398Y1136879D1*
X2349934Y1130756D1*
X2351482Y1124310D1*
X2352003Y1117702D1*
X2351482Y1111094D1*
X2349934Y1104648D1*
X2347398Y1098525D1*
X2343934Y1092873D1*
X2339630Y1087832D1*
X2334589Y1083528D1*
X2328937Y1080064D1*
X2322814Y1077528D1*
X2316367Y1075980D1*
X2309760Y1075459D1*
X2304066Y1075871D1*
X2304071Y801633D1*
X2385508Y720171D1*
X2447412Y720096D1*
X2452293Y719323D1*
X2456992Y717795D1*
X2461395Y715552D1*
X2465394Y712648D1*
X2491289Y686890D1*
X2497374Y689747D1*
X2507203Y692940D1*
X2517411Y694556D1*
X2527747D1*
X2537954Y692940D1*
X2547783Y689747D1*
X2556992Y685054D1*
X2565353Y678979D1*
X2572660Y671672D1*
X2578735Y663311D1*
X2583428Y654102D1*
X2586621Y644273D1*
X2588238Y634066D1*
Y623730D1*
X2586621Y613522D1*
X2583428Y603693D1*
X2578735Y594484D1*
X2572660Y586123D1*
X2565273Y578753D1*
X2572522Y571475D1*
X2578597Y563114D1*
X2583290Y553906D1*
X2586483Y544076D1*
X2588100Y533869D1*
Y523533D1*
X2586483Y513325D1*
X2583290Y503496D1*
X2578597Y494287D1*
X2572522Y485927D1*
X2565215Y478619D1*
X2556854Y472545D1*
X2547646Y467852D1*
X2537816Y464659D1*
X2527609Y463042D1*
X2517273D1*
X2507066Y464659D1*
X2497236Y467852D1*
X2488028Y472545D1*
X2479667Y478619D1*
X2472455Y485823D1*
X2465215Y478619D1*
X2456854Y472545D1*
X2447646Y467852D1*
X2437816Y464659D1*
X2427609Y463042D1*
X2417273D1*
X2407066Y464659D1*
X2397236Y467852D1*
X2388028Y472545D1*
X2379667Y478619D1*
X2372455Y485823D1*
X2365215Y478619D1*
X2356854Y472545D1*
X2347646Y467852D1*
X2337816Y464659D1*
X2327609Y463042D1*
X2317273D1*
X2307066Y464659D1*
X2297236Y467852D1*
X2288028Y472545D1*
X2279667Y478619D1*
X2272455Y485823D1*
X2265215Y478619D1*
X2256854Y472545D1*
X2247646Y467852D1*
X2237816Y464659D1*
X2227609Y463042D1*
X2217273D1*
X2207066Y464659D1*
X2197236Y467852D1*
X2188028Y472545D1*
X2179667Y478619D1*
X2172455Y485823D1*
X2165215Y478619D1*
X2156854Y472545D1*
X2147646Y467852D1*
X2137816Y464659D1*
X2127609Y463042D1*
X2117273D1*
X2107066Y464659D1*
X2097236Y467852D1*
X2088028Y472545D1*
X2079667Y478619D1*
X2072455Y485823D1*
X2065215Y478619D1*
X2056854Y472545D1*
X2047646Y467852D1*
X2037816Y464659D1*
X2027609Y463042D1*
X2017273D1*
X2007066Y464659D1*
X1997236Y467852D1*
X1988028Y472545D1*
X1979667Y478619D1*
X1972455Y485823D1*
X1965215Y478619D1*
X1956854Y472545D1*
X1947646Y467852D1*
X1937816Y464659D1*
X1927609Y463042D1*
X1917273D1*
X1907066Y464659D1*
X1897236Y467852D1*
X1888028Y472545D1*
X1879667Y478619D1*
X1872455Y485823D1*
X1865215Y478619D1*
X1856854Y472545D1*
X1847646Y467852D1*
X1837816Y464659D1*
X1827609Y463042D1*
X1817273D1*
X1807066Y464659D1*
X1797236Y467852D1*
X1788028Y472545D1*
X1779667Y478619D1*
X1772455Y485823D1*
X1765215Y478619D1*
X1756854Y472545D1*
X1747646Y467852D1*
X1737816Y464659D1*
X1727609Y463042D1*
X1717273D1*
X1707066Y464659D1*
X1697236Y467852D1*
X1688028Y472545D1*
X1679667Y478619D1*
X1672455Y485823D1*
X1665215Y478619D1*
X1656854Y472545D1*
X1647646Y467852D1*
X1637816Y464659D1*
X1627609Y463042D1*
X1617273D1*
X1607066Y464659D1*
X1597236Y467852D1*
X1588028Y472545D1*
X1579667Y478619D1*
X1572455Y485823D1*
X1565215Y478619D1*
X1556854Y472545D1*
X1547646Y467852D1*
X1537816Y464659D1*
X1527609Y463042D1*
X1517273D1*
X1507066Y464659D1*
X1497236Y467852D1*
X1488028Y472545D1*
X1479667Y478619D1*
X1472455Y485823D1*
X1465215Y478619D1*
X1456854Y472545D1*
X1447646Y467852D1*
X1437816Y464659D1*
X1427609Y463042D1*
X1417273D1*
X1407066Y464659D1*
X1397236Y467852D1*
X1388028Y472545D1*
X1379667Y478619D1*
X1372455Y485823D1*
X1366555Y479795D1*
X1360835Y475186D1*
X1354636Y471244D1*
X1348039Y468017D1*
X1341122Y465543D1*
X1333974Y463856D1*
X1326681Y462975D1*
X1319336Y462912D1*
X1312030Y463667D1*
X1304853Y465230D1*
X1297895Y467584D1*
X1291243Y470697D1*
X1284978Y474531D1*
X1279178Y479039D1*
X1273917Y484167D1*
X1272440Y485839D1*
X1265215Y478619D1*
X1256854Y472545D1*
X1247646Y467852D1*
X1237816Y464659D1*
X1227609Y463042D1*
X1217273D1*
X1207066Y464659D1*
X1197236Y467852D1*
X1188028Y472545D1*
X1179667Y478619D1*
X1172455Y485823D1*
X1165215Y478619D1*
X1156854Y472545D1*
X1147646Y467852D1*
X1137816Y464659D1*
X1127609Y463042D1*
X1117273D1*
X1107066Y464659D1*
X1097236Y467852D1*
X1088028Y472545D1*
X1079667Y478619D1*
X1072455Y485823D1*
X1065215Y478619D1*
X1056854Y472545D1*
X1047646Y467852D1*
X1037816Y464659D1*
X1027609Y463042D1*
X1017273D1*
X1007066Y464659D1*
X997236Y467852D1*
X988028Y472545D1*
X979667Y478619D1*
X972360Y485927D1*
X966285Y494287D1*
X961592Y503496D1*
X958399Y513325D1*
X956782Y523533D1*
Y533869D1*
X958399Y544076D1*
X961592Y553906D1*
X966285Y563114D1*
X972360Y571475D1*
X979747Y578845D1*
X972497Y586123D1*
X966423Y594484D1*
X961730Y603693D1*
X958537Y613522D1*
X956920Y623730D1*
Y634066D1*
X958537Y644273D1*
X961730Y654102D1*
X966423Y663311D1*
X972497Y671672D1*
X979804Y678979D1*
X988165Y685054D1*
X997374Y689747D1*
X1007203Y692940D1*
X1017411Y694556D1*
X1027747D1*
X1037954Y692940D1*
X1047783Y689747D1*
X1056992Y685054D1*
X1065353Y678979D1*
X1072564Y671776D1*
X1079804Y678979D1*
X1088165Y685054D1*
X1097374Y689747D1*
X1100463Y690886D1*
X1100449Y776693D1*
X1117423D1*
X1117549Y816310D1*
X1118346Y821345D1*
X1119923Y826194D1*
X1122236Y830738D1*
X1125234Y834862D1*
X1147104Y856873D1*
X1150980Y860185D1*
X1155328Y862849D1*
X1160038Y864799D1*
X1164996Y865990D1*
X1170089Y866390D1*
X1299154D1*
X1318504Y885774D1*
X1317549Y891348D1*
X1317449Y909220D1*
X1313924Y914130D1*
X1310915Y920035D1*
X1308866Y926340D1*
X1307829Y932887D1*
Y939514D1*
X1308866Y946062D1*
X1310915Y952366D1*
X1313924Y958272D1*
X1317820Y963635D1*
X1322507Y968322D1*
X1327870Y972218D1*
X1333776Y975227D1*
X1340080Y977276D1*
X1346022Y978241D1*
X1384945Y1017156D1*
X1384949Y1034239D1*
X1381424Y1039130D1*
X1378415Y1045035D1*
X1376366Y1051340D1*
X1375329Y1057887D1*
Y1064514D1*
X1376366Y1071062D1*
X1378415Y1077366D1*
X1381424Y1083272D1*
X1385320Y1088635D1*
X1390007Y1093322D1*
X1395370Y1097218D1*
X1401276Y1100227D1*
X1407580Y1102276D1*
X1414127Y1103312D1*
X1420755D1*
X1427302Y1102276D1*
X1433606Y1100227D1*
X1439512Y1097218D1*
X1444875Y1093322D1*
X1449562Y1088635D1*
X1453458Y1083272D1*
X1456467Y1077366D1*
X1458516Y1071062D1*
X1459552Y1064514D1*
Y1057887D1*
X1458516Y1051340D1*
X1456467Y1045035D1*
X1453458Y1039130D1*
X1449940Y1034245D1*
X1449933Y1003690D1*
X1450781Y1004136D1*
X1473592Y1026948D1*
X1473587Y1162350D1*
X1468255Y1161589D1*
X1465757Y1161491D1*
X1457203Y1153062D1*
X1453340Y1150256D1*
X1449085Y1148088D1*
X1444545Y1146613D1*
X1439828Y1145865D1*
X1365709Y1145772D1*
X1359831Y1142072D1*
X1354277Y1139773D1*
X1348433Y1138369D1*
X1342441Y1137898D1*
X1336449Y1138369D1*
X1330605Y1139773D1*
X1325051Y1142072D1*
X1319927Y1145213D1*
X1315357Y1149117D1*
X1311453Y1153686D1*
X1308312Y1158811D1*
X1306013Y1164365D1*
X1304609Y1170209D1*
X1304138Y1176201D1*
X1304609Y1182193D1*
X1306013Y1188037D1*
X1308312Y1193591D1*
X1311453Y1198715D1*
X1315357Y1203285D1*
X1319927Y1207189D1*
X1325051Y1210329D1*
X1330605Y1212629D1*
X1336449Y1214033D1*
X1342441Y1214504D1*
X1348433Y1214033D1*
X1354277Y1212629D1*
X1359831Y1210329D1*
X1365665Y1206629D1*
X1422786Y1206630D1*
X1423866Y1213562D1*
X1425915Y1219866D1*
X1428924Y1225772D1*
X1432820Y1231135D1*
X1437507Y1235822D1*
X1442870Y1239718D1*
X1448776Y1242727D1*
X1455080Y1244776D1*
X1461627Y1245812D1*
X1468255D1*
X1474802Y1244776D1*
X1481106Y1242727D1*
X1487012Y1239718D1*
X1492375Y1235822D1*
X1493717Y1234581D1*
X1519626Y1260345D1*
X1523625Y1263249D1*
X1528028Y1265492D1*
X1532736Y1267022D1*
X1532781Y1267406D1*
X1253996D1*
X1206412Y1219818D1*
X1206433Y1039360D1*
X1210958Y1033272D1*
X1213967Y1027366D1*
X1216016Y1021062D1*
X1217052Y1014514D1*
Y1007887D1*
X1216016Y1001340D1*
X1213967Y995035D1*
X1210958Y989130D1*
X1207062Y983766D1*
X1202375Y979080D1*
X1197012Y975184D1*
X1191106Y972175D1*
X1184802Y970126D1*
X1178255Y969089D1*
X1171627D1*
X1165080Y970126D1*
X1158776Y972175D1*
X1152870Y975184D1*
X1147507Y979080D1*
X1144253Y982217D1*
X1022470Y982306D1*
X1017589Y983079D1*
X1012890Y984606D1*
X1008487Y986849D1*
X1004488Y989755D1*
X961896Y1032209D1*
X662640D1*
X664723Y1028508D1*
X669891Y1021396D1*
X673882Y1013564D1*
X676598Y1005203D1*
X677972Y996521D1*
Y987731D1*
X676598Y979049D1*
X673882Y970688D1*
X669891Y962856D1*
X664723Y955744D1*
X658508Y949529D1*
X651396Y944361D1*
X648862Y942942D1*
X655054Y939022D1*
X661738Y933312D1*
X667448Y926629D1*
X672039Y919133D1*
X675404Y911012D1*
X677455Y902465D1*
X678146Y893701D1*
X677972Y889306D1*
X2618259Y612220D2*
X2728461D1*
Y590898D1*
X2733172Y596154D1*
X2738736Y600946D1*
X2744879Y604971D1*
X2751496Y608157D1*
X2758472Y610451D1*
X2765689Y611812D1*
X2773021Y612218D1*
X2780344Y611660D1*
X2787530Y610150D1*
X2794458Y607713D1*
X2801008Y604390D1*
X2807066Y600239D1*
X2812529Y595331D1*
X2817303Y589751D1*
X2821306Y583594D1*
X2822437Y581457D1*
X2826119Y587705D1*
X2830638Y593493D1*
X2835875Y598642D1*
X2841741Y603059D1*
X2848135Y606673D1*
X2854946Y609419D1*
X2862058Y611249D1*
X2869348Y612135D1*
X2876692Y612059D1*
X2883962Y611022D1*
X2891034Y609045D1*
X2897787Y606159D1*
X2904105Y602413D1*
X2909878Y597874D1*
X2915008Y592619D1*
X2919406Y586738D1*
X2922437Y581457D1*
X2926119Y587705D1*
X2930638Y593493D1*
X2935875Y598642D1*
X2941741Y603059D1*
X2948135Y606673D1*
X2954946Y609419D1*
X2962058Y611249D1*
X2969348Y612135D1*
X2976692Y612059D1*
X2983962Y611022D1*
X2991034Y609045D1*
X2997787Y606159D1*
X3004105Y602413D1*
X3009878Y597874D1*
X3015008Y592619D1*
X3019406Y586738D1*
X3022437Y581457D1*
X3026119Y587705D1*
X3030638Y593493D1*
X3035875Y598642D1*
X3041741Y603059D1*
X3048135Y606673D1*
X3054946Y609419D1*
X3062058Y611249D1*
X3069348Y612135D1*
X3076692Y612059D1*
X3083962Y611022D1*
X3091034Y609045D1*
X3097787Y606159D1*
X3104105Y602413D1*
X3109878Y597874D1*
X3115008Y592619D1*
X3119406Y586738D1*
X3122437Y581457D1*
X3126119Y587705D1*
X3130638Y593493D1*
X3135875Y598642D1*
X3141741Y603059D1*
X3148135Y606673D1*
X3154946Y609419D1*
X3162058Y611249D1*
X3169348Y612135D1*
X3176692Y612059D1*
X3183962Y611022D1*
X3191034Y609045D1*
X3197787Y606159D1*
X3204105Y602413D1*
X3209878Y597874D1*
X3215008Y592619D1*
X3219406Y586738D1*
X3222996Y580332D1*
X3225719Y573512D1*
X3227525Y566394D1*
X3228386Y559100D1*
X3228340Y552529D1*
X3227379Y545248D1*
X3225475Y538156D1*
X3222659Y531373D1*
X3218979Y525017D1*
X3214500Y519198D1*
X3209298Y514014D1*
X3203463Y509555D1*
X3197094Y505898D1*
X3190303Y503105D1*
X3183203Y501224D1*
X3175920Y500289D1*
X3168576Y500315D1*
X3161299Y501301D1*
X3154213Y503230D1*
X3147440Y506070D1*
X3141097Y509770D1*
X3135293Y514269D1*
X3130127Y519490D1*
X3125689Y525340D1*
X3122445Y530946D1*
X3118979Y525017D1*
X3114500Y519198D1*
X3109298Y514014D1*
X3103463Y509555D1*
X3097094Y505898D1*
X3090303Y503105D1*
X3083203Y501224D1*
X3075920Y500289D1*
X3068576Y500315D1*
X3061299Y501301D1*
X3054213Y503230D1*
X3047440Y506070D1*
X3041097Y509770D1*
X3035293Y514269D1*
X3030127Y519490D1*
X3025689Y525340D1*
X3022445Y530946D1*
X3018979Y525017D1*
X3014500Y519198D1*
X3009298Y514014D1*
X3003463Y509555D1*
X2997094Y505898D1*
X2990303Y503105D1*
X2983203Y501224D1*
X2975920Y500289D1*
X2968576Y500315D1*
X2961299Y501301D1*
X2954213Y503230D1*
X2947440Y506070D1*
X2941097Y509770D1*
X2935293Y514269D1*
X2930127Y519490D1*
X2925689Y525340D1*
X2922445Y530946D1*
X2918979Y525017D1*
X2914500Y519198D1*
X2909298Y514014D1*
X2903463Y509555D1*
X2897094Y505898D1*
X2890303Y503105D1*
X2883203Y501224D1*
X2875920Y500289D1*
X2868576Y500315D1*
X2861299Y501301D1*
X2854213Y503230D1*
X2847440Y506070D1*
X2841097Y509770D1*
X2835293Y514269D1*
X2830127Y519490D1*
X2825689Y525340D1*
X2822445Y530946D1*
X2818979Y525017D1*
X2814500Y519198D1*
X2809298Y514014D1*
X2803463Y509555D1*
X2797094Y505898D1*
X2790303Y503105D1*
X2783203Y501224D1*
X2775920Y500289D1*
X2768576Y500315D1*
X2761299Y501301D1*
X2754213Y503230D1*
X2747440Y506070D1*
X2741097Y509770D1*
X2735293Y514269D1*
X2730127Y519490D1*
X2728463Y521512D1*
X2728461Y500181D1*
X2616421D1*
Y612220D1*
X2618259D1*
X1972593Y671776D2*
X1979804Y678979D1*
X1988165Y685054D1*
X1997374Y689747D1*
X2007203Y692940D1*
X2012898Y694022D1*
X1983631Y723445D1*
X1980727Y727444D1*
X1978484Y731846D1*
X1976957Y736546D1*
X1976184Y741427D1*
X1976087Y808202D1*
Y1015864D1*
X1892416Y1099524D1*
X1774077Y1099535D1*
X1771556Y1097469D1*
X1771571Y959643D1*
X1776753Y953727D1*
X1780217Y948075D1*
X1782753Y941951D1*
X1784301Y935505D1*
X1784820Y928898D1*
X1784301Y922290D1*
X1782753Y915844D1*
X1780217Y909720D1*
X1776753Y904068D1*
X1772449Y899028D1*
X1771278Y897946D1*
X1774794Y894286D1*
X1778702Y888908D1*
X1782364Y883226D1*
X1784606Y878823D1*
X1786134Y874123D1*
X1786907Y869243D1*
Y864301D1*
X1786134Y859420D1*
X1784606Y854720D1*
X1782364Y850318D1*
X1776853Y841870D1*
X1772537Y836814D1*
X1767480Y832497D1*
X1762912Y829639D1*
X1721171Y787894D1*
X1766929Y787890D1*
X1773008Y792415D1*
X1778913Y795424D1*
X1785218Y797472D1*
X1791765Y798509D1*
X1798392D1*
X1804940Y797472D1*
X1811244Y795424D1*
X1817150Y792415D1*
X1822513Y788518D1*
X1827199Y783832D1*
X1831096Y778469D1*
X1834105Y772563D1*
X1836154Y766259D1*
X1837190Y759711D1*
Y753084D1*
X1836154Y746537D1*
X1834105Y740232D1*
X1831096Y734327D1*
X1827199Y728963D1*
X1822513Y724277D1*
X1820508Y722697D1*
X1854794Y722596D1*
X1859675Y721823D1*
X1864374Y720295D1*
X1868777Y718052D1*
X1872782Y715140D1*
X1874529Y714554D1*
X1881094Y713514D1*
X1887417Y711461D1*
X1893341Y708442D1*
X1898719Y704534D1*
X1903420Y699833D1*
X1907328Y694455D1*
X1908058Y693151D1*
X1917411Y694556D1*
X1927747D1*
X1937954Y692940D1*
X1947783Y689747D1*
X1956992Y685054D1*
X1965353Y678979D1*
X1972564Y671776D1*
X1809660Y1185778D2*
X1808975Y1181522D1*
X1915791Y1181423D1*
X1920672Y1180650D1*
X1925371Y1179122D1*
X1929774Y1176879D1*
X1933773Y1173974D1*
X1981059Y1126825D1*
X2032136Y1075748D1*
X2035457Y1084379D1*
Y1217904D1*
X2030336Y1221682D1*
X2025635Y1226383D1*
X2021727Y1231761D1*
X2018709Y1237685D1*
X2016655Y1244008D1*
X2015615Y1250573D1*
Y1257222D1*
X2016655Y1263787D1*
X2018709Y1270110D1*
X2021727Y1276034D1*
X2025635Y1281412D1*
X2028819Y1284710D1*
X2005781Y1284709D1*
X1999577Y1280077D1*
X1993654Y1277059D1*
X1987331Y1275005D1*
X1980765Y1273966D1*
X1974117D1*
X1967551Y1275005D1*
X1961228Y1277059D1*
X1955304Y1280077D1*
X1949927Y1283986D1*
X1945226Y1288686D1*
X1941318Y1294064D1*
X1938299Y1299988D1*
X1936245Y1306311D1*
X1935206Y1312877D1*
Y1319525D1*
X1936245Y1326091D1*
X1938299Y1332413D1*
X1941318Y1338337D1*
X1943255Y1341215D1*
X1875617Y1341209D1*
X1876924Y1335525D1*
X1877445Y1328898D1*
X1876924Y1322270D1*
X1875371Y1315806D1*
X1873594Y1311328D1*
X1877409Y1305214D1*
X1879954Y1299072D1*
X1881507Y1292608D1*
X1882028Y1285980D1*
X1881507Y1279353D1*
X1879954Y1272888D1*
X1877409Y1266747D1*
X1873936Y1261079D1*
X1869619Y1256022D1*
X1864563Y1251706D1*
X1858895Y1248232D1*
X1852753Y1245688D1*
X1846289Y1244135D1*
X1839661Y1243614D1*
X1836222Y1243759D1*
X1837871Y1239490D1*
X1839424Y1233025D1*
X1839945Y1226398D1*
X1839424Y1219770D1*
X1837871Y1213306D1*
X1835327Y1207164D1*
X1831853Y1201496D1*
X1827537Y1196440D1*
X1822480Y1192123D1*
X1816812Y1188650D1*
X1810671Y1186105D1*
X1809707Y1185833D1*
X1535538Y952816D2*
X1536504Y958759D1*
X1538552Y965063D1*
X1541562Y970969D1*
X1545458Y976332D1*
X1550144Y981018D1*
X1555508Y984915D1*
X1561413Y987924D1*
X1567718Y989972D1*
X1573660Y990938D1*
X1582591Y999861D1*
X1582686Y1121448D1*
X1583484Y1126483D1*
X1585060Y1131332D1*
X1587374Y1135875D1*
X1590371Y1140000D1*
X1637573Y1187344D1*
X1701476Y1251105D1*
X1705601Y1254102D1*
X1710144Y1256416D1*
X1714993Y1257992D1*
X1720029Y1258790D1*
X1770412Y1258890D1*
X1775442Y1262521D1*
X1781366Y1265539D1*
X1787026Y1267407D1*
X1596260Y1267406D1*
X1599699Y1263832D1*
X1603596Y1258469D1*
X1606605Y1252563D1*
X1608654Y1246259D1*
X1609690Y1239711D1*
Y1233084D1*
X1608654Y1226537D1*
X1606605Y1220232D1*
X1603596Y1214327D1*
X1599699Y1208963D1*
X1595013Y1204277D1*
X1589650Y1200381D1*
X1583744Y1197371D1*
X1577440Y1195323D1*
X1570892Y1194286D1*
X1564265D1*
X1557718Y1195323D1*
X1551413Y1197371D1*
X1547486Y1199273D1*
X1536593Y1188375D1*
X1536474Y1011427D1*
X1535701Y1006546D1*
X1534173Y1001846D1*
X1531930Y997444D1*
X1529026Y993445D1*
X1481877Y946159D1*
X1469520Y933802D1*
X1469822Y928898D1*
X1469723Y926399D1*
X1509130Y926390D1*
X1535508Y952777D1*
X2098487Y751955D2*
X2103314Y753046D1*
X2109941Y753567D1*
X2116375Y753068D1*
X2103633Y765945D1*
X2100727Y769944D1*
X2098484Y774346D1*
X2096957Y779046D1*
X2096184Y783927D1*
X2096087Y850702D1*
X2096043Y1053955D1*
X2093801Y1049552D1*
X2090896Y1045554D1*
X2077063Y1031584D1*
X2077072Y773390D1*
X2098475Y751963D1*
X2178073Y1229375D2*
X2179831Y1233383D1*
X2183304Y1239051D1*
X2187621Y1244108D1*
X2192677Y1248424D1*
X2198345Y1251898D1*
X2204487Y1254442D1*
X2210951Y1255995D1*
X2214091Y1256613D1*
X2293528Y1335908D1*
X2297652Y1338906D1*
X2299888Y1340156D1*
X2297723Y1341209D1*
X2134199D1*
X2170525Y1304720D1*
X2173430Y1300722D1*
X2175673Y1296319D1*
X2177201Y1291619D1*
X2177974Y1286739D1*
X2178071Y1229472D1*
X1708585Y1063450D2*
X1703133Y1061223D1*
X1696686Y1059676D1*
X1690079Y1059155D1*
X1685182Y1059472D1*
X1666558Y1040840D1*
X1666571Y980514D1*
X1672718Y982472D1*
X1679265Y983509D1*
X1685892D1*
X1692440Y982472D1*
X1698744Y980424D1*
X1704650Y977415D1*
X1708579Y974650D1*
X1708587Y1063416D1*
X602441Y1225276D2*
D24*
Y1169291D1*
X526772D2*
X678110D1*
X500079Y865039D2*
Y749134D1*
Y807087D2*
X605276D1*
X500079Y1313858D2*
Y1197953D1*
Y1255906D2*
X605276D1*
X2672441Y612185D2*
Y500217D1*
X2616457Y556201D2*
X2672441D1*
X2772441Y612185D2*
Y500217D1*
X2872441Y612185D2*
Y500217D1*
X2972441Y612185D2*
Y500217D1*
X3072441Y612185D2*
Y500217D1*
X3172441Y612185D2*
Y500217D1*
Y556201D2*
X3228425D1*
X2672441Y683701D2*
Y627717D1*
X2616457Y683701D2*
X2672441D1*
X2772441D2*
Y627717D1*
X2872441Y683701D2*
Y627717D1*
X2972441Y683701D2*
Y627717D1*
X3072441Y683701D2*
Y627717D1*
X3172441Y683701D2*
Y627717D1*
Y683701D2*
X3228425D1*
X1322441Y528701D2*
Y462874D1*
X1024941Y1581713D2*
Y1410689D1*
X939429Y1496201D2*
X1110453D1*
D141*
X602441Y893701D3*
Y992126D3*
Y1070866D3*
Y1169291D3*
D33*
X500079Y807087D3*
Y1255906D3*
D34*
X2672441Y556201D3*
D35*
X2772441D3*
X2872441D3*
X2972441D3*
X3072441D3*
X3172441D3*
D34*
X2672441Y683701D3*
D35*
X2772441D3*
X2872441D3*
X2972441D3*
X3072441D3*
X3172441D3*
D34*
X2669941Y1538701D3*
D35*
X2769941D3*
X2869941D3*
X2969941D3*
X3069941D3*
X3169941D3*
D34*
X2672441Y1406201D3*
D35*
X2772441D3*
X2872441D3*
X2972441D3*
X3072441D3*
X3172441D3*
D36*
X2522579Y628898D3*
X2422579D3*
X2322579D3*
X2222579D3*
X2122579D3*
X2022579D3*
X1922579D3*
X1822579D3*
X1722579D3*
X1622579D3*
X1522579D3*
X1422579D3*
X1322579D3*
X1222579D3*
X1122579D3*
X1022579D3*
X1422441Y1528701D3*
X1522441D3*
X1622441D3*
X1722441D3*
X1822441D3*
X1922441D3*
X2022441D3*
X2122441D3*
X2222441D3*
X2322441D3*
X2422441D3*
X2522441D3*
X1422579Y1428898D3*
X1522579D3*
X1622579D3*
X1722579D3*
X1822579D3*
X1922579D3*
X2022579D3*
X2122579D3*
X2222579D3*
X2322579D3*
X2422579D3*
X2522579D3*
X2522441Y528701D3*
X2422441D3*
X2322441D3*
X2222441D3*
X2122441D3*
X2022441D3*
X1922441D3*
X1822441D3*
X1722441D3*
X1622441D3*
X1522441D3*
X1422441D3*
X1322441D3*
X1222441D3*
X1122441D3*
X1022441D3*
D43*
X2547441Y788701D3*
D45*
X1024941Y1496201D3*
X1194941Y1503701D3*
X854941Y1486201D3*
D49*
X1209941Y718701D3*
X1149941D3*
D50*
X1179941D3*
D36*
X2674941Y1191201D3*
Y1091201D3*
Y991201D3*
Y891201D3*
Y791201D3*
X2774941Y1291201D3*
Y1191201D3*
Y1091201D3*
Y991201D3*
Y891201D3*
Y791201D3*
X2874941Y1291201D3*
Y1191201D3*
Y1091201D3*
Y991201D3*
Y891201D3*
Y791201D3*
X2974941Y1291201D3*
Y1191201D3*
Y1091201D3*
Y991201D3*
Y891201D3*
Y791201D3*
X3074941Y1291201D3*
Y1191201D3*
Y1091201D3*
Y991201D3*
Y891201D3*
Y791201D3*
X3174941Y1291201D3*
Y1191201D3*
Y1091201D3*
Y991201D3*
Y891201D3*
Y791201D3*
D35*
X1502579Y783898D3*
X1595079Y786398D3*
D36*
X2674941Y1291201D3*
M02*
