M48
INCH
T01C0.01
T02C0.0118
T03C0.0155
T04C0.0157
T05C0.0354
T06C0.0394
T07C0.0433
T08C0.0591
%
T01
X+013424Y+011762
T02
X+021174Y+007612
X+022511Y+011959
X+021724Y+012137
T03
X+013298Y+010302
X+013598Y+010302
X+014174Y+010612
X+014276Y+009289
X+014776Y+009314
X+014526Y+008389
X+013901Y+008414
X+013186Y+009099
X+013499Y+009362
X+011749Y+010112
X+011551Y+008789
X+011801Y+007964
X+009399Y+007762
X+008299Y+007837
X+007399Y+006912
X+006149Y+006787
X+007324Y+004612
X+007299Y+011137
X+006999Y+013612
X+007074Y+015712
X+013299Y+016262
X+014474Y+013687
X+014649Y+012037
X+015676Y+012364
X+015676Y+011439
X+016901Y+011014
X+017276Y+011714
X+018299Y+010637
X+017426Y+009289
X+017051Y+008939
X+016826Y+009414
X+015776Y+009489
X+017951Y+007564
X+018999Y+007862
X+021749Y+010675
X+021749Y+011787
X+023148Y+011959
X+023098Y+011177
X+024724Y+011337
X+025549Y+013737
X+025574Y+016462
X+030724Y+016387
X+020274Y+016362
X+012249Y+011912
X+012274Y+011362
X+023899Y+007412
X+027449Y+004512
T04
X+015751Y+010439
X+016726Y+010414
X+017457Y+011310
X+017676Y+011904
X+017976Y+012264
X+018001Y+012689
X+018397Y+012860
X+018351Y+013289
X+019774Y+013162
X+020099Y+013437
X+020579Y+012539
X+019651Y+011514
X+020301Y+010839
X+020976Y+010714
X+021976Y+010139
X+022351Y+009189
X+022426Y+008214
X+022030Y+008089
X+021649Y+007012
X+021099Y+007112
X+018712Y+006723
X+018301Y+008864
X+018926Y+009414
X+019601Y+009414
X+019676Y+009989
X+018926Y+010114
X+018901Y+010839
X+017426Y+008668
X+022076Y+011539
X+022176Y+012141
X+022049Y+012662
X+022426Y+013364
T05
X+026724Y+005562
X+027724Y+005562
X+028724Y+005562
X+029724Y+005562
X+030724Y+005562
X+031724Y+005562
X+031724Y+006837
X+030724Y+006837
X+029724Y+006837
X+028724Y+006837
X+027724Y+006837
X+026724Y+006837
X+026724Y+014062
X+027724Y+014062
X+028724Y+014062
X+029724Y+014062
X+030724Y+014062
X+031724Y+014062
X+031699Y+015387
X+030699Y+015387
X+029699Y+015387
X+028699Y+015387
X+027699Y+015387
X+026699Y+015387
T06
X+006024Y+008937
X+006024Y+009921
X+006024Y+010709
X+006024Y+011693
X+005296Y+012559G85X+004706Y+012559
X+005296Y+008071G85X+004706Y+008071
X+010226Y+006289
X+011226Y+006289
X+012226Y+006289
X+013226Y+006289
X+014226Y+006289
X+015226Y+006289
X+016226Y+006289
X+017226Y+006289
X+018226Y+006289
X+019226Y+006289
X+020226Y+006289
X+021226Y+006289
X+022226Y+006289
X+023226Y+006289
X+024226Y+006289
X+025226Y+006289
X+025224Y+005287
X+024224Y+005287
X+023224Y+005287
X+022224Y+005287
X+021224Y+005287
X+020224Y+005287
X+019224Y+005287
X+018224Y+005287
X+017224Y+005287
X+016224Y+005287
X+015224Y+005287
X+014224Y+005287
X+013224Y+005287
X+012224Y+005287
X+011224Y+005287
X+010224Y+005287
X+014226Y+014289
X+014224Y+015287
X+015224Y+015287
X+015226Y+014289
X+016226Y+014289
X+016224Y+015287
X+017224Y+015287
X+017226Y+014289
X+018226Y+014289
X+018224Y+015287
X+019224Y+015287
X+019226Y+014289
X+020226Y+014289
X+020224Y+015287
X+021224Y+015287
X+021226Y+014289
X+022226Y+014289
X+022224Y+015287
X+023224Y+015287
X+023226Y+014289
X+024226Y+014289
X+024224Y+015287
X+025224Y+015287
X+025226Y+014289
X+025474Y+007887
T07
X+005001Y+009429
X+005001Y+011201
X+026749Y+010912
X+026749Y+009912
X+026749Y+008912
X+027749Y+008912
X+027749Y+009912
X+027749Y+010912
X+027749Y+011912
X+027749Y+012912
X+026749Y+012912
X+026749Y+011912
X+028749Y+011912
X+028749Y+012912
X+029749Y+012912
X+029749Y+011912
X+030749Y+011912
X+030749Y+012912
X+031749Y+012912
X+031749Y+011912
X+031749Y+010912
X+031749Y+009912
X+031749Y+008912
X+030749Y+008912
X+030749Y+009912
X+030749Y+010912
X+029749Y+010912
X+028749Y+010912
X+028749Y+009912
X+028749Y+008912
X+029749Y+008912
X+029749Y+009912
X+029749Y+007912
X+030749Y+007912
X+031749Y+007912
X+028749Y+007912
X+027749Y+007912
X+026749Y+007912
T08
X+010249Y+014962
X+011949Y+015037
X+008549Y+014862
T00
M30
