G04 DipTrace 3.3.1.3*
G04 TopGlue.gbr*
%MOIN*%
G04 #@! TF.FileFunction,Drawing,Glue*
G04 #@! TF.Part,Single*
%FSLAX26Y26*%
G04*
G70*
G90*
G75*
G01*
G04 Top Glue*
%LPD*%
G36*
X1236709Y733134D2*
X1252449D1*
Y756756D1*
X1236709D1*
Y733134D1*
G37*
G36*
X1520709Y766587D2*
X1536449D1*
Y790209D1*
X1520709D1*
Y766587D1*
G37*
G36*
X1612209Y817087D2*
X1627949D1*
Y840709D1*
X1612209D1*
Y817087D1*
G37*
G36*
X2186709Y750087D2*
X2202449D1*
Y773709D1*
X2186709D1*
Y750087D1*
G37*
G36*
X1517709Y884587D2*
X1533449D1*
Y908209D1*
X1517709D1*
Y884587D1*
G37*
G36*
X1932512Y774283D2*
X1948252D1*
Y797906D1*
X1932512D1*
Y774283D1*
G37*
G36*
X1114709Y734587D2*
X1130449D1*
Y758209D1*
X1114709D1*
Y734587D1*
G37*
G36*
X1439709Y997087D2*
X1455449D1*
Y1020709D1*
X1439709D1*
Y997087D1*
G37*
G36*
X1310209Y823087D2*
X1325949D1*
Y846709D1*
X1310209D1*
Y823087D1*
G37*
G36*
X1607209Y884587D2*
X1622949D1*
Y908209D1*
X1607209D1*
Y884587D1*
G37*
G36*
X1639709Y1134587D2*
X1655449D1*
Y1158209D1*
X1639709D1*
Y1134587D1*
G37*
M02*
