G04 DipTrace 3.3.1.3*
G04 TopMask.stc*
%MOIN*%
G04 #@! TF.FileFunction,Soldermask,Top*
G04 #@! TF.Part,Single*
%AMOUTLINE1*
4,1,20,
0.0,0.033482,
0.015977,0.031964,
0.030539,0.027512,
0.042395,0.020398,
0.050383,0.010992,
0.053284,0.0,
0.050383,-0.010992,
0.042395,-0.020398,
0.030539,-0.027512,
0.015977,-0.031964,
0.0,-0.033482,
-0.015977,-0.031964,
-0.030539,-0.027512,
-0.042395,-0.020398,
-0.050383,-0.010992,
-0.053284,0.0,
-0.050383,0.010992,
-0.042395,0.020398,
-0.030539,0.027512,
-0.015977,0.031964,
0.0,0.033482,
0*%
%ADD12C,0.002992*%
%ADD16C,0.019685*%
%ADD71C,0.043307*%
%ADD79R,0.051181X0.082677*%
%ADD81C,0.047244*%
%ADD83R,0.192913X0.192913*%
%ADD85R,0.035433X0.016535*%
%ADD87R,0.016535X0.035433*%
%ADD89R,0.070866X0.043307*%
%ADD91R,0.017717X0.027559*%
%ADD93R,0.07874X0.055118*%
%ADD95R,0.068898X0.031496*%
%ADD97R,0.018701X0.027559*%
%ADD99R,0.043307X0.043307*%
%ADD105R,0.066929X0.059055*%
%ADD107R,0.059055X0.066929*%
%ADD109C,0.125984*%
%ADD111R,0.598425X0.086614*%
%ADD113C,0.086614*%
%ADD115R,0.049213X0.033465*%
%ADD117R,0.041339X0.047244*%
%ADD119R,0.047244X0.125984*%
%ADD121R,0.094488X0.047874*%
%ADD123C,0.086614*%
%ADD125C,0.066929*%
%ADD127R,0.066929X0.066929*%
%ADD129O,0.165354X0.070866*%
%ADD131R,0.056693X0.066929*%
%ADD133R,0.050197X0.047244*%
%ADD135R,0.047244X0.050197*%
%ADD137R,0.066929X0.056693*%
%ADD142OUTLINE1*%
%FSLAX26Y26*%
G04*
G70*
G90*
G75*
G01*
G04 TopMask*
%LPD*%
D137*
X1247441Y1068504D3*
Y993701D3*
D135*
X1528579Y744933D3*
Y811862D3*
D137*
X1429941Y1063701D3*
Y988898D3*
D133*
X1653543Y828898D3*
X1586614D3*
D131*
X2115677Y1313898D3*
X2190480D3*
D133*
X1973846Y786094D3*
X1906917D3*
D135*
X1525579Y862933D3*
Y929862D3*
X1318079Y868362D3*
Y801433D3*
D137*
X1512579Y1061299D3*
Y986496D3*
D133*
X1211114Y744945D3*
X1278043D3*
X1681043Y1146398D3*
X1614114D3*
D142*
X602441Y893701D3*
Y992126D3*
Y1070866D3*
Y1169291D3*
D129*
X500079Y807087D3*
Y1255906D3*
D71*
Y942913D3*
Y1120079D3*
D127*
X2672441Y556201D3*
D125*
X2772441D3*
X2872441D3*
X2972441D3*
X3072441D3*
X3172441D3*
D127*
X2672441Y683701D3*
D125*
X2772441D3*
X2872441D3*
X2972441D3*
X3072441D3*
X3172441D3*
D127*
X2669941Y1538701D3*
D125*
X2769941D3*
X2869941D3*
X2969941D3*
X3069941D3*
X3169941D3*
D127*
X2672441Y1406201D3*
D125*
X2772441D3*
X2872441D3*
X2972441D3*
X3072441D3*
X3172441D3*
D123*
X2522579Y628898D3*
X2422579D3*
X2322579D3*
X2222579D3*
X2122579D3*
X2022579D3*
X1922579D3*
X1822579D3*
X1722579D3*
X1622579D3*
X1522579D3*
X1422579D3*
X1322579D3*
X1222579D3*
X1122579D3*
X1022579D3*
X1422441Y1528701D3*
X1522441D3*
X1622441D3*
X1722441D3*
X1822441D3*
X1922441D3*
X2022441D3*
X2122441D3*
X2222441D3*
X2322441D3*
X2422441D3*
X2522441D3*
X1422579Y1428898D3*
X1522579D3*
X1622579D3*
X1722579D3*
X1822579D3*
X1922579D3*
X2022579D3*
X2122579D3*
X2222579D3*
X2322579D3*
X2422579D3*
X2522579D3*
X2522441Y528701D3*
X2422441D3*
X2322441D3*
X2222441D3*
X2122441D3*
X2022441D3*
X1922441D3*
X1822441D3*
X1722441D3*
X1622441D3*
X1522441D3*
X1422441D3*
X1322441D3*
X1222441D3*
X1122441D3*
X1022441D3*
D121*
X1602579Y1088268D3*
Y999528D3*
D119*
X1302441Y1161201D3*
X1381181D3*
D117*
X1456028Y888295D3*
Y750500D3*
X1387130Y888295D3*
Y750500D3*
D115*
X2324760Y872702D3*
Y797899D3*
X2415311Y835301D3*
D113*
X2547441Y788701D3*
D111*
X2919941Y558701D3*
X2907441Y1538701D3*
Y1403701D3*
X2919941Y686201D3*
D109*
X1024941Y1496201D3*
X1194941Y1503701D3*
X854941Y1486201D3*
D107*
X2402260Y952702D3*
X2327457D3*
D105*
X1464941Y1131201D3*
Y1206004D3*
X1622441Y1333701D3*
Y1258898D3*
D133*
X1156043Y746398D3*
X1089114D3*
X2228043Y761898D3*
X2161114D3*
X1581614Y896398D3*
X1648543D3*
D123*
X2674941Y1191201D3*
Y1091201D3*
Y991201D3*
Y891201D3*
Y791201D3*
X2774941Y1291201D3*
Y1191201D3*
Y1091201D3*
Y991201D3*
Y891201D3*
Y791201D3*
X2874941Y1291201D3*
Y1191201D3*
Y1091201D3*
Y991201D3*
Y891201D3*
Y791201D3*
X2974941Y1291201D3*
Y1191201D3*
Y1091201D3*
Y991201D3*
Y891201D3*
Y791201D3*
X3074941Y1291201D3*
Y1191201D3*
Y1091201D3*
Y991201D3*
Y891201D3*
Y791201D3*
X3174941Y1291201D3*
Y1191201D3*
Y1091201D3*
Y991201D3*
Y891201D3*
Y791201D3*
D99*
X1061870Y804902D3*
Y867894D3*
X1223287D3*
Y804902D3*
D97*
X2180551Y863654D3*
X2200236D3*
X2219921D3*
X2239606D3*
X2180551Y958142D3*
X2200236D3*
X2219921D3*
X2239606D3*
D95*
X2327260Y1077702D3*
Y1117072D3*
Y1156442D3*
Y1195812D3*
D93*
X2480803Y1036757D3*
Y1237545D3*
D91*
X1314760Y992702D3*
X1334445D3*
X1354130D3*
X1373815D3*
Y1067505D3*
X1354130D3*
X1334445D3*
X1314760D3*
D89*
X1344287Y1030104D3*
D87*
X1812441Y838701D3*
X1832126D3*
X1851811D3*
X1871496D3*
X1891181D3*
X1910866D3*
X1930551D3*
X1950236D3*
X1969921D3*
X1989606D3*
X2009291D3*
X2028976D3*
X2048661D3*
X2068346D3*
X2088031D3*
X2107717D3*
D85*
X2135277Y866260D3*
Y885945D3*
Y905630D3*
Y925315D3*
Y945000D3*
Y964685D3*
Y984370D3*
Y1004055D3*
Y1023740D3*
Y1043425D3*
Y1063110D3*
Y1082795D3*
Y1102480D3*
Y1122165D3*
Y1141850D3*
Y1161535D3*
D87*
X2107717Y1189096D3*
X2088031D3*
X2068346D3*
X2048661D3*
X2028976D3*
X2009291D3*
X1989606D3*
X1969921D3*
X1950236D3*
X1930551D3*
X1910866D3*
X1891181D3*
X1871496D3*
X1851811D3*
X1832126D3*
X1812441D3*
D85*
X1784882Y1161535D3*
Y1141850D3*
Y1122165D3*
Y1102480D3*
Y1082795D3*
Y1063110D3*
Y1043425D3*
Y1023740D3*
Y1004055D3*
Y984370D3*
Y964685D3*
Y945000D3*
Y925315D3*
Y905630D3*
Y885945D3*
Y866260D3*
D83*
X1960079Y1013898D3*
X582441Y1555728D2*
D16*
G02X611969Y1526201I9J-29518D01*
G01*
G02X582441Y1496673I-29518J-9D01*
G01*
G02X552913Y1526201I-9J29518D01*
G01*
G02X582441Y1555728I29518J9D01*
G01*
D81*
Y1526201D3*
X2542441Y958228D2*
D16*
G02X2571969Y928701I9J-29518D01*
G01*
G02X2542441Y899173I-29518J-9D01*
G01*
G02X2512913Y928701I-9J29518D01*
G01*
G02X2542441Y958228I29518J9D01*
G01*
D81*
Y928701D3*
D79*
X1583835Y755898D3*
X1678323D3*
D123*
X2674941Y1291201D3*
X555470Y651951D2*
D12*
X556966D1*
X554211Y650455D2*
X557471D1*
X553138Y648959D2*
X557864D1*
X552214Y647463D2*
X558077D1*
X546493Y645967D2*
X547990D1*
X551282D2*
X557718D1*
X545566Y644471D2*
X547465D1*
X550081D2*
X557181D1*
X544707Y642975D2*
X546956D1*
X548424D2*
X556530D1*
X866651D2*
X868147D1*
X543853Y641479D2*
X555820D1*
X615312D2*
X619801D1*
X867352D2*
X869580D1*
X542887Y639983D2*
X555082D1*
X614744D2*
X620491D1*
X868147D2*
X870826D1*
X541718Y638487D2*
X554292D1*
X614107D2*
X620915D1*
X700588D2*
X706572D1*
X776887D2*
X781375D1*
X866535D2*
X871714D1*
X927990D2*
D3*
X495627Y636991D2*
X498619D1*
X540394D2*
X553409D1*
X613471D2*
X621080D1*
X693925D2*
X717045D1*
X773204D2*
X782975D1*
X865304D2*
X872219D1*
X927758D2*
X930982D1*
X494194Y635495D2*
X500743D1*
X539024D2*
X552492D1*
X612993D2*
X620991D1*
X673659D2*
X681139D1*
X685778D2*
X717270D1*
X769788D2*
X785042D1*
X838226D2*
X841218D1*
X845706D2*
D3*
X864482D2*
X872464D1*
X927387D2*
X931903D1*
X492948Y633999D2*
X502425D1*
X537754D2*
X551721D1*
X612727D2*
X620725D1*
X672220D2*
X717588D1*
X766631D2*
X787360D1*
X805312D2*
X809801D1*
X837426D2*
X847202D1*
X864021D2*
X872569D1*
X926994D2*
X932704D1*
X492060Y632503D2*
X503583D1*
X536681D2*
X551094D1*
X613017D2*
X620547D1*
X666178D2*
X667675D1*
X670916D2*
X717785D1*
X763734D2*
X786675D1*
X803904D2*
X811750D1*
X836412D2*
X847202D1*
X863752D2*
X872611D1*
X926680D2*
X933309D1*
X491555Y631007D2*
X504369D1*
X535763D2*
X550469D1*
X610824D2*
D3*
X613351D2*
X620649D1*
X667587D2*
X717689D1*
X761061D2*
X786298D1*
X803375D2*
X813247D1*
X835330D2*
X847196D1*
X863468D2*
X872627D1*
X926344D2*
X933667D1*
X491317Y629510D2*
X504958D1*
X534893D2*
X549796D1*
X611099D2*
X610824D1*
X613588D2*
X620896D1*
X664682D2*
D3*
X668110D2*
X717444D1*
X758437D2*
X786265D1*
X803001D2*
X814324D1*
X834341D2*
X847144D1*
X863067D2*
X872632D1*
X925870D2*
X933851D1*
X491264Y628014D2*
X505408D1*
X533979D2*
X549086D1*
X611624D2*
X610824D1*
X613717D2*
X621094D1*
X663186D2*
D3*
X668426D2*
X717247D1*
X755701D2*
X786474D1*
X802643D2*
X815047D1*
X833465D2*
X846947D1*
X862617D2*
X872634D1*
X925269D2*
X933982D1*
X491412Y626518D2*
X505255D1*
X533056D2*
X548353D1*
X613779D2*
X621207D1*
X661690D2*
D3*
X668534D2*
X717128D1*
X752851D2*
X772167D1*
X775166D2*
X786628D1*
X802249D2*
X815446D1*
X832661D2*
X846536D1*
X862160D2*
X872635D1*
X924634D2*
X934204D1*
X491761Y625022D2*
X504999D1*
X507596D2*
D3*
X532327D2*
X547607D1*
X610824D2*
X621260D1*
X660194D2*
D3*
X668321D2*
X690389D1*
X691612D2*
X717023D1*
X749981D2*
X770287D1*
X774852D2*
X786516D1*
X801734D2*
X815589D1*
X831936D2*
X845962D1*
X861656D2*
X872629D1*
X924055D2*
X934580D1*
X492191Y623526D2*
X504781D1*
X531843D2*
X546813D1*
X610307D2*
X621283D1*
X660194D2*
D3*
X667845D2*
X683696D1*
X703580D2*
X716809D1*
X747264D2*
X768342D1*
X774560D2*
X786260D1*
X801106D2*
X815482D1*
X831321D2*
X845343D1*
X861156D2*
X872577D1*
X923539D2*
X935021D1*
X492641Y622030D2*
X507596D1*
X531432D2*
X545923D1*
X609809D2*
X621292D1*
X658698D2*
D3*
X667221D2*
X679390D1*
X703349D2*
X716442D1*
X744889D2*
X766415D1*
X770903D2*
D3*
X774885D2*
X786008D1*
X800414D2*
X815158D1*
X830785D2*
X844820D1*
X860678D2*
X872386D1*
X923009D2*
X935474D1*
X493143Y620534D2*
X508113D1*
X530921D2*
X544954D1*
X609335D2*
X621289D1*
X666522D2*
X676445D1*
X702972D2*
X716055D1*
X742891D2*
X768004D1*
X775391D2*
X785704D1*
X799694D2*
X814787D1*
X830203D2*
X844490D1*
X860164D2*
X872028D1*
X922500D2*
X935972D1*
X493643Y619038D2*
X508611D1*
X530250D2*
X543991D1*
X608824D2*
X621238D1*
X655706D2*
X657202D1*
X660194D2*
D3*
X665794D2*
X675195D1*
X702526D2*
X715787D1*
X741153D2*
X769407D1*
X774695D2*
X785293D1*
X799002D2*
X814531D1*
X829554D2*
X844273D1*
X859661D2*
X871638D1*
X922018D2*
X936419D1*
X494121Y617542D2*
X509085D1*
X529368D2*
X536021D1*
X539013D2*
X543006D1*
X608322D2*
X621047D1*
X657997D2*
X658698D1*
X665064D2*
X674148D1*
X702021D2*
X715596D1*
X739552D2*
X767163D1*
X774212D2*
X784886D1*
X798400D2*
X814388D1*
X828898D2*
X844008D1*
X859182D2*
X871325D1*
X921504D2*
X936706D1*
X494633Y616046D2*
X509590D1*
X528227D2*
X534525D1*
X537517D2*
X541992D1*
X607837D2*
X620689D1*
X660194D2*
D3*
X664429D2*
X673151D1*
X701333D2*
X715336D1*
X738014D2*
X765046D1*
X773804D2*
X784617D1*
X797875D2*
X814272D1*
X828306D2*
X843620D1*
X858674D2*
X870995D1*
X921000D2*
X936855D1*
X495137Y614550D2*
X510040D1*
X526863D2*
X540999D1*
X607277D2*
X620306D1*
X657202D2*
X658698D1*
X663936D2*
X672147D1*
X700522D2*
X714898D1*
X736502D2*
X762974D1*
X773344D2*
X784469D1*
X797348D2*
X814055D1*
X827705D2*
X843231D1*
X858218D2*
X870574D1*
X920515D2*
X936916D1*
X495616Y613054D2*
X510328D1*
X525308D2*
X533029D1*
X536021D2*
X539902D1*
X606630D2*
X620051D1*
X652714D2*
X658181D1*
X664212D2*
X671217D1*
X699798D2*
X714308D1*
X735000D2*
X760997D1*
X772864D2*
X784352D1*
X796883D2*
X813699D1*
X826964D2*
X843019D1*
X857877D2*
X870164D1*
X919955D2*
X936891D1*
X496129Y611558D2*
X510483D1*
X523676D2*
X531533D1*
X534525D2*
X538509D1*
X605931D2*
X619976D1*
X655706D2*
X657683D1*
X664682D2*
X670365D1*
X699192D2*
X713633D1*
X733502D2*
X759201D1*
X772356D2*
X784134D1*
X796540D2*
X813425D1*
X825109D2*
X843075D1*
X857537D2*
X869887D1*
X895076D2*
X898068D1*
X919313D2*
X936711D1*
X496633Y610062D2*
X510602D1*
X522166D2*
X536839D1*
X605201D2*
X620055D1*
X653066D2*
X657203D1*
X663704D2*
X669523D1*
X698575D2*
X712918D1*
X732006D2*
X757552D1*
X771693D2*
X783760D1*
X796199D2*
X813388D1*
X820508D2*
X843422D1*
X857111D2*
X869692D1*
X893586D2*
X899790D1*
X918660D2*
X936351D1*
X497112Y608566D2*
X510821D1*
X520803D2*
X530037D1*
X533029D2*
X535060D1*
X604433D2*
X604840D1*
X607557D2*
X620787D1*
X651134D2*
X656645D1*
X662705D2*
X668612D1*
X697910D2*
X712235D1*
X730509D2*
X755987D1*
X770903D2*
X783320D1*
X795773D2*
X814441D1*
X814148D2*
X843970D1*
X856694D2*
X869437D1*
X892142D2*
X901598D1*
X918075D2*
X935916D1*
X497625Y607070D2*
X511201D1*
X519477D2*
X528541D1*
X531533D2*
X533117D1*
X536021D2*
D3*
X603406D2*
X604840D1*
X607032D2*
X622424D1*
X649781D2*
X656005D1*
X661689D2*
X667641D1*
X697254D2*
X711687D1*
X732005D2*
X754463D1*
X771508D2*
X782867D1*
X795356D2*
X844579D1*
X856366D2*
X869057D1*
X890843D2*
X903233D1*
X917556D2*
X935459D1*
X498129Y605573D2*
X511703D1*
X518192D2*
X530807D1*
X601997D2*
X624289D1*
X648712D2*
X655359D1*
X660751D2*
X666723D1*
X696712D2*
X711346D1*
X727517D2*
D3*
X731021D2*
X752956D1*
X771457D2*
X782370D1*
X795027D2*
X845102D1*
X855992D2*
X868720D1*
X889758D2*
X904570D1*
X917026D2*
X934909D1*
X498608Y604077D2*
X512428D1*
X516873D2*
X528414D1*
X598315D2*
X622793D1*
X647661D2*
X654826D1*
X659901D2*
X665881D1*
X696330D2*
X711125D1*
X729976D2*
X751456D1*
X771254D2*
X781922D1*
X794653D2*
X845450D1*
X855413D2*
X868544D1*
X888842D2*
X905131D1*
X916515D2*
X934272D1*
X499116Y602581D2*
X513598D1*
X515328D2*
X526440D1*
X530037D2*
D3*
X593657D2*
X624399D1*
X646466D2*
X654504D1*
X659104D2*
X665086D1*
X695967D2*
X710859D1*
X728816D2*
X749959D1*
X771029D2*
X781635D1*
X794074D2*
X850194D1*
X854682D2*
X869014D1*
X888018D2*
X905595D1*
X916034D2*
X933620D1*
X499566Y601085D2*
X524940D1*
X528541D2*
D3*
X588660D2*
X625748D1*
X645176D2*
X654395D1*
X658332D2*
X664315D1*
X695482D2*
X710471D1*
X727663D2*
X748468D1*
X770743D2*
X781486D1*
X793344D2*
X850194D1*
X856178D2*
X869643D1*
X887240D2*
X906077D1*
X915519D2*
X933035D1*
X499855Y599589D2*
X523665D1*
X583905D2*
X591375D1*
X598856D2*
X626390D1*
X643947D2*
X654552D1*
X657536D2*
X663511D1*
X694872D2*
X710076D1*
X726661D2*
X747024D1*
X770388D2*
X781413D1*
X793977D2*
X847623D1*
X855251D2*
X868830D1*
X886479D2*
X906510D1*
X915016D2*
X932517D1*
X500004Y598093D2*
X522413D1*
X527045D2*
D3*
X579407D2*
X582399D1*
X591375D2*
X626226D1*
X642890D2*
X655032D1*
X656661D2*
X662624D1*
X694188D2*
X709811D1*
X725858D2*
X745719D1*
X770168D2*
X781333D1*
X794365D2*
X844828D1*
X854398D2*
X867934D1*
X885723D2*
X906796D1*
X914536D2*
X931992D1*
X500077Y596597D2*
X521219D1*
X582399D2*
X625282D1*
X641985D2*
X661712D1*
X693471D2*
X709670D1*
X725178D2*
X727517D1*
X730515D2*
X744581D1*
X770205D2*
X781126D1*
X794106D2*
X841944D1*
X853596D2*
X866682D1*
X884925D2*
X906994D1*
X914029D2*
X931534D1*
X500158Y595101D2*
X520141D1*
X570430D2*
X571927D1*
X576508D2*
X624144D1*
X641165D2*
X660998D1*
X692781D2*
X709606D1*
X726223D2*
X726021D1*
X729072D2*
X743469D1*
X770256D2*
X780711D1*
X793738D2*
X839435D1*
X852827D2*
X865155D1*
X884034D2*
X907251D1*
X913572D2*
X931238D1*
X500359Y593605D2*
X519110D1*
X570155D2*
X623085D1*
X640389D2*
X660620D1*
X692180D2*
X709580D1*
X727766D2*
X742234D1*
X770088D2*
X780136D1*
X793318D2*
X808598D1*
X816930D2*
X837558D1*
X852069D2*
X865744D1*
X883064D2*
X907636D1*
X913231D2*
X931035D1*
X500721Y592109D2*
X518127D1*
X569630D2*
X622257D1*
X639629D2*
X660481D1*
X691654D2*
X709564D1*
X726634D2*
X740882D1*
X769764D2*
X779510D1*
X792834D2*
X807718D1*
X817817D2*
X836311D1*
X851319D2*
X865768D1*
X882102D2*
X908036D1*
X912885D2*
X930777D1*
X501106Y590613D2*
X517327D1*
X568934D2*
X622413D1*
X624289D2*
D3*
X638872D2*
X660889D1*
X691127D2*
X709508D1*
X725574D2*
X739502D1*
X769360D2*
X778935D1*
X792386D2*
X807164D1*
X817750D2*
X835478D1*
X850574D2*
X865824D1*
X881117D2*
X908357D1*
X912402D2*
X930391D1*
X501367Y589117D2*
X516690D1*
X570205D2*
X622793D1*
X638075D2*
X661455D1*
X690663D2*
X709316D1*
X724536D2*
X738217D1*
X768833D2*
X778420D1*
X792048D2*
X806725D1*
X817373D2*
X834770D1*
X849874D2*
X865903D1*
X880103D2*
X908729D1*
X911756D2*
X929996D1*
X501506Y587621D2*
X516057D1*
X571412D2*
X620152D1*
X637184D2*
X662118D1*
X690319D2*
X708951D1*
X723589D2*
X737043D1*
X768204D2*
X777897D1*
X791709D2*
X806209D1*
X816796D2*
X834065D1*
X849268D2*
X865729D1*
X879121D2*
X891796D1*
X896572D2*
X909307D1*
X910950D2*
X929726D1*
X501564Y586125D2*
X515343D1*
X572692D2*
X618221D1*
X636220D2*
X662827D1*
X689978D2*
X708515D1*
X722737D2*
X735796D1*
X767556D2*
X777434D1*
X791284D2*
X805592D1*
X816117D2*
X833344D1*
X848736D2*
X865295D1*
X878129D2*
X891227D1*
X896578D2*
X929533D1*
X501532Y584629D2*
X514509D1*
X575681D2*
X616873D1*
X635304D2*
X663514D1*
X689552D2*
X708063D1*
X721939D2*
X734394D1*
X766972D2*
X777090D1*
X790873D2*
X804952D1*
X815391D2*
X832607D1*
X848156D2*
X864744D1*
X877112D2*
X890423D1*
X896631D2*
X929279D1*
X501293Y583133D2*
X513580D1*
X580090D2*
X615863D1*
X634463D2*
X664115D1*
X689141D2*
X707566D1*
X714052D2*
D3*
X721172D2*
X733012D1*
X766453D2*
X776750D1*
X790596D2*
X804371D1*
X814605D2*
X831865D1*
X847506D2*
X864245D1*
X876123D2*
X889534D1*
X896821D2*
X928888D1*
X500689Y581636D2*
X515076D1*
X585391D2*
X589879D1*
X592994D2*
X615055D1*
X633669D2*
X664640D1*
X688864D2*
X707113D1*
X714052D2*
D3*
X720415D2*
X731708D1*
X765923D2*
X776318D1*
X790401D2*
X803854D1*
X813717D2*
X831118D1*
X846851D2*
X863880D1*
X875078D2*
X888579D1*
X897180D2*
X928442D1*
X499699Y580140D2*
X514391D1*
X593269D2*
X614409D1*
X632903D2*
X665161D1*
X688668D2*
X706774D1*
X712556D2*
D3*
X719665D2*
X730419D1*
X765413D2*
X775848D1*
X790145D2*
X803324D1*
X812755D2*
X830366D1*
X846264D2*
X863527D1*
X873865D2*
X887577D1*
X897563D2*
X927986D1*
X498453Y578644D2*
X514014D1*
X594435D2*
X613861D1*
X632147D2*
X665567D1*
X688407D2*
X706428D1*
X712556D2*
D3*
X718920D2*
X729252D1*
X758934D2*
X760430D1*
X764926D2*
X775334D1*
X789760D2*
X802815D1*
X811839D2*
X829570D1*
X845739D2*
X863084D1*
X872461D2*
X886599D1*
X897824D2*
X927482D1*
X497121Y577148D2*
X513988D1*
X595864D2*
X613276D1*
X631397D2*
X665789D1*
X687970D2*
X705950D1*
X711060D2*
D3*
X718220D2*
X728351D1*
X757322D2*
X759925D1*
X764353D2*
X774636D1*
X789361D2*
X802333D1*
X810992D2*
X828679D1*
X845162D2*
X862609D1*
X865155D2*
D3*
X870801D2*
X885608D1*
X897963D2*
X926982D1*
X495905Y575652D2*
X514249D1*
X591375D2*
D3*
X595167D2*
X612625D1*
X630647D2*
X665490D1*
X687385D2*
X705348D1*
X710139D2*
X711060D1*
X717615D2*
X727667D1*
X756086D2*
X759536D1*
X763596D2*
X773777D1*
X789043D2*
X801819D1*
X810146D2*
X827716D1*
X844514D2*
X866651D1*
X868822D2*
X884592D1*
X898026D2*
X926504D1*
X494921Y574156D2*
X514594D1*
X591375D2*
D3*
X594680D2*
X611969D1*
X629900D2*
X649779D1*
X652720D2*
X665151D1*
X686756D2*
X704713D1*
X709332D2*
X710829D1*
X717088D2*
X727019D1*
X755211D2*
X759336D1*
X762473D2*
X772909D1*
X788713D2*
X801315D1*
X809190D2*
X826800D1*
X843859D2*
X883604D1*
X898053D2*
X925991D1*
X493987Y572660D2*
X514840D1*
X594231D2*
X611377D1*
X629150D2*
X648480D1*
X652772D2*
X664912D1*
X686180D2*
X704128D1*
X708675D2*
X710458D1*
X716555D2*
X726336D1*
X754554D2*
X759803D1*
X760847D2*
X772088D1*
X788285D2*
X800836D1*
X808075D2*
X825947D1*
X843272D2*
X882559D1*
X898063D2*
X925488D1*
X492832Y571164D2*
X514973D1*
X589879D2*
X591375D1*
X593620D2*
X610805D1*
X628404D2*
X647395D1*
X652963D2*
X664782D1*
X685659D2*
X703559D1*
X708126D2*
X710071D1*
X716043D2*
X725623D1*
X753867D2*
X771307D1*
X787822D2*
X800322D1*
X806936D2*
X825048D1*
X842753D2*
X881357D1*
X898066D2*
X925009D1*
X491538Y569668D2*
X515035D1*
X589873D2*
X610084D1*
X627654D2*
X646474D1*
X653321D2*
X664722D1*
X685083D2*
X702845D1*
X707589D2*
X709809D1*
X715561D2*
X724895D1*
X752957D2*
X770583D1*
X787354D2*
X799819D1*
X805878D2*
X823895D1*
X842228D2*
X880063D1*
X898068D2*
X924495D1*
X490289Y568172D2*
X515067D1*
X589821D2*
X609215D1*
X626907D2*
X645603D1*
X653705D2*
X664697D1*
X684429D2*
X702029D1*
X707127D2*
X709676D1*
X715053D2*
X724206D1*
X751752D2*
X769953D1*
X786801D2*
X799340D1*
X804848D2*
X822375D1*
X841771D2*
X878825D1*
X898068D2*
X923992D1*
X488937Y566676D2*
X515129D1*
X589624D2*
X608350D1*
X626158D2*
X644686D1*
X653966D2*
X664688D1*
X683727D2*
X701349D1*
X706835D2*
X709665D1*
X714602D2*
X723656D1*
X750468D2*
X769407D1*
X786162D2*
X798826D1*
X803815D2*
X820715D1*
X841480D2*
X877714D1*
X898068D2*
X923507D1*
X487316Y565180D2*
X501612D1*
X504661D2*
X515323D1*
X589208D2*
X607575D1*
X625411D2*
X639306D1*
X642241D2*
X643747D1*
X654105D2*
X664684D1*
X682997D2*
X700885D1*
X706690D2*
X709829D1*
X714313D2*
X723321D1*
X749441D2*
X772047D1*
X785510D2*
X798323D1*
X802814D2*
X819222D1*
X841330D2*
X876618D1*
X898074D2*
X922947D1*
X485563Y563684D2*
X500115D1*
X504852D2*
X515683D1*
X588575D2*
X606928D1*
X624662D2*
X638008D1*
X640745D2*
X642936D1*
X654168D2*
X664683D1*
X682258D2*
X700482D1*
X706675D2*
X710177D1*
X714164D2*
X723152D1*
X748679D2*
X773979D1*
X784925D2*
X797842D1*
X801710D2*
X817982D1*
X841262D2*
X875440D1*
X898127D2*
X922299D1*
X483864Y562188D2*
X498619D1*
X505211D2*
X516067D1*
X587711D2*
X606343D1*
X623915D2*
X636923D1*
X639249D2*
X642241D1*
X654194D2*
X664683D1*
X681517D2*
X699975D1*
X706838D2*
X710557D1*
X714102D2*
X723083D1*
X747991D2*
X775326D1*
X784401D2*
X797322D1*
X800271D2*
X816876D1*
X841234D2*
X874274D1*
X898317D2*
X921594D1*
X482254Y560692D2*
X497129D1*
X505595D2*
X516328D1*
X586608D2*
X605647D1*
X623166D2*
X636007D1*
X654204D2*
X664682D1*
X680818D2*
X699305D1*
X707191D2*
X710817D1*
X714127D2*
X723105D1*
X747297D2*
X776330D1*
X783823D2*
X796807D1*
X798421D2*
X815862D1*
X841224D2*
X873206D1*
X898676D2*
X920818D1*
X480703Y559196D2*
X495686D1*
X505856D2*
X516467D1*
X562950D2*
X604840D1*
X622413D2*
X635183D1*
X639249D2*
D3*
X654208D2*
X664682D1*
X680213D2*
X698429D1*
X707624D2*
X710961D1*
X714307D2*
X723290D1*
X746630D2*
X777074D1*
X783175D2*
X815045D1*
X841220D2*
X872173D1*
X899059D2*
X919935D1*
X479185Y557699D2*
X494380D1*
X505994D2*
X516530D1*
X556340D2*
X605468D1*
X621617D2*
X634406D1*
X654209D2*
X664682D1*
X679680D2*
X697347D1*
X708080D2*
X711077D1*
X714668D2*
X723703D1*
X746084D2*
X777615D1*
X782520D2*
X814351D1*
X841224D2*
X871138D1*
X899320D2*
X918974D1*
X477680Y556203D2*
X493243D1*
X506058D2*
X516556D1*
X551760D2*
X605837D1*
X620727D2*
X633645D1*
X654210D2*
X664682D1*
X679100D2*
X696220D1*
X708629D2*
X711300D1*
X715103D2*
X724392D1*
X745636D2*
X777371D1*
X781934D2*
X813524D1*
X841277D2*
X870143D1*
X899453D2*
X918059D1*
X476180Y554707D2*
X492130D1*
X506084D2*
X516572D1*
X548806D2*
X605310D1*
X619763D2*
X632894D1*
X654210D2*
X664682D1*
X678445D2*
X695167D1*
X709272D2*
X711732D1*
X715548D2*
X725341D1*
X745116D2*
X776398D1*
X781414D2*
X812438D1*
X841461D2*
X869090D1*
X899460D2*
X917218D1*
X474683Y553211D2*
X490895D1*
X506094D2*
X516629D1*
X546493D2*
X604418D1*
X618853D2*
X632143D1*
X654210D2*
X664682D1*
X677743D2*
X694139D1*
X709976D2*
X712425D1*
X715988D2*
X729148D1*
X742734D2*
X775183D1*
X780890D2*
X811147D1*
X841761D2*
X867828D1*
X899255D2*
X916431D1*
X473187Y551715D2*
X489538D1*
X506098D2*
X516815D1*
X547288D2*
X603344D1*
X618059D2*
X631396D1*
X654210D2*
X664682D1*
X677019D2*
X693112D1*
X710758D2*
X713522D1*
X716354D2*
X735661D1*
X735828D2*
X773814D1*
X780426D2*
X809742D1*
X842043D2*
X866291D1*
X898754D2*
X915718D1*
X471690Y550219D2*
X488105D1*
X506105D2*
X517117D1*
X547990D2*
X555470D1*
X586642D2*
X604840D1*
X617409D2*
X630646D1*
X654222D2*
X664682D1*
X676326D2*
X692170D1*
X711693D2*
X715137D1*
X716043D2*
X772369D1*
X780083D2*
X808277D1*
X841737D2*
X864498D1*
X898068D2*
X915152D1*
X470188Y548723D2*
X486635D1*
X506158D2*
X517404D1*
X585712D2*
X603524D1*
X616863D2*
X629894D1*
X654327D2*
X664682D1*
X675723D2*
X691319D1*
X712850D2*
X770892D1*
X779742D2*
X791611D1*
X795134D2*
X806738D1*
X840791D2*
X862587D1*
X898873D2*
X914760D1*
X468640Y547227D2*
X485143D1*
X506349D2*
X517078D1*
X547990D2*
X552478D1*
X559958D2*
X567438D1*
X583487D2*
X602260D1*
X616340D2*
X629080D1*
X654572D2*
X664682D1*
X675204D2*
X690521D1*
X714182D2*
X769397D1*
X779316D2*
X791181D1*
X795749D2*
X805016D1*
X839722D2*
X860580D1*
X899688D2*
X914400D1*
X466953Y545731D2*
X483598D1*
X506719D2*
X516572D1*
X547990D2*
X559958D1*
X562950D2*
X568233D1*
X580903D2*
X600965D1*
X615857D2*
X628038D1*
X655391D2*
X664677D1*
X674729D2*
X689754D1*
X715667D2*
X767839D1*
X778905D2*
X790545D1*
X796710D2*
X803010D1*
X841218D2*
X858242D1*
X900648D2*
X913960D1*
X465104Y544235D2*
X481913D1*
X507216D2*
X517202D1*
X552478D2*
X568934D1*
X585391D2*
X599535D1*
X615883D2*
X626560D1*
X656184D2*
X664620D1*
X674337D2*
X688974D1*
X717429D2*
X766031D1*
X778633D2*
X789681D1*
X797832D2*
X800824D1*
X840683D2*
X855366D1*
X901639D2*
X902556D1*
X911471D2*
X913489D1*
X463283Y542739D2*
X480059D1*
X507941D2*
X517576D1*
X552478D2*
X561454D1*
X576415D2*
X597610D1*
X616592D2*
X624822D1*
X656714D2*
X664388D1*
X674513D2*
X687992D1*
X719664D2*
X763608D1*
X778502D2*
X788604D1*
X840715D2*
X852083D1*
X902556D2*
D3*
X911239D2*
X912984D1*
X461775Y541243D2*
X478180D1*
X509110D2*
X517161D1*
X561454D2*
X565942D1*
X582679D2*
X594783D1*
X617335D2*
X623175D1*
X657009D2*
X663877D1*
X675364D2*
X686681D1*
X722371D2*
X760151D1*
X778551D2*
X787480D1*
X843070D2*
X848810D1*
X910727D2*
X912322D1*
X460577Y539747D2*
X476417D1*
X510588D2*
X516572D1*
X558462D2*
X564446D1*
X588383D2*
X591375D1*
X617882D2*
X618304D1*
X621297D2*
X622666D1*
X657202D2*
D3*
X661690D2*
X663186D1*
X677324D2*
X683460D1*
X725365D2*
X755350D1*
X778790D2*
X786434D1*
X845706D2*
D3*
X910037D2*
X911533D1*
X460137Y538251D2*
X474729D1*
X618304D2*
D3*
X621297D2*
X622793D1*
X679643D2*
D3*
X728597D2*
X749247D1*
X779950D2*
X785416D1*
X459898Y536755D2*
X472979D1*
X732005D2*
X742478D1*
X781375D2*
X784367D1*
X459791Y535259D2*
X471093D1*
X459747Y533762D2*
X469150D1*
X459731Y532266D2*
X467198D1*
X459725Y530770D2*
X465191D1*
X459723Y529274D2*
X463183D1*
X459722Y527778D2*
X461218D1*
X555470Y651951D2*
X554211Y650455D1*
X553138Y648959D1*
X552214Y647463D1*
X551282Y645967D1*
X550081Y644471D1*
X548424Y642975D1*
X546493Y641479D1*
X556966Y651951D2*
X557471Y650455D1*
X557864Y648959D1*
X558077Y647463D1*
X557718Y645967D1*
X557181Y644471D1*
X556530Y642975D1*
X555820Y641479D1*
X555082Y639983D1*
X554292Y638487D1*
X553409Y636991D1*
X552492Y635495D1*
X551721Y633999D1*
X551094Y632503D1*
X550469Y631007D1*
X549796Y629510D1*
X549086Y628014D1*
X548353Y626518D1*
X547607Y625022D1*
X546813Y623526D1*
X545923Y622030D1*
X544954Y620534D1*
X543991Y619038D1*
X543006Y617542D1*
X541992Y616046D1*
X540999Y614550D1*
X539902Y613054D1*
X538509Y611558D1*
X536839Y610062D1*
X535060Y608566D1*
X533117Y607070D1*
X530807Y605573D1*
X528414Y604077D1*
X526440Y602581D1*
X524940Y601085D1*
X523665Y599589D1*
X522413Y598093D1*
X521219Y596597D1*
X520141Y595101D1*
X519110Y593605D1*
X518127Y592109D1*
X517327Y590613D1*
X516690Y589117D1*
X516057Y587621D1*
X515343Y586125D1*
X514509Y584629D1*
X513580Y583133D1*
X515076Y581636D1*
X514391Y580140D1*
X514014Y578644D1*
X513988Y577148D1*
X514249Y575652D1*
X514594Y574156D1*
X514840Y572660D1*
X514973Y571164D1*
X515035Y569668D1*
X515067Y568172D1*
X515129Y566676D1*
X515323Y565180D1*
X515683Y563684D1*
X516067Y562188D1*
X516328Y560692D1*
X516467Y559196D1*
X516530Y557699D1*
X516556Y556203D1*
X516572Y554707D1*
X516629Y553211D1*
X516815Y551715D1*
X517117Y550219D1*
X517404Y548723D1*
X517078Y547227D1*
X516572Y545731D1*
X517202Y544235D1*
X517576Y542739D1*
X517161Y541243D1*
X516572Y539747D1*
X546493Y645967D2*
X545566Y644471D1*
X544707Y642975D1*
X543853Y641479D1*
X542887Y639983D1*
X541718Y638487D1*
X540394Y636991D1*
X539024Y635495D1*
X537754Y633999D1*
X536681Y632503D1*
X535763Y631007D1*
X534893Y629510D1*
X533979Y628014D1*
X533056Y626518D1*
X532327Y625022D1*
X531843Y623526D1*
X531432Y622030D1*
X530921Y620534D1*
X530250Y619038D1*
X529368Y617542D1*
X528227Y616046D1*
X526863Y614550D1*
X525308Y613054D1*
X523676Y611558D1*
X522166Y610062D1*
X520803Y608566D1*
X519477Y607070D1*
X518192Y605573D1*
X516873Y604077D1*
X515328Y602581D1*
X513580Y601085D1*
X547990Y645967D2*
X547465Y644471D1*
X546956Y642975D1*
X546493Y641479D1*
X866651Y642975D2*
X867352Y641479D1*
X868147Y639983D1*
X866535Y638487D1*
X865304Y636991D1*
X864482Y635495D1*
X864021Y633999D1*
X863752Y632503D1*
X863468Y631007D1*
X863067Y629510D1*
X862617Y628014D1*
X862160Y626518D1*
X861656Y625022D1*
X861156Y623526D1*
X860678Y622030D1*
X860164Y620534D1*
X859661Y619038D1*
X859182Y617542D1*
X858674Y616046D1*
X858218Y614550D1*
X857877Y613054D1*
X857537Y611558D1*
X857111Y610062D1*
X856694Y608566D1*
X856366Y607070D1*
X855992Y605573D1*
X855413Y604077D1*
X854682Y602581D1*
X856178Y601085D1*
X855251Y599589D1*
X854398Y598093D1*
X853596Y596597D1*
X852827Y595101D1*
X852069Y593605D1*
X851319Y592109D1*
X850574Y590613D1*
X849874Y589117D1*
X849268Y587621D1*
X848736Y586125D1*
X848156Y584629D1*
X847506Y583133D1*
X846851Y581636D1*
X846264Y580140D1*
X845739Y578644D1*
X845162Y577148D1*
X844514Y575652D1*
X843859Y574156D1*
X843272Y572660D1*
X842753Y571164D1*
X842228Y569668D1*
X841771Y568172D1*
X841480Y566676D1*
X841330Y565180D1*
X841262Y563684D1*
X841234Y562188D1*
X841224Y560692D1*
X841220Y559196D1*
X841224Y557699D1*
X841277Y556203D1*
X841461Y554707D1*
X841761Y553211D1*
X842043Y551715D1*
X841737Y550219D1*
X840791Y548723D1*
X839722Y547227D1*
X841218Y545731D1*
X840683Y544235D1*
X840715Y542739D1*
X843070Y541243D1*
X845706Y539747D1*
X868147Y642975D2*
X869580Y641479D1*
X870826Y639983D1*
X871714Y638487D1*
X872219Y636991D1*
X872464Y635495D1*
X872569Y633999D1*
X872611Y632503D1*
X872627Y631007D1*
X872632Y629510D1*
X872634Y628014D1*
X872635Y626518D1*
X872629Y625022D1*
X872577Y623526D1*
X872386Y622030D1*
X872028Y620534D1*
X871638Y619038D1*
X871325Y617542D1*
X870995Y616046D1*
X870574Y614550D1*
X870164Y613054D1*
X869887Y611558D1*
X869692Y610062D1*
X869437Y608566D1*
X869057Y607070D1*
X868720Y605573D1*
X868544Y604077D1*
X869014Y602581D1*
X869643Y601085D1*
X868830Y599589D1*
X867934Y598093D1*
X866682Y596597D1*
X865155Y595101D1*
X865744Y593605D1*
X865768Y592109D1*
X865824Y590613D1*
X865903Y589117D1*
X865729Y587621D1*
X865295Y586125D1*
X864744Y584629D1*
X864245Y583133D1*
X863880Y581636D1*
X863527Y580140D1*
X863084Y578644D1*
X862609Y577148D1*
X862163Y575652D1*
X615312Y641479D2*
X614744Y639983D1*
X614107Y638487D1*
X613471Y636991D1*
X612993Y635495D1*
X612727Y633999D1*
X613017Y632503D1*
X613351Y631007D1*
X613588Y629510D1*
X613717Y628014D1*
X613779Y626518D1*
X613816Y625022D1*
X610824D1*
X610307Y623526D1*
X609809Y622030D1*
X609335Y620534D1*
X608824Y619038D1*
X608322Y617542D1*
X607837Y616046D1*
X607277Y614550D1*
X606630Y613054D1*
X605931Y611558D1*
X605201Y610062D1*
X604433Y608566D1*
X603406Y607070D1*
X601997Y605573D1*
X598315Y604077D1*
X593657Y602581D1*
X588660Y601085D1*
X583905Y599589D1*
X579407Y598093D1*
X582399Y596597D1*
X576508Y595101D1*
X570430Y593605D1*
X619801Y641479D2*
X620491Y639983D1*
X620915Y638487D1*
X621080Y636991D1*
X620991Y635495D1*
X620725Y633999D1*
X620547Y632503D1*
X620649Y631007D1*
X620896Y629510D1*
X621094Y628014D1*
X621207Y626518D1*
X621260Y625022D1*
X621283Y623526D1*
X621292Y622030D1*
X621289Y620534D1*
X621238Y619038D1*
X621047Y617542D1*
X620689Y616046D1*
X620306Y614550D1*
X620051Y613054D1*
X619976Y611558D1*
X620055Y610062D1*
X620787Y608566D1*
X622424Y607070D1*
X624289Y605573D1*
X622793Y604077D1*
X624399Y602581D1*
X625748Y601085D1*
X626390Y599589D1*
X626226Y598093D1*
X625282Y596597D1*
X624144Y595101D1*
X623085Y593605D1*
X622257Y592109D1*
X622413Y590613D1*
X622793Y589117D1*
X620152Y587621D1*
X618221Y586125D1*
X616873Y584629D1*
X615863Y583133D1*
X615055Y581636D1*
X614409Y580140D1*
X613861Y578644D1*
X613276Y577148D1*
X612625Y575652D1*
X611969Y574156D1*
X611377Y572660D1*
X610805Y571164D1*
X610084Y569668D1*
X609215Y568172D1*
X608350Y566676D1*
X607575Y565180D1*
X606928Y563684D1*
X606343Y562188D1*
X605647Y560692D1*
X604840Y559196D1*
X605468Y557699D1*
X605837Y556203D1*
X605310Y554707D1*
X604418Y553211D1*
X603344Y551715D1*
X604840Y550219D1*
X603524Y548723D1*
X602260Y547227D1*
X600965Y545731D1*
X599535Y544235D1*
X597610Y542739D1*
X594783Y541243D1*
X591375Y539747D1*
X700588Y638487D2*
X693925Y636991D1*
X685778Y635495D1*
X676651Y633999D1*
X706572Y638487D2*
X717045Y636991D1*
X717270Y635495D1*
X717588Y633999D1*
X717785Y632503D1*
X717689Y631007D1*
X717444Y629510D1*
X717247Y628014D1*
X717128Y626518D1*
X717023Y625022D1*
X716809Y623526D1*
X716442Y622030D1*
X716055Y620534D1*
X715787Y619038D1*
X715596Y617542D1*
X715336Y616046D1*
X714898Y614550D1*
X714308Y613054D1*
X713633Y611558D1*
X712918Y610062D1*
X712235Y608566D1*
X711687Y607070D1*
X711346Y605573D1*
X711125Y604077D1*
X710859Y602581D1*
X710471Y601085D1*
X710076Y599589D1*
X709811Y598093D1*
X709670Y596597D1*
X709606Y595101D1*
X709580Y593605D1*
X709564Y592109D1*
X709508Y590613D1*
X709316Y589117D1*
X708951Y587621D1*
X708515Y586125D1*
X708063Y584629D1*
X707566Y583133D1*
X707113Y581636D1*
X706774Y580140D1*
X706428Y578644D1*
X705950Y577148D1*
X705348Y575652D1*
X704713Y574156D1*
X704128Y572660D1*
X703559Y571164D1*
X702845Y569668D1*
X702029Y568172D1*
X701349Y566676D1*
X700885Y565180D1*
X700482Y563684D1*
X699975Y562188D1*
X699305Y560692D1*
X698429Y559196D1*
X697347Y557699D1*
X696220Y556203D1*
X695167Y554707D1*
X694139Y553211D1*
X693112Y551715D1*
X692170Y550219D1*
X691319Y548723D1*
X690521Y547227D1*
X689754Y545731D1*
X688974Y544235D1*
X687992Y542739D1*
X686681Y541243D1*
X683460Y539747D1*
X679643Y538251D1*
X776887Y638487D2*
X773204Y636991D1*
X769788Y635495D1*
X766631Y633999D1*
X763734Y632503D1*
X761061Y631007D1*
X758437Y629510D1*
X755701Y628014D1*
X752851Y626518D1*
X749981Y625022D1*
X747264Y623526D1*
X744889Y622030D1*
X742891Y620534D1*
X741153Y619038D1*
X739552Y617542D1*
X738014Y616046D1*
X736502Y614550D1*
X735000Y613054D1*
X733502Y611558D1*
X732006Y610062D1*
X730509Y608566D1*
X732005Y607070D1*
X731021Y605573D1*
X729976Y604077D1*
X728816Y602581D1*
X727663Y601085D1*
X726661Y599589D1*
X725858Y598093D1*
X725178Y596597D1*
X726223Y595101D1*
X727517Y593605D1*
X726538Y592109D1*
X725540Y590613D1*
X724524Y589117D1*
X723586Y587621D1*
X722736Y586125D1*
X721938Y584629D1*
X721172Y583133D1*
X720415Y581636D1*
X719665Y580140D1*
X718920Y578644D1*
X718220Y577148D1*
X717615Y575652D1*
X717088Y574156D1*
X716555Y572660D1*
X716043Y571164D1*
X715561Y569668D1*
X715053Y568172D1*
X714602Y566676D1*
X714313Y565180D1*
X714164Y563684D1*
X714102Y562188D1*
X714127Y560692D1*
X714307Y559196D1*
X714668Y557699D1*
X715103Y556203D1*
X715548Y554707D1*
X715988Y553211D1*
X716354Y551715D1*
X716043Y550219D1*
X715549Y548723D1*
X781375Y638487D2*
X782975Y636991D1*
X785042Y635495D1*
X787360Y633999D1*
X786675Y632503D1*
X786298Y631007D1*
X786265Y629510D1*
X786474Y628014D1*
X786628Y626518D1*
X786516Y625022D1*
X786260Y623526D1*
X786008Y622030D1*
X785704Y620534D1*
X785293Y619038D1*
X784886Y617542D1*
X784617Y616046D1*
X784469Y614550D1*
X784352Y613054D1*
X784134Y611558D1*
X783760Y610062D1*
X783320Y608566D1*
X782867Y607070D1*
X782370Y605573D1*
X781922Y604077D1*
X781635Y602581D1*
X781486Y601085D1*
X781413Y599589D1*
X781333Y598093D1*
X781126Y596597D1*
X780711Y595101D1*
X780136Y593605D1*
X779510Y592109D1*
X778935Y590613D1*
X778420Y589117D1*
X777897Y587621D1*
X777434Y586125D1*
X777090Y584629D1*
X776750Y583133D1*
X776318Y581636D1*
X775848Y580140D1*
X775334Y578644D1*
X774636Y577148D1*
X773777Y575652D1*
X772909Y574156D1*
X772088Y572660D1*
X771307Y571164D1*
X770583Y569668D1*
X769953Y568172D1*
X769407Y566676D1*
X772047Y565180D1*
X773979Y563684D1*
X775326Y562188D1*
X776330Y560692D1*
X777074Y559196D1*
X777615Y557699D1*
X777371Y556203D1*
X776398Y554707D1*
X775183Y553211D1*
X773814Y551715D1*
X772369Y550219D1*
X770892Y548723D1*
X769397Y547227D1*
X767839Y545731D1*
X766031Y544235D1*
X763608Y542739D1*
X760151Y541243D1*
X755350Y539747D1*
X749247Y538251D1*
X742478Y536755D1*
X927990Y638487D2*
X927758Y636991D1*
X927387Y635495D1*
X926994Y633999D1*
X926680Y632503D1*
X926344Y631007D1*
X925870Y629510D1*
X925269Y628014D1*
X924634Y626518D1*
X924055Y625022D1*
X923539Y623526D1*
X923009Y622030D1*
X922500Y620534D1*
X922018Y619038D1*
X921504Y617542D1*
X921000Y616046D1*
X920515Y614550D1*
X919955Y613054D1*
X919313Y611558D1*
X918660Y610062D1*
X918075Y608566D1*
X917556Y607070D1*
X917026Y605573D1*
X916515Y604077D1*
X916034Y602581D1*
X915519Y601085D1*
X915016Y599589D1*
X914536Y598093D1*
X914029Y596597D1*
X913572Y595101D1*
X913231Y593605D1*
X912885Y592109D1*
X912402Y590613D1*
X911756Y589117D1*
X910950Y587621D1*
X910037Y586125D1*
X495627Y636991D2*
X494194Y635495D1*
X492948Y633999D1*
X492060Y632503D1*
X491555Y631007D1*
X491317Y629510D1*
X491264Y628014D1*
X491412Y626518D1*
X491761Y625022D1*
X492191Y623526D1*
X492641Y622030D1*
X493143Y620534D1*
X493643Y619038D1*
X494121Y617542D1*
X494633Y616046D1*
X495137Y614550D1*
X495616Y613054D1*
X496129Y611558D1*
X496633Y610062D1*
X497112Y608566D1*
X497625Y607070D1*
X498129Y605573D1*
X498608Y604077D1*
X499116Y602581D1*
X499566Y601085D1*
X499855Y599589D1*
X500004Y598093D1*
X500077Y596597D1*
X500158Y595101D1*
X500359Y593605D1*
X500721Y592109D1*
X501106Y590613D1*
X501367Y589117D1*
X501506Y587621D1*
X501564Y586125D1*
X501532Y584629D1*
X501293Y583133D1*
X500689Y581636D1*
X499699Y580140D1*
X498453Y578644D1*
X497121Y577148D1*
X495905Y575652D1*
X494921Y574156D1*
X493987Y572660D1*
X492832Y571164D1*
X491538Y569668D1*
X490289Y568172D1*
X488937Y566676D1*
X487316Y565180D1*
X485563Y563684D1*
X483864Y562188D1*
X482254Y560692D1*
X480703Y559196D1*
X479185Y557699D1*
X477680Y556203D1*
X476180Y554707D1*
X474683Y553211D1*
X473187Y551715D1*
X471690Y550219D1*
X470188Y548723D1*
X468640Y547227D1*
X466953Y545731D1*
X465104Y544235D1*
X463283Y542739D1*
X461775Y541243D1*
X460577Y539747D1*
X460137Y538251D1*
X459898Y536755D1*
X459791Y535259D1*
X459747Y533762D1*
X459731Y532266D1*
X459725Y530770D1*
X459723Y529274D1*
X459722Y527778D1*
X498619Y636991D2*
X500743Y635495D1*
X502425Y633999D1*
X503583Y632503D1*
X504369Y631007D1*
X504958Y629510D1*
X505408Y628014D1*
X505255Y626518D1*
X504999Y625022D1*
X504781Y623526D1*
X504604Y622030D1*
X507596D1*
X508113Y620534D1*
X508611Y619038D1*
X509085Y617542D1*
X509590Y616046D1*
X510040Y614550D1*
X510328Y613054D1*
X510483Y611558D1*
X510602Y610062D1*
X510821Y608566D1*
X511201Y607070D1*
X511703Y605573D1*
X512428Y604077D1*
X513598Y602581D1*
X515076Y601085D1*
X930982Y636991D2*
X931903Y635495D1*
X932704Y633999D1*
X933309Y632503D1*
X933667Y631007D1*
X933851Y629510D1*
X933982Y628014D1*
X934204Y626518D1*
X934580Y625022D1*
X935021Y623526D1*
X935474Y622030D1*
X935972Y620534D1*
X936419Y619038D1*
X936706Y617542D1*
X936855Y616046D1*
X936916Y614550D1*
X936891Y613054D1*
X936711Y611558D1*
X936351Y610062D1*
X935916Y608566D1*
X935459Y607070D1*
X934909Y605573D1*
X934272Y604077D1*
X933620Y602581D1*
X933035Y601085D1*
X932517Y599589D1*
X931992Y598093D1*
X931534Y596597D1*
X931238Y595101D1*
X931035Y593605D1*
X930777Y592109D1*
X930391Y590613D1*
X929996Y589117D1*
X929726Y587621D1*
X929533Y586125D1*
X929279Y584629D1*
X928888Y583133D1*
X928442Y581636D1*
X927986Y580140D1*
X927482Y578644D1*
X926982Y577148D1*
X926504Y575652D1*
X925991Y574156D1*
X925488Y572660D1*
X925009Y571164D1*
X924495Y569668D1*
X923992Y568172D1*
X923507Y566676D1*
X922947Y565180D1*
X922299Y563684D1*
X921594Y562188D1*
X920818Y560692D1*
X919935Y559196D1*
X918974Y557699D1*
X918059Y556203D1*
X917218Y554707D1*
X916431Y553211D1*
X915718Y551715D1*
X915152Y550219D1*
X914760Y548723D1*
X914400Y547227D1*
X913960Y545731D1*
X913489Y544235D1*
X912984Y542739D1*
X912322Y541243D1*
X911533Y539747D1*
X673659Y635495D2*
X672220Y633999D1*
X670916Y632503D1*
X669792Y631007D1*
X668741Y629510D1*
X667675Y628014D1*
X668279Y626518D1*
X668172Y625022D1*
X667777Y623526D1*
X667194Y622030D1*
X666512Y620534D1*
X665791Y619038D1*
X665063Y617542D1*
X664428Y616046D1*
X663936Y614550D1*
X664212Y613054D1*
X664682Y611558D1*
X663704Y610062D1*
X662705Y608566D1*
X661689Y607070D1*
X660751Y605573D1*
X659901Y604077D1*
X659104Y602581D1*
X658332Y601085D1*
X657536Y599589D1*
X656661Y598093D1*
X655706Y596597D1*
X681139Y635495D2*
X682635Y633999D1*
X838226Y635495D2*
X837426Y633999D1*
X836412Y632503D1*
X835330Y631007D1*
X834341Y629510D1*
X833465Y628014D1*
X832661Y626518D1*
X831936Y625022D1*
X831321Y623526D1*
X830785Y622030D1*
X830203Y620534D1*
X829554Y619038D1*
X828898Y617542D1*
X828306Y616046D1*
X827705Y614550D1*
X826964Y613054D1*
X825109Y611558D1*
X820508Y610062D1*
X814148Y608566D1*
X806808Y607070D1*
X841218Y635495D2*
X842714Y633999D1*
X845706Y635495D2*
X844210Y633999D1*
X805312D2*
X803904Y632503D1*
X803375Y631007D1*
X803001Y629510D1*
X802643Y628014D1*
X802249Y626518D1*
X801734Y625022D1*
X801106Y623526D1*
X800414Y622030D1*
X799694Y620534D1*
X799002Y619038D1*
X798400Y617542D1*
X797875Y616046D1*
X797348Y614550D1*
X796883Y613054D1*
X796540Y611558D1*
X796199Y610062D1*
X795773Y608566D1*
X795356Y607070D1*
X795027Y605573D1*
X794653Y604077D1*
X794074Y602581D1*
X793344Y601085D1*
X793977Y599589D1*
X794365Y598093D1*
X794106Y596597D1*
X793738Y595101D1*
X793318Y593605D1*
X792834Y592109D1*
X792386Y590613D1*
X792048Y589117D1*
X791709Y587621D1*
X791284Y586125D1*
X790873Y584629D1*
X790596Y583133D1*
X790401Y581636D1*
X790145Y580140D1*
X789760Y578644D1*
X789361Y577148D1*
X789043Y575652D1*
X788713Y574156D1*
X788285Y572660D1*
X787822Y571164D1*
X787354Y569668D1*
X786801Y568172D1*
X786162Y566676D1*
X785510Y565180D1*
X784925Y563684D1*
X784401Y562188D1*
X783823Y560692D1*
X783175Y559196D1*
X782520Y557699D1*
X781934Y556203D1*
X781414Y554707D1*
X780890Y553211D1*
X780426Y551715D1*
X780083Y550219D1*
X779742Y548723D1*
X779316Y547227D1*
X778905Y545731D1*
X778633Y544235D1*
X778502Y542739D1*
X778551Y541243D1*
X778790Y539747D1*
X779950Y538251D1*
X781375Y536755D1*
X809801Y633999D2*
X811750Y632503D1*
X813247Y631007D1*
X814324Y629510D1*
X815047Y628014D1*
X815446Y626518D1*
X815589Y625022D1*
X815482Y623526D1*
X815158Y622030D1*
X814787Y620534D1*
X814531Y619038D1*
X814388Y617542D1*
X814272Y616046D1*
X814055Y614550D1*
X813699Y613054D1*
X813425Y611558D1*
X813388Y610062D1*
X814441Y608566D1*
X815785Y607070D1*
X847202Y633999D2*
Y632503D1*
X847196Y631007D1*
X847144Y629510D1*
X846947Y628014D1*
X846536Y626518D1*
X845962Y625022D1*
X845343Y623526D1*
X844820Y622030D1*
X844490Y620534D1*
X844273Y619038D1*
X844008Y617542D1*
X843620Y616046D1*
X843231Y614550D1*
X843019Y613054D1*
X843075Y611558D1*
X843422Y610062D1*
X843970Y608566D1*
X844579Y607070D1*
X845102Y605573D1*
X845450Y604077D1*
X845706Y602581D1*
X850194D1*
Y601085D1*
Y599589D1*
X847623D1*
X844828Y598093D1*
X841944Y596597D1*
X839435Y595101D1*
X837558Y593605D1*
X836311Y592109D1*
X835478Y590613D1*
X834770Y589117D1*
X834065Y587621D1*
X833344Y586125D1*
X832607Y584629D1*
X831865Y583133D1*
X831118Y581636D1*
X830366Y580140D1*
X829570Y578644D1*
X828679Y577148D1*
X827716Y575652D1*
X826800Y574156D1*
X825947Y572660D1*
X825048Y571164D1*
X823895Y569668D1*
X822375Y568172D1*
X820715Y566676D1*
X819222Y565180D1*
X817982Y563684D1*
X816876Y562188D1*
X815862Y560692D1*
X815045Y559196D1*
X814351Y557699D1*
X813524Y556203D1*
X812438Y554707D1*
X811147Y553211D1*
X809742Y551715D1*
X808277Y550219D1*
X806738Y548723D1*
X805016Y547227D1*
X803010Y545731D1*
X800824Y544235D1*
X666178Y632503D2*
X667587Y631007D1*
X668110Y629510D1*
X668426Y628014D1*
X668534Y626518D1*
X668321Y625022D1*
X667845Y623526D1*
X667221Y622030D1*
X666522Y620534D1*
X665794Y619038D1*
X665064Y617542D1*
X664429Y616046D1*
X663936Y614550D1*
X664212Y613054D1*
X664682Y611558D1*
X663704Y610062D1*
X662705Y608566D1*
X661689Y607070D1*
X660751Y605573D1*
X659901Y604077D1*
X659104Y602581D1*
X658332Y601085D1*
X657536Y599589D1*
X656661Y598093D1*
X655706Y596597D1*
X667675Y632503D2*
X610824Y631007D2*
X611099Y629510D1*
X611624Y628014D1*
X612320Y626518D1*
X664682Y629510D2*
X663186Y628014D2*
X661690Y626518D2*
X773895Y628014D2*
X772167Y626518D1*
X770287Y625022D1*
X768342Y623526D1*
X766415Y622030D1*
X768004Y620534D1*
X769407Y619038D1*
X767163Y617542D1*
X765046Y616046D1*
X762974Y614550D1*
X760997Y613054D1*
X759201Y611558D1*
X757552Y610062D1*
X755987Y608566D1*
X754463Y607070D1*
X752956Y605573D1*
X751456Y604077D1*
X749959Y602581D1*
X748468Y601085D1*
X747024Y599589D1*
X745719Y598093D1*
X744581Y596597D1*
X743469Y595101D1*
X742234Y593605D1*
X740882Y592109D1*
X739502Y590613D1*
X738217Y589117D1*
X737043Y587621D1*
X735796Y586125D1*
X734394Y584629D1*
X733012Y583133D1*
X731708Y581636D1*
X730419Y580140D1*
X729252Y578644D1*
X728351Y577148D1*
X727667Y575652D1*
X727019Y574156D1*
X726336Y572660D1*
X725623Y571164D1*
X724895Y569668D1*
X724206Y568172D1*
X723656Y566676D1*
X723321Y565180D1*
X723152Y563684D1*
X723083Y562188D1*
X723105Y560692D1*
X723290Y559196D1*
X723703Y557699D1*
X724392Y556203D1*
X725341Y554707D1*
X729148Y553211D1*
X735661Y551715D1*
X743974Y550219D1*
X775391Y628014D2*
X775166Y626518D1*
X774852Y625022D1*
X774560Y623526D1*
X774885Y622030D1*
X775391Y620534D1*
X774695Y619038D1*
X774212Y617542D1*
X773804Y616046D1*
X773344Y614550D1*
X772864Y613054D1*
X772356Y611558D1*
X771693Y610062D1*
X770903Y608566D1*
X771508Y607070D1*
X771457Y605573D1*
X771254Y604077D1*
X771029Y602581D1*
X770743Y601085D1*
X770388Y599589D1*
X770168Y598093D1*
X770205Y596597D1*
X770256Y595101D1*
X770088Y593605D1*
X769764Y592109D1*
X769360Y590613D1*
X768833Y589117D1*
X768204Y587621D1*
X767556Y586125D1*
X766972Y584629D1*
X766453Y583133D1*
X765923Y581636D1*
X765413Y580140D1*
X764926Y578644D1*
X764353Y577148D1*
X763596Y575652D1*
X762473Y574156D1*
X760847Y572660D1*
X758934Y571164D1*
X507596Y625022D2*
X660194D2*
Y623526D1*
X699092Y626518D2*
X690389Y625022D1*
X683696Y623526D1*
X679390Y622030D1*
X676445Y620534D1*
X675195Y619038D1*
X674148Y617542D1*
X673151Y616046D1*
X672147Y614550D1*
X671217Y613054D1*
X670365Y611558D1*
X669523Y610062D1*
X668612Y608566D1*
X667641Y607070D1*
X666723Y605573D1*
X665881Y604077D1*
X665086Y602581D1*
X664315Y601085D1*
X663511Y599589D1*
X662624Y598093D1*
X661712Y596597D1*
X660998Y595101D1*
X660620Y593605D1*
X660481Y592109D1*
X660889Y590613D1*
X661455Y589117D1*
X662118Y587621D1*
X662827Y586125D1*
X663514Y584629D1*
X664115Y583133D1*
X664640Y581636D1*
X665161Y580140D1*
X665567Y578644D1*
X665789Y577148D1*
X665490Y575652D1*
X665151Y574156D1*
X664912Y572660D1*
X664782Y571164D1*
X664722Y569668D1*
X664697Y568172D1*
X664688Y566676D1*
X664684Y565180D1*
X664683Y563684D1*
Y562188D1*
X664682Y560692D1*
Y559196D1*
Y557699D1*
Y556203D1*
Y554707D1*
Y553211D1*
Y551715D1*
Y550219D1*
Y548723D1*
Y547227D1*
X664677Y545731D1*
X664620Y544235D1*
X664388Y542739D1*
X663877Y541243D1*
X663186Y539747D1*
X679643Y626518D2*
X691612Y625022D1*
X703580Y623526D1*
X703349Y622030D1*
X702972Y620534D1*
X702526Y619038D1*
X702021Y617542D1*
X701333Y616046D1*
X700522Y614550D1*
X699798Y613054D1*
X699192Y611558D1*
X698575Y610062D1*
X697910Y608566D1*
X697254Y607070D1*
X696712Y605573D1*
X696330Y604077D1*
X695967Y602581D1*
X695482Y601085D1*
X694872Y599589D1*
X694188Y598093D1*
X693471Y596597D1*
X692781Y595101D1*
X692180Y593605D1*
X691654Y592109D1*
X691127Y590613D1*
X690663Y589117D1*
X690319Y587621D1*
X689978Y586125D1*
X689552Y584629D1*
X689141Y583133D1*
X688864Y581636D1*
X688668Y580140D1*
X688407Y578644D1*
X687970Y577148D1*
X687385Y575652D1*
X686756Y574156D1*
X686180Y572660D1*
X685659Y571164D1*
X685083Y569668D1*
X684429Y568172D1*
X683727Y566676D1*
X682997Y565180D1*
X682258Y563684D1*
X681517Y562188D1*
X680818Y560692D1*
X680213Y559196D1*
X679680Y557699D1*
X679100Y556203D1*
X678445Y554707D1*
X677743Y553211D1*
X677019Y551715D1*
X676326Y550219D1*
X675723Y548723D1*
X675204Y547227D1*
X674729Y545731D1*
X674337Y544235D1*
X674513Y542739D1*
X675364Y541243D1*
X677324Y539747D1*
X679643Y538251D1*
X658698Y622030D2*
X770903D2*
X655706Y619038D2*
X657997Y617542D1*
X660194Y616046D1*
X657202Y619038D2*
X660194D2*
X537517D2*
X536021Y617542D1*
X534525Y616046D1*
X540509Y619038D2*
X539013Y617542D1*
X537517Y616046D1*
X657202Y614550D2*
X652714Y613054D1*
X655706Y611558D1*
X653066Y610062D1*
X651134Y608566D1*
X649781Y607070D1*
X648712Y605573D1*
X647661Y604077D1*
X646466Y602581D1*
X645176Y601085D1*
X643947Y599589D1*
X642890Y598093D1*
X641985Y596597D1*
X641165Y595101D1*
X640389Y593605D1*
X639629Y592109D1*
X638872Y590613D1*
X638075Y589117D1*
X637184Y587621D1*
X636220Y586125D1*
X635304Y584629D1*
X634463Y583133D1*
X633669Y581636D1*
X632903Y580140D1*
X632147Y578644D1*
X631397Y577148D1*
X630647Y575652D1*
X629900Y574156D1*
X629150Y572660D1*
X628404Y571164D1*
X627654Y569668D1*
X626907Y568172D1*
X626158Y566676D1*
X625411Y565180D1*
X624662Y563684D1*
X623915Y562188D1*
X623166Y560692D1*
X622413Y559196D1*
X621617Y557699D1*
X620727Y556203D1*
X619763Y554707D1*
X618853Y553211D1*
X618059Y551715D1*
X617409Y550219D1*
X616863Y548723D1*
X616340Y547227D1*
X615857Y545731D1*
X615883Y544235D1*
X616592Y542739D1*
X617335Y541243D1*
X617882Y539747D1*
X618304Y538251D1*
X658698Y614550D2*
X658181Y613054D1*
X657683Y611558D1*
X657203Y610062D1*
X656645Y608566D1*
X656005Y607070D1*
X655359Y605573D1*
X654826Y604077D1*
X654504Y602581D1*
X654395Y601085D1*
X654552Y599589D1*
X655032Y598093D1*
X655706Y596597D1*
X534525Y614550D2*
X533029Y613054D1*
X531533Y611558D1*
X537517Y614550D2*
X536021Y613054D1*
X534525Y611558D1*
X895076D2*
X893586Y610062D1*
X892142Y608566D1*
X890843Y607070D1*
X889758Y605573D1*
X888842Y604077D1*
X888018Y602581D1*
X887240Y601085D1*
X886479Y599589D1*
X885723Y598093D1*
X884925Y596597D1*
X884034Y595101D1*
X883064Y593605D1*
X882102Y592109D1*
X881117Y590613D1*
X880103Y589117D1*
X879121Y587621D1*
X878129Y586125D1*
X877112Y584629D1*
X876123Y583133D1*
X875078Y581636D1*
X873865Y580140D1*
X872461Y578644D1*
X870801Y577148D1*
X868822Y575652D1*
X866651Y574156D1*
X898068Y611558D2*
X899790Y610062D1*
X901598Y608566D1*
X903233Y607070D1*
X904570Y605573D1*
X905131Y604077D1*
X905595Y602581D1*
X906077Y601085D1*
X906510Y599589D1*
X906796Y598093D1*
X906994Y596597D1*
X907251Y595101D1*
X907636Y593605D1*
X908036Y592109D1*
X908357Y590613D1*
X908729Y589117D1*
X909307Y587621D1*
X910037Y586125D1*
X531533Y610062D2*
X530037Y608566D1*
X528541Y607070D1*
X534525Y610062D2*
X533029Y608566D1*
X531533Y607070D1*
X607832Y610062D2*
X607557Y608566D1*
X607032Y607070D1*
X606336Y605573D1*
X536021Y607070D2*
X604840D2*
X606336Y605573D1*
X727517D2*
X530037Y602581D2*
X528541Y601085D2*
X592871D2*
X591375Y599589D1*
X595864Y598093D1*
X597360Y601085D2*
X598856Y599589D1*
X594367Y598093D1*
X527045D2*
X582399D2*
X583895Y596597D1*
X591375Y598093D2*
X589879Y596597D1*
X729013Y598093D2*
X727517Y596597D1*
X726021Y595101D1*
X732005Y598093D2*
X730515Y596597D1*
X729072Y595101D1*
X727766Y593605D1*
X726634Y592109D1*
X725574Y590613D1*
X724536Y589117D1*
X723589Y587621D1*
X722737Y586125D1*
X721939Y584629D1*
X721172Y583133D1*
X720415Y581636D1*
X719665Y580140D1*
X718920Y578644D1*
X718220Y577148D1*
X717615Y575652D1*
X717088Y574156D1*
X716555Y572660D1*
X716043Y571164D1*
X715561Y569668D1*
X715053Y568172D1*
X714602Y566676D1*
X714313Y565180D1*
X714164Y563684D1*
X714102Y562188D1*
X714127Y560692D1*
X714307Y559196D1*
X714668Y557699D1*
X715103Y556203D1*
X715548Y554707D1*
X715988Y553211D1*
X716354Y551715D1*
X716043Y550219D1*
X715549Y548723D1*
X570430Y595101D2*
X570155Y593605D1*
X569630Y592109D1*
X568934Y590613D1*
X570205Y589117D1*
X571412Y587621D1*
X572692Y586125D1*
X575681Y584629D1*
X580090Y583133D1*
X585391Y581636D1*
X571927Y595101D2*
X573423Y593605D1*
X809801Y595101D2*
X808598Y593605D1*
X807718Y592109D1*
X807164Y590613D1*
X806725Y589117D1*
X806209Y587621D1*
X805592Y586125D1*
X804952Y584629D1*
X804371Y583133D1*
X803854Y581636D1*
X803324Y580140D1*
X802815Y578644D1*
X802333Y577148D1*
X801819Y575652D1*
X801315Y574156D1*
X800836Y572660D1*
X800322Y571164D1*
X799819Y569668D1*
X799340Y568172D1*
X798826Y566676D1*
X798323Y565180D1*
X797842Y563684D1*
X797322Y562188D1*
X796807Y560692D1*
X796336Y559196D1*
X815785Y595101D2*
X816930Y593605D1*
X817817Y592109D1*
X817750Y590613D1*
X817373Y589117D1*
X816796Y587621D1*
X816117Y586125D1*
X815391Y584629D1*
X814605Y583133D1*
X813717Y581636D1*
X812755Y580140D1*
X811839Y578644D1*
X810992Y577148D1*
X810146Y575652D1*
X809190Y574156D1*
X808075Y572660D1*
X806936Y571164D1*
X805878Y569668D1*
X804848Y568172D1*
X803815Y566676D1*
X802814Y565180D1*
X801710Y563684D1*
X800271Y562188D1*
X798421Y560692D1*
X796336Y559196D1*
X624289Y590613D2*
X892084Y589117D2*
X891796Y587621D1*
X891227Y586125D1*
X890423Y584629D1*
X889534Y583133D1*
X888579Y581636D1*
X887577Y580140D1*
X886599Y578644D1*
X885608Y577148D1*
X884592Y575652D1*
X883604Y574156D1*
X882559Y572660D1*
X881357Y571164D1*
X880063Y569668D1*
X878825Y568172D1*
X877714Y566676D1*
X876618Y565180D1*
X875440Y563684D1*
X874274Y562188D1*
X873206Y560692D1*
X872173Y559196D1*
X871138Y557699D1*
X870143Y556203D1*
X869090Y554707D1*
X867828Y553211D1*
X866291Y551715D1*
X864498Y550219D1*
X862587Y548723D1*
X860580Y547227D1*
X858242Y545731D1*
X855366Y544235D1*
X852083Y542739D1*
X848810Y541243D1*
X845706Y539747D1*
X896572Y589117D2*
Y587621D1*
X896578Y586125D1*
X896631Y584629D1*
X896821Y583133D1*
X897180Y581636D1*
X897563Y580140D1*
X897824Y578644D1*
X897963Y577148D1*
X898026Y575652D1*
X898053Y574156D1*
X898063Y572660D1*
X898066Y571164D1*
X898068Y569668D1*
Y568172D1*
Y566676D1*
X898074Y565180D1*
X898127Y563684D1*
X898317Y562188D1*
X898676Y560692D1*
X899059Y559196D1*
X899320Y557699D1*
X899453Y556203D1*
X899460Y554707D1*
X899255Y553211D1*
X898754Y551715D1*
X898068Y550219D1*
X898873Y548723D1*
X899688Y547227D1*
X900648Y545731D1*
X901639Y544235D1*
X902556Y542739D1*
X714052Y583133D2*
Y581636D1*
X591375Y583133D2*
X589879Y581636D1*
X592871Y583133D2*
X592994Y581636D1*
X593269Y580140D1*
X594435Y578644D1*
X595864Y577148D1*
X595167Y575652D1*
X594680Y574156D1*
X594231Y572660D1*
X593620Y571164D1*
X592871Y569668D1*
X712556Y580140D2*
Y578644D1*
X758934D2*
X757322Y577148D1*
X756086Y575652D1*
X755211Y574156D1*
X754554Y572660D1*
X753867Y571164D1*
X752957Y569668D1*
X751752Y568172D1*
X750468Y566676D1*
X749441Y565180D1*
X748679Y563684D1*
X747991Y562188D1*
X747297Y560692D1*
X746630Y559196D1*
X746084Y557699D1*
X745636Y556203D1*
X745116Y554707D1*
X742734Y553211D1*
X735828Y551715D1*
X727517Y550219D1*
X760430Y578644D2*
X759925Y577148D1*
X759536Y575652D1*
X759336Y574156D1*
X759803Y572660D1*
X760430Y571164D1*
X711060Y577148D2*
X710139Y575652D1*
X709332Y574156D1*
X708675Y572660D1*
X708126Y571164D1*
X707589Y569668D1*
X707127Y568172D1*
X706835Y566676D1*
X706690Y565180D1*
X706675Y563684D1*
X706838Y562188D1*
X707191Y560692D1*
X707624Y559196D1*
X708080Y557699D1*
X708629Y556203D1*
X709272Y554707D1*
X709976Y553211D1*
X710758Y551715D1*
X711693Y550219D1*
X712850Y548723D1*
X714182Y547227D1*
X715667Y545731D1*
X717429Y544235D1*
X719664Y542739D1*
X722371Y541243D1*
X725365Y539747D1*
X728597Y538251D1*
X732005Y536755D1*
X865155Y577148D2*
X863659Y575652D1*
X591375D2*
Y574156D1*
X711060Y575652D2*
X710829Y574156D1*
X710458Y572660D1*
X710071Y571164D1*
X709809Y569668D1*
X709676Y568172D1*
X709665Y566676D1*
X709829Y565180D1*
X710177Y563684D1*
X710557Y562188D1*
X710817Y560692D1*
X710961Y559196D1*
X711077Y557699D1*
X711300Y556203D1*
X711732Y554707D1*
X712425Y553211D1*
X713522Y551715D1*
X715137Y550219D1*
X717045Y548723D1*
X866651Y575652D2*
X868147Y574156D1*
X651218Y575652D2*
X649779Y574156D1*
X648480Y572660D1*
X647395Y571164D1*
X646474Y569668D1*
X645603Y568172D1*
X644686Y566676D1*
X643747Y565180D1*
X642936Y563684D1*
X642241Y562188D1*
X652714Y575652D2*
X652720Y574156D1*
X652772Y572660D1*
X652963Y571164D1*
X653321Y569668D1*
X653705Y568172D1*
X653966Y566676D1*
X654105Y565180D1*
X654168Y563684D1*
X654194Y562188D1*
X654204Y560692D1*
X654208Y559196D1*
X654209Y557699D1*
X654210Y556203D1*
Y554707D1*
Y553211D1*
Y551715D1*
X654222Y550219D1*
X654327Y548723D1*
X654572Y547227D1*
X655391Y545731D1*
X656184Y544235D1*
X656714Y542739D1*
X657009Y541243D1*
X657202Y539747D1*
X589879Y571164D2*
X589873Y569668D1*
X589821Y568172D1*
X589624Y566676D1*
X589208Y565180D1*
X588575Y563684D1*
X587711Y562188D1*
X586608Y560692D1*
X585391Y559196D1*
X591375Y571164D2*
X592871Y569668D1*
X503108Y566676D2*
X501612Y565180D1*
X500115Y563684D1*
X498619Y562188D1*
X497129Y560692D1*
X495686Y559196D1*
X494380Y557699D1*
X493243Y556203D1*
X492130Y554707D1*
X490895Y553211D1*
X489538Y551715D1*
X488105Y550219D1*
X486635Y548723D1*
X485143Y547227D1*
X483598Y545731D1*
X481913Y544235D1*
X480059Y542739D1*
X478180Y541243D1*
X476417Y539747D1*
X474729Y538251D1*
X472979Y536755D1*
X471093Y535259D1*
X469150Y533762D1*
X467198Y532266D1*
X465191Y530770D1*
X463183Y529274D1*
X461218Y527778D1*
X504604Y566676D2*
X504661Y565180D1*
X504852Y563684D1*
X505211Y562188D1*
X505595Y560692D1*
X505856Y559196D1*
X505994Y557699D1*
X506058Y556203D1*
X506084Y554707D1*
X506094Y553211D1*
X506098Y551715D1*
X506105Y550219D1*
X506158Y548723D1*
X506349Y547227D1*
X506719Y545731D1*
X507216Y544235D1*
X507941Y542739D1*
X509110Y541243D1*
X510588Y539747D1*
X640745Y566676D2*
X639306Y565180D1*
X638008Y563684D1*
X636923Y562188D1*
X636007Y560692D1*
X635183Y559196D1*
X634406Y557699D1*
X633645Y556203D1*
X632894Y554707D1*
X632143Y553211D1*
X631396Y551715D1*
X630646Y550219D1*
X629894Y548723D1*
X629080Y547227D1*
X628038Y545731D1*
X626560Y544235D1*
X624822Y542739D1*
X623175Y541243D1*
X622666Y539747D1*
X622793Y538251D1*
X643738Y566676D2*
X642241Y565180D1*
X640745Y563684D1*
X639249Y562188D1*
X562950Y559196D2*
X556340Y557699D1*
X551760Y556203D1*
X548806Y554707D1*
X546493Y553211D1*
X547288Y551715D1*
X547990Y550219D1*
X639249Y559196D2*
X556966Y551715D2*
X555470Y550219D1*
X586887Y551715D2*
X586642Y550219D1*
X585712Y548723D1*
X583487Y547227D1*
X580903Y545731D1*
X585391Y544235D1*
X576415Y542739D1*
X582679Y541243D1*
X588383Y539747D1*
X791848Y550219D2*
X791611Y548723D1*
X791181Y547227D1*
X790545Y545731D1*
X789681Y544235D1*
X788604Y542739D1*
X787480Y541243D1*
X786434Y539747D1*
X785416Y538251D1*
X784367Y536755D1*
X794840Y550219D2*
X795134Y548723D1*
X795749Y547227D1*
X796710Y545731D1*
X797832Y544235D1*
X547990Y547227D2*
Y545731D1*
Y544235D1*
X552478D1*
Y542739D1*
X561454Y541243D1*
X558462Y539747D1*
X552478Y547227D2*
X553974Y545731D1*
X559958Y547227D2*
X558462Y545731D1*
X567438Y547227D2*
X568233Y545731D1*
X568934Y544235D1*
X561454Y542739D1*
X565942Y541243D1*
X564446Y539747D1*
X559958Y545731D2*
X561454Y547227D2*
X562950Y545731D1*
X911533D2*
X911471Y544235D1*
X911239Y542739D1*
X910727Y541243D1*
X910037Y539747D1*
X660194Y541243D2*
X661690Y539747D1*
X621297Y538251D2*
M02*
