G04 DipTrace 3.3.1.3*
G04 TopPaste.crc*
%MOIN*%
G04 #@! TF.FileFunction,Paste,Top*
G04 #@! TF.Part,Single*
%ADD80R,0.035433X0.066929*%
%ADD86R,0.019685X0.000787*%
%ADD88R,0.000787X0.019685*%
%ADD90R,0.055118X0.027559*%
%ADD92R,0.001969X0.011811*%
%ADD94R,0.062992X0.03937*%
%ADD96R,0.05315X0.015748*%
%ADD98R,0.002953X0.011811*%
%ADD100R,0.027559X0.027559*%
%ADD106R,0.051181X0.043307*%
%ADD108R,0.043307X0.051181*%
%ADD112R,0.582677X0.070866*%
%ADD116R,0.033465X0.017717*%
%ADD118R,0.025591X0.031496*%
%ADD120R,0.031496X0.110236*%
%ADD122R,0.07874X0.032126*%
%ADD132R,0.040945X0.051181*%
%ADD134R,0.034449X0.031496*%
%ADD136R,0.031496X0.034449*%
%ADD138R,0.051181X0.040945*%
%FSLAX26Y26*%
G04*
G70*
G90*
G75*
G01*
G04 TopPaste*
%LPD*%
D138*
X1247441Y1068504D3*
Y993701D3*
D136*
X1528579Y744933D3*
Y811862D3*
D138*
X1429941Y1063701D3*
Y988898D3*
D134*
X1653543Y828898D3*
X1586614D3*
D132*
X2115677Y1313898D3*
X2190480D3*
D134*
X1973846Y786094D3*
X1906917D3*
D136*
X1525579Y862933D3*
Y929862D3*
X1318079Y868362D3*
Y801433D3*
D138*
X1512579Y1061299D3*
Y986496D3*
D134*
X1211114Y744945D3*
X1278043D3*
X1681043Y1146398D3*
X1614114D3*
D122*
X1602579Y1088268D3*
Y999528D3*
D120*
X1302441Y1161201D3*
X1381181D3*
D118*
X1456028Y888295D3*
Y750500D3*
X1387130Y888295D3*
Y750500D3*
D116*
X2324760Y872702D3*
Y797899D3*
X2415311Y835301D3*
D112*
X2919941Y558701D3*
X2907441Y1538701D3*
Y1403701D3*
X2919941Y686201D3*
D108*
X2402260Y952702D3*
X2327457D3*
D106*
X1464941Y1131201D3*
Y1206004D3*
X1622441Y1333701D3*
Y1258898D3*
D134*
X1156043Y746398D3*
X1089114D3*
X2228043Y761898D3*
X2161114D3*
X1581614Y896398D3*
X1648543D3*
D100*
X1061870Y804902D3*
Y867894D3*
X1223287D3*
Y804902D3*
D98*
X2180551Y863654D3*
X2200236D3*
X2219921D3*
X2239606D3*
X2180551Y958142D3*
X2200236D3*
X2219921D3*
X2239606D3*
D96*
X2327260Y1077702D3*
Y1117072D3*
Y1156442D3*
Y1195812D3*
D94*
X2480803Y1036757D3*
Y1237545D3*
D92*
X1314760Y992702D3*
X1334445D3*
X1354130D3*
X1373815D3*
Y1067505D3*
X1354130D3*
X1334445D3*
X1314760D3*
D90*
X1344287Y1030104D3*
G36*
X1945064Y938903D2*
X1885084D1*
Y998883D1*
X1945064D1*
Y938903D1*
G37*
G36*
Y1028892D2*
X1885084D1*
Y1088911D1*
X1945064D1*
Y1028892D1*
G37*
G36*
X2035092D2*
X1975073D1*
Y1088911D1*
X2035092D1*
Y1028892D1*
G37*
G36*
Y938903D2*
X1975073D1*
Y998883D1*
X2035092D1*
Y938903D1*
G37*
D88*
X1812441Y838701D3*
X1832126D3*
X1851811D3*
X1871496D3*
X1891181D3*
X1910866D3*
X1930551D3*
X1950236D3*
X1969921D3*
X1989606D3*
X2009291D3*
X2028976D3*
X2048661D3*
X2068346D3*
X2088031D3*
X2107717D3*
D86*
X2135277Y866260D3*
Y885945D3*
Y905630D3*
Y925315D3*
Y945000D3*
Y964685D3*
Y984370D3*
Y1004055D3*
Y1023740D3*
Y1043425D3*
Y1063110D3*
Y1082795D3*
Y1102480D3*
Y1122165D3*
Y1141850D3*
Y1161535D3*
D88*
X2107717Y1189096D3*
X2088031D3*
X2068346D3*
X2048661D3*
X2028976D3*
X2009291D3*
X1989606D3*
X1969921D3*
X1950236D3*
X1930551D3*
X1910866D3*
X1891181D3*
X1871496D3*
X1851811D3*
X1832126D3*
X1812441D3*
D86*
X1784882Y1161535D3*
Y1141850D3*
Y1122165D3*
Y1102480D3*
Y1082795D3*
Y1063110D3*
Y1043425D3*
Y1023740D3*
Y1004055D3*
Y984370D3*
Y964685D3*
Y945000D3*
Y925315D3*
Y905630D3*
Y885945D3*
Y866260D3*
D80*
X1583835Y755898D3*
X1678323D3*
M02*
