G04 DipTrace 3.3.1.3*
G04 TopSilk.plc*
%MOIN*%
G04 #@! TF.FileFunction,Legend,Top*
G04 #@! TF.Part,Single*
%ADD10C,0.009843*%
%ADD12C,0.002992*%
%ADD13C,0.001969*%
%ADD14C,0.012*%
%ADD16C,0.019685*%
%ADD20C,0.008*%
%ADD26C,0.001312*%
%ADD32C,0.019722*%
%ADD39C,0.005*%
%ADD41C,0.01537*%
%ADD55O,0.015477X0.01537*%
%ADD140C,0.004632*%
%FSLAX26Y26*%
G04*
G70*
G90*
G75*
G01*
G04 TopSilk*
%LPD*%
X1267443Y1031102D2*
D14*
X1227439D1*
X1512831Y778398D2*
X1544327D1*
X1449943Y1026299D2*
X1409939D1*
X1620079Y813150D2*
Y844646D1*
X2153079Y1333900D2*
Y1293896D1*
X1940382Y770346D2*
Y801843D1*
X1509831Y896398D2*
X1541327D1*
X1333827Y834898D2*
X1302331D1*
X1532581Y1023898D2*
X1492577D1*
X1244579Y760693D2*
Y729197D1*
X1647579Y1130650D2*
Y1162146D1*
X-194803Y795295D2*
D10*
Y1267697D1*
Y795295D2*
X401610D1*
X539413Y1169276D2*
Y1200803D1*
Y992138D2*
Y1070854D1*
Y862189D2*
Y893717D1*
X-194803Y1267697D2*
X401610D1*
D32*
X618176Y848421D3*
X2622441Y506201D2*
D10*
X3222441D1*
X2622441Y606201D2*
X3222441D1*
X2622441Y506201D2*
Y606201D1*
X3222441Y506201D2*
Y606201D1*
X2622441Y633701D2*
X3222441D1*
X2622441Y733701D2*
X3222441D1*
X2622441Y633701D2*
Y733701D1*
X3222441Y633701D2*
Y733701D1*
X2619941Y1488701D2*
X3219941D1*
X2619941Y1588701D2*
X3219941D1*
X2619941Y1488701D2*
Y1588701D1*
X3219941Y1488701D2*
Y1588701D1*
X2622441Y1356201D2*
X3222441D1*
X2622441Y1456201D2*
X3222441D1*
X2622441Y1356201D2*
Y1456201D1*
X3222441Y1356201D2*
Y1456201D1*
X1652579Y1116398D2*
D20*
Y971398D1*
X1552579D1*
Y1116398D1*
X1652579D1*
X1484565Y894197D2*
D39*
X1496384D1*
Y744598D1*
X1484565D1*
X1358580Y894197D2*
X1346776D1*
Y744598D1*
X1358580D1*
G36*
X1496579Y894392D2*
X1481583D1*
Y879404D1*
X1496579Y864398D1*
Y894392D1*
G37*
D39*
X1481583D1*
Y879404D1*
X1496579Y864398D1*
Y894392D1*
D41*
X2310017Y903563D3*
X2360202Y894382D2*
D10*
Y776245D1*
X2379848D1*
Y894382D1*
X2360202D1*
X1122579Y730650D2*
D14*
Y762146D1*
X2194579Y746150D2*
Y777646D1*
X1615079Y912146D2*
Y880650D1*
X1225256Y776343D2*
D20*
X1059902D1*
Y896453D2*
X1225256D1*
X2170712Y847907D2*
D39*
Y973890D1*
X2249449D1*
Y847907D1*
X2170712D1*
X2161906Y851846D2*
G02X2161906Y851846I8802J0D01*
G01*
X2339065Y1015095D2*
D10*
X2494573D1*
Y1259207D1*
X2339065D1*
Y1015095D1*
D55*
X1313441Y968414D3*
X1302949Y988764D2*
D10*
Y1071447D1*
X1385626Y1073406D2*
Y990735D1*
X1754715Y820976D2*
D39*
G02X1754715Y820976I12441J0D01*
G01*
X1568093Y772324D2*
G02X1579226Y783455I11119J12D01*
G01*
X1682931D1*
G02X1694065Y772324I15J-11119D01*
G01*
Y737144D1*
G02X1685274Y728340I-8804J0D01*
G01*
X1580535D1*
G02X1568093Y740787I-14J12429D01*
G01*
Y772324D1*
X1674388Y740152D2*
X1591711D1*
G02X1579902Y751963I-5J11804D01*
G01*
Y759832D1*
G02X1591711Y771644I11804J8D01*
G01*
X1670447D1*
G02X1682256Y763774I1974J-9834D01*
G01*
Y751963D1*
G02X1674388Y740152I-9833J-1976D01*
G01*
X1022441Y628701D2*
D16*
X2524941D1*
Y526201D1*
X1022441D1*
Y628701D1*
X1427441Y1531201D2*
X2524941D1*
Y1423701D1*
X1427441D1*
Y1531201D1*
X2667441Y1541201D2*
D26*
X3177466D1*
X2669941Y1538701D2*
X3172441D1*
X2886552Y490987D2*
D12*
X2888049D1*
X2850647Y489491D2*
X2870096D1*
X2886552D2*
X2889545D1*
X2928442D2*
X2935923D1*
X2970332D2*
X2982301D1*
X2846336Y487995D2*
X2870096D1*
X2886552D2*
X2891035D1*
X2928442D2*
X2935923D1*
X2966712D2*
X2986380D1*
X2842735Y486499D2*
X2870096D1*
X2886552D2*
X2892478D1*
X2928442D2*
X2935923D1*
X2963541D2*
X2989610D1*
X2839916Y485003D2*
X2870096D1*
X2886552D2*
X2893784D1*
X2928442D2*
X2935923D1*
X2960939D2*
X2992042D1*
X2837722Y483507D2*
X2870096D1*
X2886552D2*
X2894921D1*
X2928442D2*
X2935923D1*
X2958847D2*
X2993974D1*
X2835910Y482010D2*
X2870096D1*
X2886552D2*
X2896034D1*
X2928442D2*
X2935923D1*
X2957120D2*
X2972653D1*
X2980505D2*
X2995647D1*
X2834331Y480514D2*
X2847718D1*
X2862615D2*
X2870096D1*
X2886552D2*
X2897269D1*
X2928442D2*
X2935923D1*
X2955695D2*
X2968346D1*
X2984307D2*
X2997162D1*
X2832979Y479018D2*
X2844976D1*
X2862615D2*
X2870096D1*
X2886552D2*
X2898626D1*
X2928442D2*
X2935923D1*
X2954516D2*
X2965041D1*
X2987499D2*
X2998488D1*
X2831874Y477522D2*
X2842597D1*
X2862615D2*
X2870096D1*
X2886552D2*
X2900059D1*
X2928442D2*
X2935923D1*
X2953444D2*
X2962623D1*
X2989936D2*
X2999583D1*
X2830952Y476026D2*
X2840649D1*
X2862615D2*
X2870096D1*
X2886552D2*
X2901529D1*
X2928442D2*
X2935923D1*
X2952446D2*
X2960915D1*
X2991678D2*
X3000502D1*
X2830131Y474530D2*
X2839105D1*
X2862615D2*
X2870096D1*
X2886552D2*
X2903015D1*
X2928442D2*
X2935923D1*
X2951641D2*
X2959597D1*
X2993018D2*
X3001321D1*
X2829400Y473034D2*
X2837914D1*
X2862615D2*
X2870096D1*
X2886552D2*
X2904507D1*
X2928442D2*
X2935923D1*
X2951008D2*
X2958500D1*
X2994131D2*
X3002052D1*
X2828782Y471538D2*
X2836956D1*
X2862615D2*
X2870096D1*
X2886552D2*
X2906002D1*
X2928442D2*
X2935923D1*
X2950432D2*
X2957707D1*
X2994981D2*
X3002669D1*
X2828252Y470042D2*
X2836122D1*
X2862615D2*
X2870096D1*
X2886552D2*
X2894033D1*
X2897025D2*
X2907498D1*
X2928442D2*
X2935923D1*
X2949953D2*
X2957248D1*
X2995631D2*
X3003200D1*
X2827723Y468546D2*
X2835392D1*
X2862615D2*
X2870096D1*
X2886552D2*
X2894033D1*
X2898521D2*
X2908994D1*
X2928442D2*
X2935923D1*
X2949654D2*
X2957014D1*
X2996213D2*
X3003729D1*
X2827264Y467050D2*
X2834826D1*
X2862615D2*
X2870096D1*
X2886552D2*
X2894033D1*
X2900017D2*
X2910490D1*
X2928442D2*
X2935923D1*
X2949500D2*
X2971828D1*
X2996694D2*
X3004188D1*
X2826972Y465554D2*
X2834485D1*
X2862615D2*
X2870096D1*
X2886552D2*
X2894033D1*
X2901513D2*
X2911986D1*
X2928442D2*
X2935923D1*
X2949432D2*
X2971828D1*
X2996994D2*
X3004479D1*
X2826822Y464058D2*
X2834314D1*
X2862615D2*
X2870096D1*
X2886552D2*
X2894033D1*
X2903009D2*
X2913482D1*
X2928442D2*
X2935923D1*
X2949404D2*
X2971828D1*
X2997148D2*
X3004630D1*
X2826754Y462562D2*
X2834239D1*
X2862615D2*
X2870096D1*
X2886552D2*
X2894033D1*
X2904505D2*
X2914978D1*
X2928442D2*
X2935923D1*
X2949393D2*
X2971828D1*
X2997216D2*
X3004697D1*
X2826726Y461066D2*
X2834208D1*
X2862615D2*
X2870096D1*
X2886552D2*
X2894033D1*
X2906001D2*
X2916474D1*
X2928442D2*
X2935923D1*
X2949387D2*
X2971828D1*
X2997245D2*
X3004719D1*
X2826722Y459570D2*
X2834202D1*
X2862615D2*
X2870096D1*
X2886552D2*
X2894033D1*
X2907497D2*
X2917964D1*
X2928442D2*
X2935923D1*
X2997249D2*
X3004677D1*
X2826770Y458073D2*
X2834251D1*
X2862615D2*
X2870096D1*
X2886552D2*
X2894033D1*
X2908993D2*
X2919407D1*
X2928442D2*
X2935923D1*
X2997201D2*
X3004490D1*
X2826960Y456577D2*
X2834446D1*
X2862615D2*
X2870096D1*
X2886552D2*
X2894033D1*
X2910490D2*
X2920713D1*
X2928442D2*
X2935923D1*
X2997006D2*
X3004133D1*
X2827323Y455081D2*
X2834856D1*
X2862615D2*
X2870096D1*
X2886552D2*
X2894033D1*
X2911986D2*
X2921856D1*
X2928436D2*
X2935923D1*
X2996595D2*
X3003744D1*
X2827759Y453585D2*
X2835436D1*
X2862615D2*
X2870096D1*
X2886552D2*
X2894033D1*
X2913482D2*
X2923026D1*
X2928379D2*
X2935923D1*
X2996015D2*
X3003431D1*
X2828217Y452089D2*
X2836114D1*
X2862615D2*
X2870096D1*
X2886552D2*
X2894033D1*
X2914978D2*
X2924491D1*
X2928148D2*
X2935923D1*
X2995338D2*
X3003096D1*
X2828766Y450593D2*
X2836885D1*
X2862615D2*
X2870096D1*
X2886552D2*
X2894033D1*
X2916468D2*
X2926352D1*
X2927637D2*
X2935923D1*
X2994566D2*
X3002616D1*
X2829410Y449097D2*
X2837817D1*
X2862615D2*
X2870096D1*
X2886552D2*
X2894033D1*
X2917911D2*
X2935923D1*
X2993634D2*
X3001963D1*
X2830114Y447601D2*
X2838985D1*
X2862615D2*
X2870096D1*
X2886552D2*
X2894033D1*
X2919217D2*
X2935923D1*
X2992473D2*
X3001137D1*
X2830895Y446105D2*
X2840480D1*
X2862615D2*
X2870096D1*
X2886552D2*
X2894033D1*
X2920355D2*
X2935923D1*
X2953875D2*
X2958364D1*
X2991077D2*
X3000194D1*
X2831831Y444609D2*
X2842320D1*
X2862615D2*
X2870096D1*
X2886552D2*
X2894033D1*
X2921467D2*
X2935923D1*
X2953248D2*
X2960757D1*
X2989261D2*
X2999236D1*
X2832988Y443113D2*
X2847513D1*
X2862615D2*
X2870096D1*
X2886552D2*
X2894033D1*
X2922702D2*
X2935923D1*
X2952878D2*
X2963854D1*
X2986406D2*
X2998196D1*
X2834320Y441617D2*
X2855625D1*
X2862615D2*
X2870096D1*
X2886552D2*
X2894033D1*
X2924059D2*
X2935923D1*
X2953292D2*
X2968387D1*
X2981572D2*
X2996940D1*
X2835799Y440121D2*
X2870096D1*
X2886552D2*
X2894033D1*
X2925492D2*
X2935923D1*
X2954558D2*
X2974793D1*
X2974369D2*
X2995392D1*
X2837525Y438625D2*
X2870096D1*
X2886552D2*
X2894033D1*
X2926962D2*
X2935923D1*
X2956288D2*
X2993489D1*
X2839731Y437129D2*
X2870096D1*
X2886552D2*
X2894033D1*
X2928448D2*
X2935923D1*
X2958555D2*
X2991139D1*
X2842675Y435633D2*
X2870096D1*
X2886552D2*
X2894033D1*
X2929940D2*
X2935923D1*
X2961473D2*
X2988188D1*
X2846433Y434136D2*
X2870096D1*
X2886552D2*
X2894033D1*
X2931435D2*
X2935923D1*
X2965012D2*
X2984636D1*
X2850647Y432640D2*
X2870096D1*
X2886552D2*
X2894033D1*
X2932931D2*
X2935923D1*
X2968836D2*
X2980804D1*
X2934427Y431144D2*
X2935923D1*
X853659Y1644491D2*
X864131D1*
X850270Y1642995D2*
X867240D1*
X847469Y1641499D2*
X869960D1*
X845255Y1640003D2*
X872208D1*
X843425Y1638507D2*
X873903D1*
X841843Y1637010D2*
X854253D1*
X862048D2*
X875249D1*
X840534Y1635514D2*
X851059D1*
X865304D2*
X874346D1*
X839572Y1634018D2*
X848758D1*
X867871D2*
X873060D1*
X838869Y1632522D2*
X847192D1*
X870115D2*
X871612D1*
X838264Y1631026D2*
X846119D1*
X837774Y1629530D2*
X845407D1*
X837471Y1628034D2*
X845010D1*
X837316Y1626538D2*
X844818D1*
X837247Y1625042D2*
X844741D1*
X837225Y1623546D2*
X844760D1*
X837266Y1622050D2*
X844944D1*
X837459Y1620554D2*
X845356D1*
X837869Y1619058D2*
X845999D1*
X838448Y1617562D2*
X846807D1*
X839126Y1616066D2*
X848462D1*
X839897Y1614570D2*
X852763D1*
X840835Y1613073D2*
X859257D1*
X864131D2*
X868619D1*
X842055Y1611577D2*
X868108D1*
X843700Y1610081D2*
X867657D1*
X846090Y1608585D2*
X867321D1*
X849610Y1607089D2*
X866983D1*
X854314Y1605593D2*
X866553D1*
X859643Y1604097D2*
X866090D1*
X858947Y1602601D2*
X865628D1*
X858464Y1601105D2*
X865121D1*
X858056Y1599609D2*
X864620D1*
X857601Y1598113D2*
X864142D1*
X857175Y1596617D2*
X863635D1*
X856876Y1595121D2*
X863178D1*
X838698Y1593625D2*
X862837D1*
X838698Y1592129D2*
X862496D1*
X838698Y1590633D2*
X862058D1*
X838698Y1589136D2*
X861584D1*
X838698Y1587640D2*
X861139D1*
X1159663Y1641991D2*
X1170135D1*
X1195568D2*
X1198560D1*
X1231474D2*
X1241946D1*
X1156560Y1640495D2*
X1172827D1*
X1194372D2*
X1199757D1*
X1228371D2*
X1244638D1*
X1153886Y1638999D2*
X1175146D1*
X1193378D2*
X1200750D1*
X1225697D2*
X1246957D1*
X1151765Y1637503D2*
X1176946D1*
X1193094D2*
X1201035D1*
X1223576D2*
X1248757D1*
X1150230Y1636007D2*
X1178275D1*
X1193610D2*
X1200519D1*
X1222041D2*
X1250086D1*
X1149144Y1634510D2*
X1160014D1*
X1168339D2*
X1179296D1*
X1194497D2*
X1199632D1*
X1220955D2*
X1231825D1*
X1240150D2*
X1251107D1*
X1148371Y1633014D2*
X1157840D1*
X1170652D2*
X1180156D1*
X1195568D2*
X1198560D1*
X1220182D2*
X1229651D1*
X1242463D2*
X1251967D1*
X1147777Y1631518D2*
X1156260D1*
X1172400D2*
X1180897D1*
X1219588D2*
X1228071D1*
X1244211D2*
X1252708D1*
X1147224Y1630022D2*
X1155154D1*
X1173730D2*
X1181471D1*
X1219035D2*
X1226965D1*
X1245541D2*
X1253282D1*
X1146756Y1628526D2*
X1154421D1*
X1174234D2*
X1181838D1*
X1218567D2*
X1226232D1*
X1246045D2*
X1253649D1*
X1146462Y1627030D2*
X1154013D1*
X1174623D2*
X1182104D1*
X1218273D2*
X1225824D1*
X1246434D2*
X1253915D1*
X1146316Y1625534D2*
X1153822D1*
X1218127D2*
X1225633D1*
X1146301Y1624038D2*
X1153796D1*
X1218112D2*
X1225607D1*
X1146470Y1622542D2*
X1154011D1*
X1218281D2*
X1225822D1*
X1146876Y1621046D2*
X1154462D1*
X1218687D2*
X1226273D1*
X1147505Y1619550D2*
X1155779D1*
X1219316D2*
X1227590D1*
X1148372Y1618054D2*
X1157765D1*
X1220183D2*
X1229576D1*
X1149501Y1616558D2*
X1160347D1*
X1221312D2*
X1232158D1*
X1150816Y1615062D2*
X1162730D1*
X1222627D2*
X1234541D1*
X1152230Y1613566D2*
X1164546D1*
X1224041D2*
X1236357D1*
X1153678Y1612070D2*
X1165138D1*
X1225490D2*
X1236949D1*
X1152239Y1610573D2*
X1165199D1*
X1224050D2*
X1237010D1*
X1150941Y1609077D2*
X1162866D1*
X1222752D2*
X1234677D1*
X1149862Y1607581D2*
X1160272D1*
X1221673D2*
X1232083D1*
X1148999Y1606085D2*
X1158007D1*
X1220810D2*
X1229818D1*
X1148371Y1604589D2*
X1156345D1*
X1220182D2*
X1228156D1*
X1148005Y1603093D2*
X1155197D1*
X1219816D2*
X1227008D1*
X1147824Y1601597D2*
X1154333D1*
X1219635D2*
X1226144D1*
X1147745Y1600101D2*
X1154233D1*
X1219556D2*
X1226044D1*
X1147719Y1598605D2*
X1154486D1*
X1173127D2*
X1180608D1*
X1219530D2*
X1226297D1*
X1244938D2*
X1252419D1*
X1147765Y1597109D2*
X1154968D1*
X1172293D2*
X1180039D1*
X1219576D2*
X1226779D1*
X1244104D2*
X1251850D1*
X1148004Y1595613D2*
X1156089D1*
X1171220D2*
X1179396D1*
X1219815D2*
X1227900D1*
X1243031D2*
X1251207D1*
X1148557Y1594117D2*
X1159270D1*
X1168577D2*
X1178696D1*
X1220368D2*
X1231081D1*
X1240388D2*
X1250507D1*
X1149363Y1592621D2*
X1164162D1*
X1164571D2*
X1177911D1*
X1221174D2*
X1235973D1*
X1236382D2*
X1249722D1*
X1150315Y1591125D2*
X1176918D1*
X1222126D2*
X1248729D1*
X1151571Y1589629D2*
X1175512D1*
X1223382D2*
X1247323D1*
X1153365Y1588133D2*
X1173585D1*
X1225176D2*
X1245396D1*
X1155655Y1586636D2*
X1171210D1*
X1227466D2*
X1243021D1*
X1158167Y1585140D2*
X1168639D1*
X1229978D2*
X1240450D1*
X994052Y1643487D2*
X995549D1*
X958147Y1641991D2*
X977596D1*
X994052D2*
X997045D1*
X1035942D2*
X1043423D1*
X1077832D2*
X1089801D1*
X953836Y1640495D2*
X977596D1*
X994052D2*
X998535D1*
X1035942D2*
X1043423D1*
X1074212D2*
X1093880D1*
X950235Y1638999D2*
X977596D1*
X994052D2*
X999978D1*
X1035942D2*
X1043423D1*
X1071041D2*
X1097110D1*
X947416Y1637503D2*
X977596D1*
X994052D2*
X1001284D1*
X1035942D2*
X1043423D1*
X1068439D2*
X1099542D1*
X945222Y1636007D2*
X977596D1*
X994052D2*
X1002421D1*
X1035942D2*
X1043423D1*
X1066347D2*
X1101474D1*
X943410Y1634510D2*
X977596D1*
X994052D2*
X1003534D1*
X1035942D2*
X1043423D1*
X1064620D2*
X1080153D1*
X1088005D2*
X1103147D1*
X941831Y1633014D2*
X955218D1*
X970115D2*
X977596D1*
X994052D2*
X1004769D1*
X1035942D2*
X1043423D1*
X1063195D2*
X1075846D1*
X1091807D2*
X1104662D1*
X940479Y1631518D2*
X952476D1*
X970115D2*
X977596D1*
X994052D2*
X1006126D1*
X1035942D2*
X1043423D1*
X1062016D2*
X1072541D1*
X1094999D2*
X1105988D1*
X939374Y1630022D2*
X950097D1*
X970115D2*
X977596D1*
X994052D2*
X1007559D1*
X1035942D2*
X1043423D1*
X1060944D2*
X1070123D1*
X1097436D2*
X1107083D1*
X938452Y1628526D2*
X948149D1*
X970115D2*
X977596D1*
X994052D2*
X1009029D1*
X1035942D2*
X1043423D1*
X1059946D2*
X1068415D1*
X1099178D2*
X1108002D1*
X937631Y1627030D2*
X946605D1*
X970115D2*
X977596D1*
X994052D2*
X1010515D1*
X1035942D2*
X1043423D1*
X1059141D2*
X1067097D1*
X1100518D2*
X1108821D1*
X936900Y1625534D2*
X945414D1*
X970115D2*
X977596D1*
X994052D2*
X1012007D1*
X1035942D2*
X1043423D1*
X1058508D2*
X1066000D1*
X1101631D2*
X1109552D1*
X936282Y1624038D2*
X944456D1*
X970115D2*
X977596D1*
X994052D2*
X1013502D1*
X1035942D2*
X1043423D1*
X1057932D2*
X1065207D1*
X1102481D2*
X1110169D1*
X935752Y1622542D2*
X943622D1*
X970115D2*
X977596D1*
X994052D2*
X1001533D1*
X1004525D2*
X1014998D1*
X1035942D2*
X1043423D1*
X1057453D2*
X1064748D1*
X1103131D2*
X1110700D1*
X935223Y1621046D2*
X942892D1*
X970115D2*
X977596D1*
X994052D2*
X1001533D1*
X1006021D2*
X1016494D1*
X1035942D2*
X1043423D1*
X1057154D2*
X1064514D1*
X1103713D2*
X1111229D1*
X934764Y1619550D2*
X942326D1*
X970115D2*
X977596D1*
X994052D2*
X1001533D1*
X1007517D2*
X1017990D1*
X1035942D2*
X1043423D1*
X1057000D2*
X1079328D1*
X1104194D2*
X1111688D1*
X934472Y1618054D2*
X941985D1*
X970115D2*
X977596D1*
X994052D2*
X1001533D1*
X1009013D2*
X1019486D1*
X1035942D2*
X1043423D1*
X1056932D2*
X1079328D1*
X1104494D2*
X1111979D1*
X934322Y1616558D2*
X941814D1*
X970115D2*
X977596D1*
X994052D2*
X1001533D1*
X1010509D2*
X1020982D1*
X1035942D2*
X1043423D1*
X1056904D2*
X1079328D1*
X1104648D2*
X1112130D1*
X934254Y1615062D2*
X941739D1*
X970115D2*
X977596D1*
X994052D2*
X1001533D1*
X1012005D2*
X1022478D1*
X1035942D2*
X1043423D1*
X1056893D2*
X1079328D1*
X1104716D2*
X1112197D1*
X934226Y1613566D2*
X941708D1*
X970115D2*
X977596D1*
X994052D2*
X1001533D1*
X1013501D2*
X1023974D1*
X1035942D2*
X1043423D1*
X1056887D2*
X1079328D1*
X1104745D2*
X1112219D1*
X934222Y1612070D2*
X941702D1*
X970115D2*
X977596D1*
X994052D2*
X1001533D1*
X1014997D2*
X1025464D1*
X1035942D2*
X1043423D1*
X1104749D2*
X1112177D1*
X934270Y1610573D2*
X941751D1*
X970115D2*
X977596D1*
X994052D2*
X1001533D1*
X1016493D2*
X1026907D1*
X1035942D2*
X1043423D1*
X1104701D2*
X1111990D1*
X934460Y1609077D2*
X941946D1*
X970115D2*
X977596D1*
X994052D2*
X1001533D1*
X1017990D2*
X1028213D1*
X1035942D2*
X1043423D1*
X1104506D2*
X1111633D1*
X934823Y1607581D2*
X942356D1*
X970115D2*
X977596D1*
X994052D2*
X1001533D1*
X1019486D2*
X1029356D1*
X1035936D2*
X1043423D1*
X1104095D2*
X1111244D1*
X935259Y1606085D2*
X942936D1*
X970115D2*
X977596D1*
X994052D2*
X1001533D1*
X1020982D2*
X1030526D1*
X1035879D2*
X1043423D1*
X1103515D2*
X1110931D1*
X935717Y1604589D2*
X943614D1*
X970115D2*
X977596D1*
X994052D2*
X1001533D1*
X1022478D2*
X1031991D1*
X1035648D2*
X1043423D1*
X1102838D2*
X1110596D1*
X936266Y1603093D2*
X944385D1*
X970115D2*
X977596D1*
X994052D2*
X1001533D1*
X1023968D2*
X1033852D1*
X1035137D2*
X1043423D1*
X1102066D2*
X1110116D1*
X936910Y1601597D2*
X945317D1*
X970115D2*
X977596D1*
X994052D2*
X1001533D1*
X1025411D2*
X1043423D1*
X1101134D2*
X1109463D1*
X937614Y1600101D2*
X946485D1*
X970115D2*
X977596D1*
X994052D2*
X1001533D1*
X1026717D2*
X1043423D1*
X1099973D2*
X1108637D1*
X938395Y1598605D2*
X947980D1*
X970115D2*
X977596D1*
X994052D2*
X1001533D1*
X1027855D2*
X1043423D1*
X1061375D2*
X1065864D1*
X1098577D2*
X1107694D1*
X939331Y1597109D2*
X949820D1*
X970115D2*
X977596D1*
X994052D2*
X1001533D1*
X1028967D2*
X1043423D1*
X1060748D2*
X1068257D1*
X1096761D2*
X1106736D1*
X940488Y1595613D2*
X955013D1*
X970115D2*
X977596D1*
X994052D2*
X1001533D1*
X1030202D2*
X1043423D1*
X1060378D2*
X1071354D1*
X1093906D2*
X1105696D1*
X941820Y1594117D2*
X963125D1*
X970115D2*
X977596D1*
X994052D2*
X1001533D1*
X1031559D2*
X1043423D1*
X1060792D2*
X1075887D1*
X1089072D2*
X1104440D1*
X943299Y1592621D2*
X977596D1*
X994052D2*
X1001533D1*
X1032992D2*
X1043423D1*
X1062058D2*
X1082293D1*
X1081869D2*
X1102892D1*
X945025Y1591125D2*
X977596D1*
X994052D2*
X1001533D1*
X1034462D2*
X1043423D1*
X1063788D2*
X1100989D1*
X947231Y1589629D2*
X977596D1*
X994052D2*
X1001533D1*
X1035948D2*
X1043423D1*
X1066055D2*
X1098639D1*
X950175Y1588133D2*
X977596D1*
X994052D2*
X1001533D1*
X1037440D2*
X1043423D1*
X1068973D2*
X1095688D1*
X953933Y1586636D2*
X977596D1*
X994052D2*
X1001533D1*
X1038935D2*
X1043423D1*
X1072512D2*
X1092136D1*
X958147Y1585140D2*
X977596D1*
X994052D2*
X1001533D1*
X1040431D2*
X1043423D1*
X1076336D2*
X1088304D1*
X1041927Y1583644D2*
X1043423D1*
X1071552Y1115022D2*
X1089505D1*
X1064775Y1112030D2*
X1096283D1*
X1059174Y1109038D2*
X1101872D1*
X1054745Y1106046D2*
X1106196D1*
X1051085Y1103054D2*
X1109474D1*
X1047910Y1100062D2*
X1111933D1*
X1045186Y1097070D2*
X1068560D1*
X1082921D2*
X1113878D1*
X1042857Y1094077D2*
X1065568D1*
X1087546D2*
X1115557D1*
X1040500Y1091085D2*
X1062576D1*
X1091007D2*
X1117021D1*
X835175Y1088093D2*
X844151D1*
X1002734D2*
X1008718D1*
X1037538D2*
X1059584D1*
X1093558D2*
X1118155D1*
X830699Y1085101D2*
X845995D1*
X862104D2*
X871080D1*
X901001D2*
X909978D1*
X930923D2*
X936907D1*
X969820D2*
X978797D1*
X998372D2*
X1011134D1*
X1033712D2*
X1073203D1*
X1094481D2*
X1118837D1*
X826581Y1082109D2*
X847596D1*
X862092D2*
X874195D1*
X895482D2*
X912382D1*
X929541D2*
X939785D1*
X964973D2*
X980189D1*
X994626D2*
X1012998D1*
X1029248D2*
X1088321D1*
X1090834D2*
X1119167D1*
X822935Y1079117D2*
X848805D1*
X861987D2*
X877652D1*
X890264D2*
X914120D1*
X928682D2*
X942391D1*
X960265D2*
X981163D1*
X991582D2*
X1014465D1*
X1024547D2*
X1119213D1*
X819792Y1076125D2*
X849522D1*
X861605D2*
X881667D1*
X885178D2*
X915289D1*
X928247D2*
X944641D1*
X955592D2*
X982061D1*
X989139D2*
X1015997D1*
X1019693D2*
X1118892D1*
X818480Y1073133D2*
X849878D1*
X860889D2*
X915190D1*
X928043D2*
X946743D1*
X950808D2*
X983284D1*
X986957D2*
X1053486D1*
X1070815D2*
X1118187D1*
X817721Y1070140D2*
X826198D1*
X831594D2*
X850035D1*
X860110D2*
X914620D1*
X927859D2*
X1027259D1*
X1033231D2*
X1053102D1*
X1080819D2*
X1117300D1*
X817222Y1067148D2*
X820214D1*
X833344D2*
X850110D1*
X859460D2*
X889033D1*
X897895D2*
X913819D1*
X927437D2*
X957852D1*
X966714D2*
X1022528D1*
X1031376D2*
X1052373D1*
X1088702D2*
X1116170D1*
X834346Y1064156D2*
X850248D1*
X858571D2*
X886041D1*
X897500D2*
X912944D1*
X926593D2*
X954860D1*
X966331D2*
X984906D1*
X996635D2*
X1018639D1*
X1029993D2*
X1051501D1*
X1094240D2*
X1114630D1*
X834832Y1061164D2*
X850719D1*
X857210D2*
X883060D1*
X896678D2*
X911960D1*
X925324D2*
X951879D1*
X965602D2*
X982403D1*
X996252D2*
X1015554D1*
X1028790D2*
X1050598D1*
X1098149D2*
X1111259D1*
X835019Y1058172D2*
X851745D1*
X853895D2*
X880185D1*
X895517D2*
X911082D1*
X923574D2*
X949004D1*
X964729D2*
X980521D1*
X995523D2*
X1013197D1*
X1027801D2*
X1049604D1*
X1101474D2*
X1107458D1*
X834869Y1055180D2*
X877691D1*
X894174D2*
X910622D1*
X921200D2*
X946510D1*
X963814D2*
X979130D1*
X994651D2*
X1011492D1*
X1027090D2*
X1048698D1*
X834348Y1052188D2*
X875914D1*
X892748D2*
X910531D1*
X918108D2*
X944733D1*
X962715D2*
X977925D1*
X993736D2*
X1010253D1*
X1026400D2*
X1048018D1*
X831734Y1049196D2*
X874892D1*
X891371D2*
X911606D1*
X914257D2*
X943711D1*
X961440D2*
X976935D1*
X992636D2*
X1010362D1*
X1025545D2*
X1047339D1*
X828296Y1046203D2*
X851186D1*
X858649D2*
X874298D1*
X890168D2*
X943117D1*
X960137D2*
X976224D1*
X991349D2*
X1010431D1*
X1024710D2*
X1046488D1*
X824868Y1043211D2*
X847197D1*
X857896D2*
X873706D1*
X889118D2*
X942514D1*
X958967D2*
X975534D1*
X989953D2*
X1009986D1*
X1024062D2*
X1045666D1*
X822022Y1040219D2*
X844083D1*
X857016D2*
X872906D1*
X888076D2*
X915962D1*
X922534D2*
X941596D1*
X957930D2*
X974679D1*
X988495D2*
X1009043D1*
X1023395D2*
X1045112D1*
X1065568D2*
X1074545D1*
X819580Y1037227D2*
X841498D1*
X856099D2*
X872107D1*
X887276D2*
X912958D1*
X920784D2*
X940299D1*
X956880D2*
X973856D1*
X987017D2*
X1007792D1*
X1022549D2*
X1044721D1*
X1065454D2*
X1076388D1*
X817222Y1034235D2*
X839177D1*
X854999D2*
X871574D1*
X886866D2*
X909852D1*
X919794D2*
X938540D1*
X955977D2*
X973312D1*
X985536D2*
X1006293D1*
X1021728D2*
X1044210D1*
X1065059D2*
X1077978D1*
X819164Y1031243D2*
X836541D1*
X853712D2*
X871281D1*
X888013D2*
X906398D1*
X919422D2*
X936163D1*
X955512D2*
X973016D1*
X984162D2*
X1004435D1*
X1021186D2*
X1043440D1*
X1064237D2*
X1079082D1*
X821139Y1028251D2*
X833115D1*
X852315D2*
X871048D1*
X889846D2*
X902383D1*
X919674D2*
X933069D1*
X955426D2*
X972772D1*
X983171D2*
X1002015D1*
X1020889D2*
X1042653D1*
X1063088D2*
X1079694D1*
X823206Y1025259D2*
X829190D1*
X850857D2*
X870613D1*
X892025D2*
X898009D1*
X920611D2*
X929218D1*
X956707D2*
X972256D1*
X982641D2*
X998905D1*
X1020655D2*
X1042123D1*
X1061838D2*
X1079115D1*
X849380Y1022266D2*
X869877D1*
X921946D2*
X924938D1*
X958617D2*
X971212D1*
X983547D2*
X995047D1*
X1020220D2*
X1041843D1*
X1060676D2*
X1078347D1*
X847887Y1019274D2*
X869102D1*
X960844D2*
X969820D1*
X984781D2*
X990765D1*
X1019483D2*
X1041716D1*
X1059529D2*
X1077482D1*
X846395Y1016282D2*
X868566D1*
X1018708D2*
X1041663D1*
X1057985D2*
X1076404D1*
X844897Y1013290D2*
X868182D1*
X1018184D2*
X1041654D1*
X1055844D2*
X1075125D1*
X843404Y1010298D2*
X867674D1*
X1017905D2*
X1041761D1*
X1053166D2*
X1073720D1*
X841917Y1007306D2*
X866893D1*
X1017778D2*
X1042221D1*
X1049900D2*
X1072157D1*
X840529Y1004314D2*
X866000D1*
X1017737D2*
X1043243D1*
X1045963D2*
X1070287D1*
X839423Y1001322D2*
X865078D1*
X1017822D2*
X1067972D1*
X838752Y998329D2*
X863965D1*
X1018208D2*
X1065309D1*
X838425Y995337D2*
X862560D1*
X1019051D2*
X1062339D1*
X838389Y992345D2*
X860656D1*
X1020428D2*
X1058796D1*
X838790Y989353D2*
X857917D1*
X1022619D2*
X1054161D1*
X839790Y986361D2*
X854274D1*
X1025848D2*
X1048241D1*
X841159Y983369D2*
X850135D1*
X1029663D2*
X1041631D1*
X1111887Y1351046D2*
X1123856D1*
X1106133Y1348054D2*
X1128778D1*
X1101434Y1345062D2*
X1132661D1*
X1097677Y1342070D2*
X1135382D1*
X1094680Y1339077D2*
X1137422D1*
X1092260Y1336085D2*
X1112013D1*
X1120264D2*
X1138127D1*
X812675Y1333093D2*
X821651D1*
X980234D2*
X986218D1*
X1013147D2*
X1025115D1*
X1090093D2*
X1109509D1*
X1122251D2*
X1138411D1*
X808199Y1330101D2*
X823495D1*
X839604D2*
X848580D1*
X878501D2*
X887478D1*
X908423D2*
X914407D1*
X947320D2*
X956297D1*
X975872D2*
X988634D1*
X1008762D2*
X1027520D1*
X1088088D2*
X1107627D1*
X1122867D2*
X1138193D1*
X804081Y1327109D2*
X825096D1*
X839592D2*
X851695D1*
X872982D2*
X889882D1*
X907041D2*
X917285D1*
X942473D2*
X957689D1*
X972126D2*
X990498D1*
X1004797D2*
X1029269D1*
X1086476D2*
X1106236D1*
X1122257D2*
X1137443D1*
X800435Y1324117D2*
X826305D1*
X839487D2*
X855152D1*
X867764D2*
X891620D1*
X906182D2*
X919891D1*
X937765D2*
X958663D1*
X969082D2*
X991965D1*
X1000906D2*
X1030260D1*
X1085209D2*
X1105020D1*
X1121137D2*
X1136310D1*
X797292Y1321125D2*
X827022D1*
X839105D2*
X859167D1*
X862678D2*
X892789D1*
X905747D2*
X922141D1*
X933092D2*
X959561D1*
X966639D2*
X993497D1*
X996691D2*
X1030641D1*
X1084044D2*
X1103936D1*
X1119467D2*
X1134964D1*
X795980Y1318133D2*
X827378D1*
X838389D2*
X892690D1*
X905543D2*
X924243D1*
X928308D2*
X960784D1*
X964457D2*
X1030469D1*
X1082980D2*
X1102949D1*
X1117235D2*
X1133425D1*
X795221Y1315140D2*
X803698D1*
X809094D2*
X827535D1*
X837610D2*
X892120D1*
X905359D2*
X1004770D1*
X1013033D2*
X1029825D1*
X1082001D2*
X1101935D1*
X1114603D2*
X1131562D1*
X794722Y1312148D2*
X797714D1*
X810844D2*
X827610D1*
X836960D2*
X866533D1*
X875395D2*
X891319D1*
X904937D2*
X935352D1*
X944214D2*
X1000133D1*
X1012650D2*
X1028984D1*
X1080978D2*
X1101144D1*
X1111659D2*
X1129251D1*
X811846Y1309156D2*
X827748D1*
X836071D2*
X863541D1*
X875000D2*
X890444D1*
X904093D2*
X932360D1*
X943831D2*
X962406D1*
X974135D2*
X996521D1*
X1011921D2*
X1028092D1*
X1043068D2*
X1046060D1*
X1080061D2*
X1100730D1*
X1108269D2*
X1126600D1*
X812332Y1306164D2*
X828219D1*
X834710D2*
X860560D1*
X874178D2*
X889460D1*
X902824D2*
X929379D1*
X943102D2*
X959903D1*
X973752D2*
X993771D1*
X1011048D2*
X1027102D1*
X1040550D2*
X1047223D1*
X1079378D2*
X1101660D1*
X1104279D2*
X1123747D1*
X812519Y1303172D2*
X829245D1*
X831395D2*
X857685D1*
X873017D2*
X888582D1*
X901074D2*
X926504D1*
X942229D2*
X958021D1*
X973023D2*
X991464D1*
X1010133D2*
X1026232D1*
X1038393D2*
X1046954D1*
X1078628D2*
X1120711D1*
X812369Y1300180D2*
X855191D1*
X871674D2*
X888122D1*
X898700D2*
X924010D1*
X941314D2*
X956630D1*
X972151D2*
X989514D1*
X1009034D2*
X1025623D1*
X1036446D2*
X1045517D1*
X1077597D2*
X1117360D1*
X811848Y1297188D2*
X853414D1*
X870248D2*
X888031D1*
X895608D2*
X922233D1*
X940215D2*
X955425D1*
X971236D2*
X987998D1*
X1007759D2*
X1026067D1*
X1034259D2*
X1043968D1*
X1074666D2*
X1113672D1*
X809234Y1294196D2*
X852392D1*
X868871D2*
X889106D1*
X891757D2*
X921211D1*
X938940D2*
X954435D1*
X970136D2*
X987981D1*
X1006468D2*
X1028308D1*
X1031428D2*
X1042513D1*
X1068298D2*
X1110032D1*
X805796Y1291203D2*
X828686D1*
X836149D2*
X851798D1*
X867668D2*
X920617D1*
X937637D2*
X953724D1*
X968849D2*
X987981D1*
X1005414D2*
X1041366D1*
X1061431D2*
X1107017D1*
X802368Y1288211D2*
X824697D1*
X835396D2*
X851206D1*
X866618D2*
X920014D1*
X936467D2*
X953034D1*
X967453D2*
X987506D1*
X1004887D2*
X1040675D1*
X1055879D2*
X1104622D1*
X799522Y1285219D2*
X821583D1*
X834516D2*
X850406D1*
X865576D2*
X893462D1*
X900034D2*
X919096D1*
X935430D2*
X952179D1*
X965995D2*
X986551D1*
X1004796D2*
X1040316D1*
X1051701D2*
X1103729D1*
X797080Y1282227D2*
X818998D1*
X833599D2*
X849607D1*
X864776D2*
X890458D1*
X898284D2*
X917799D1*
X934380D2*
X951356D1*
X964517D2*
X985294D1*
X1006199D2*
X1040058D1*
X1050319D2*
X1103124D1*
X794722Y1279235D2*
X816677D1*
X832499D2*
X849074D1*
X864366D2*
X887352D1*
X897294D2*
X916040D1*
X933477D2*
X950812D1*
X963036D2*
X983794D1*
X1009474D2*
X1039603D1*
X1049583D2*
X1102317D1*
X1129840D2*
X1132832D1*
X796664Y1276243D2*
X814041D1*
X831212D2*
X848781D1*
X865513D2*
X883898D1*
X896922D2*
X913663D1*
X933012D2*
X950516D1*
X961662D2*
X981935D1*
X1012920D2*
X1038746D1*
X1049245D2*
X1100750D1*
X1126006D2*
X1137091D1*
X798639Y1273251D2*
X810615D1*
X829815D2*
X848548D1*
X867346D2*
X879883D1*
X897174D2*
X910569D1*
X932926D2*
X950272D1*
X960671D2*
X979515D1*
X1015914D2*
X1037472D1*
X1072990D2*
X1098505D1*
X1123139D2*
X1140548D1*
X800706Y1270259D2*
X806690D1*
X828357D2*
X848113D1*
X869525D2*
X875509D1*
X898111D2*
X906718D1*
X934207D2*
X949756D1*
X960141D2*
X976405D1*
X1017148D2*
X1035720D1*
X1072527D2*
X1096332D1*
X1120864D2*
X1143141D1*
X826880Y1267266D2*
X847377D1*
X899446D2*
X902438D1*
X936117D2*
X948712D1*
X961047D2*
X972547D1*
X1015834D2*
X1033346D1*
X1071785D2*
X1094614D1*
X1125123D2*
X1145060D1*
X825387Y1264274D2*
X846602D1*
X938344D2*
X947320D1*
X962281D2*
X968265D1*
X1014765D2*
X1030253D1*
X1070999D2*
X1093109D1*
X1128579D2*
X1146394D1*
X823895Y1261282D2*
X846066D1*
X1015253D2*
X1026402D1*
X1070335D2*
X1091654D1*
X1131160D2*
X1147156D1*
X822397Y1258290D2*
X845682D1*
X1016139D2*
X1022123D1*
X1069646D2*
X1090289D1*
X1132963D2*
X1147516D1*
X820904Y1255298D2*
X845174D1*
X1067699D2*
X1089189D1*
X1134225D2*
X1147573D1*
X819417Y1252306D2*
X844393D1*
X1040076D2*
X1058029D1*
X1063217D2*
X1088472D1*
X1134286D2*
X1147245D1*
X818029Y1249314D2*
X843500D1*
X1036177D2*
X1087950D1*
X1127095D2*
X1146436D1*
X816923Y1246322D2*
X842578D1*
X1033196D2*
X1112542D1*
X1115120D2*
X1145179D1*
X816252Y1243329D2*
X841465D1*
X1031118D2*
X1143446D1*
X815925Y1240337D2*
X840060D1*
X1029831D2*
X1141164D1*
X815889Y1237345D2*
X838156D1*
X1029011D2*
X1138306D1*
X816290Y1234353D2*
X835417D1*
X1042232D2*
X1134547D1*
X817290Y1231361D2*
X831774D1*
X1058366D2*
X1129575D1*
X818659Y1228369D2*
X827635D1*
X1075982D2*
X1123856D1*
X875135Y1223487D2*
X882615D1*
X872949Y1221991D2*
X883818D1*
X871023Y1220495D2*
X884692D1*
X869315Y1218999D2*
X885188D1*
X867781Y1217503D2*
X885378D1*
X866489Y1216007D2*
X885287D1*
X865533Y1214510D2*
X884918D1*
X864832Y1213014D2*
X884353D1*
X864228Y1211518D2*
X883687D1*
X863738Y1210022D2*
X882970D1*
X863429Y1208526D2*
X882230D1*
X863222Y1207030D2*
X881432D1*
X862962Y1205534D2*
X880496D1*
X862582Y1204038D2*
X879401D1*
X862240Y1202542D2*
X878376D1*
X862166Y1201046D2*
X877563D1*
X862384Y1199550D2*
X877589D1*
X862704Y1198054D2*
X877781D1*
X908049D2*
X914033D1*
X862938Y1196558D2*
X878003D1*
X904654D2*
X915466D1*
X928993D2*
X934978D1*
X1009781D2*
X1015765D1*
X1062143D2*
X1069623D1*
X863061Y1195062D2*
X878294D1*
X901801D2*
X916712D1*
X928303D2*
X937102D1*
X951434D2*
X957419D1*
X1006335D2*
X1017198D1*
X1029230D2*
X1035214D1*
X1059388D2*
X1070831D1*
X863062Y1193566D2*
X878701D1*
X899396D2*
X917600D1*
X927873D2*
X938777D1*
X950744D2*
X959368D1*
X1003343D2*
X1018444D1*
X1028539D2*
X1036984D1*
X1056825D2*
X1071759D1*
X862838Y1192070D2*
X879111D1*
X897202D2*
X918105D1*
X927650D2*
X940072D1*
X950314D2*
X960870D1*
X1000770D2*
X1019333D1*
X1028109D2*
X1038502D1*
X1054470D2*
X1072445D1*
X862240Y1190573D2*
X879433D1*
X895178D2*
X918344D1*
X927501D2*
X940532D1*
X950097D2*
X962000D1*
X998550D2*
X1019838D1*
X1027892D2*
X1039698D1*
X1052347D2*
X1072993D1*
X861247Y1189077D2*
X879765D1*
X893364D2*
X918396D1*
X927271D2*
X940779D1*
X950000D2*
X962914D1*
X996649D2*
X1020076D1*
X1027796D2*
X1040668D1*
X1050479D2*
X1073424D1*
X859940Y1187581D2*
X880194D1*
X891709D2*
X918248D1*
X926898D2*
X940891D1*
X949955D2*
X963677D1*
X994958D2*
X1020129D1*
X1027756D2*
X1041515D1*
X1048745D2*
X1073269D1*
X843718Y1186085D2*
X849702D1*
X858318D2*
X880669D1*
X890136D2*
X917905D1*
X926509D2*
X940930D1*
X949888D2*
X964256D1*
X993377D2*
X1019980D1*
X1027742D2*
X1042342D1*
X1046939D2*
X1073015D1*
X843027Y1184589D2*
X854892D1*
X856354D2*
X881245D1*
X888554D2*
X917521D1*
X926246D2*
X940894D1*
X949692D2*
X964602D1*
X991848D2*
X1019637D1*
X1027731D2*
X1043230D1*
X1044898D2*
X1072811D1*
X842598Y1183093D2*
X882021D1*
X886816D2*
X897576D1*
X903503D2*
X917210D1*
X926101D2*
X940710D1*
X949332D2*
X964768D1*
X990345D2*
X1019254D1*
X1027676D2*
X1072646D1*
X842398Y1181597D2*
X883707D1*
X884804D2*
X896080D1*
X903312D2*
X916881D1*
X925985D2*
X940353D1*
X948948D2*
X964792D1*
X988897D2*
X999602D1*
X1005236D2*
X1018942D1*
X1027485D2*
X1072403D1*
X842330Y1180101D2*
X894584D1*
X902947D2*
X916454D1*
X925768D2*
X939965D1*
X948686D2*
X964632D1*
X987590D2*
X997231D1*
X1005044D2*
X1018613D1*
X1027126D2*
X1051671D1*
X1057649D2*
X1072016D1*
X842801Y1178605D2*
X863173D1*
X866390D2*
X893088D1*
X902511D2*
X915991D1*
X925400D2*
X939651D1*
X948542D2*
X964285D1*
X986457D2*
X995240D1*
X1004679D2*
X1018186D1*
X1026743D2*
X1050175D1*
X1057596D2*
X1071571D1*
X844233Y1177109D2*
X861735D1*
X866761D2*
X891592D1*
X902054D2*
X915524D1*
X925006D2*
X939322D1*
X948426D2*
X963900D1*
X985403D2*
X993554D1*
X1004243D2*
X1017723D1*
X1026476D2*
X1048678D1*
X1057400D2*
X1071116D1*
X845731Y1175613D2*
X860488D1*
X867148D2*
X890102D1*
X901504D2*
X914970D1*
X924686D2*
X938895D1*
X948203D2*
X963588D1*
X984417D2*
X992143D1*
X1003786D2*
X1017256D1*
X1026279D2*
X1047182D1*
X1056989D2*
X1070618D1*
X846964Y1174117D2*
X859599D1*
X867416D2*
X888664D1*
X900866D2*
X914331D1*
X924297D2*
X938432D1*
X947776D2*
X963259D1*
X983673D2*
X990964D1*
X1003236D2*
X1016703D1*
X1025966D2*
X1045692D1*
X1056415D2*
X1070171D1*
X847183Y1172621D2*
X859094D1*
X867608D2*
X887417D1*
X900215D2*
X913680D1*
X923626D2*
X937965D1*
X947140D2*
X962837D1*
X983162D2*
X989836D1*
X1002598D2*
X1016064D1*
X1025332D2*
X1044249D1*
X1055790D2*
X1069883D1*
X846780Y1171125D2*
X858850D1*
X867862D2*
X886528D1*
X899630D2*
X913090D1*
X922603D2*
X937411D1*
X946270D2*
X962428D1*
X983270D2*
X988596D1*
X1001947D2*
X1015418D1*
X1024331D2*
X1042944D1*
X1055215D2*
X1069740D1*
X846212Y1169629D2*
X858745D1*
X868247D2*
X886023D1*
X899105D2*
X912530D1*
X921277D2*
X936771D1*
X945123D2*
X962157D1*
X983706D2*
X987244D1*
X1001362D2*
X1014897D1*
X1023064D2*
X1041819D1*
X1054694D2*
X1069730D1*
X845540Y1168133D2*
X858703D1*
X868640D2*
X885779D1*
X898528D2*
X911843D1*
X919577D2*
X936112D1*
X943636D2*
X962014D1*
X984348D2*
X985844D1*
X1000838D2*
X1014541D1*
X1021558D2*
X1040768D1*
X1054118D2*
X1069934D1*
X844824Y1166636D2*
X858687D1*
X868905D2*
X885674D1*
X897880D2*
X911041D1*
X917288D2*
X935509D1*
X941526D2*
X961949D1*
X1000260D2*
X1014751D1*
X1019641D2*
X1039702D1*
X1053470D2*
X1070434D1*
X844091Y1165140D2*
X858681D1*
X869045D2*
X885632D1*
X897225D2*
X913238D1*
X914340D2*
X934978D1*
X938528D2*
X961923D1*
X999612D2*
X1015868D1*
X1017138D2*
X1040387D1*
X1052815D2*
X1071119D1*
X843401Y1163644D2*
X858674D1*
X869109D2*
X885610D1*
X896638D2*
X961913D1*
X998957D2*
X1040764D1*
X1052229D2*
X1070372D1*
X842850Y1162148D2*
X858620D1*
X869129D2*
X885552D1*
X896119D2*
X961903D1*
X998371D2*
X1040791D1*
X1051710D2*
X1069745D1*
X842520Y1160652D2*
X858429D1*
X869087D2*
X885359D1*
X895594D2*
X961849D1*
X997851D2*
X1040523D1*
X1051179D2*
X1069110D1*
X842403Y1159156D2*
X858071D1*
X868894D2*
X884995D1*
X895137D2*
X917256D1*
X920011D2*
X941019D1*
X944248D2*
X961652D1*
X997327D2*
X1020484D1*
X1023014D2*
X1040120D1*
X1050669D2*
X1068387D1*
X842525Y1157660D2*
X857682D1*
X868479D2*
X884552D1*
X894846D2*
X916131D1*
X919954D2*
X939715D1*
X943367D2*
X961235D1*
X996869D2*
X1019359D1*
X1022643D2*
X1039631D1*
X1050187D2*
X1067532D1*
X842906Y1156164D2*
X857368D1*
X867846D2*
X884048D1*
X894696D2*
X915022D1*
X919723D2*
X938577D1*
X942809D2*
X960602D1*
X996578D2*
X1018251D1*
X1022256D2*
X1038942D1*
X1049679D2*
X1066572D1*
X843474Y1154668D2*
X857033D1*
X866984D2*
X883355D1*
X894628D2*
X913788D1*
X919212D2*
X937459D1*
X942335D2*
X959728D1*
X996434D2*
X1017017D1*
X1021994D2*
X1038080D1*
X1049233D2*
X1065557D1*
X844153Y1153172D2*
X856553D1*
X865913D2*
X882491D1*
X894606D2*
X912425D1*
X918521D2*
X936165D1*
X941714D2*
X958534D1*
X996419D2*
X1015654D1*
X1021855D2*
X1037161D1*
X1049003D2*
X1064326D1*
X844980Y1151676D2*
X855894D1*
X864846D2*
X881565D1*
X894660D2*
X910940D1*
X919334D2*
X934559D1*
X940962D2*
X956913D1*
X996593D2*
X1014163D1*
X1021791D2*
X1036138D1*
X1048961D2*
X1062706D1*
X846138Y1150180D2*
X855020D1*
X864043D2*
X880490D1*
X894813D2*
X909279D1*
X920230D2*
X932525D1*
X941933D2*
X954663D1*
X997055D2*
X1012444D1*
X1021765D2*
X1034889D1*
X1049602D2*
X1060742D1*
X847780Y1148684D2*
X853913D1*
X863493D2*
X879044D1*
X895562D2*
X907422D1*
X921482D2*
X930099D1*
X942920D2*
X951732D1*
X997901D2*
X1010356D1*
X1021755D2*
X1033354D1*
X1050557D2*
X1058522D1*
X849702Y1147188D2*
X852694D1*
X863592D2*
X877099D1*
X897203D2*
X905484D1*
X923009D2*
X927497D1*
X943954D2*
X948442D1*
X999206D2*
X1007907D1*
X1021751D2*
X1031556D1*
X1051671D2*
X1056159D1*
X864024Y1145692D2*
X874718D1*
X899072D2*
X903560D1*
X1000804D2*
X1005293D1*
X1021750D2*
X1029644D1*
X864663Y1144196D2*
X872143D1*
X1021749D2*
X1027734D1*
X1047182Y1136715D2*
X1051671D1*
X1045923Y1135219D2*
X1052592D1*
X1044851Y1133723D2*
X1053393D1*
X1043939Y1132227D2*
X1053998D1*
X1043121Y1130731D2*
X1054356D1*
X1042397Y1129235D2*
X1054534D1*
X1041833Y1127739D2*
X1054607D1*
X1041499Y1126243D2*
X1054586D1*
X1041386Y1124747D2*
X1054407D1*
X1041433Y1123251D2*
X1054047D1*
X1042166Y1121755D2*
X1053608D1*
X1043400Y1120259D2*
X1053115D1*
X1045154Y1118762D2*
X1052458D1*
X1047182Y1117266D2*
X1051671D1*
X3256159Y1439491D2*
X3266631D1*
X3252770Y1437995D2*
X3269740D1*
X3249969Y1436499D2*
X3272460D1*
X3247755Y1435003D2*
X3274708D1*
X3245925Y1433507D2*
X3276403D1*
X3244343Y1432010D2*
X3256753D1*
X3264548D2*
X3277749D1*
X3243034Y1430514D2*
X3253559D1*
X3267804D2*
X3276846D1*
X3242072Y1429018D2*
X3251258D1*
X3270371D2*
X3275560D1*
X3241369Y1427522D2*
X3249692D1*
X3272615D2*
X3274112D1*
X3240764Y1426026D2*
X3248619D1*
X3240274Y1424530D2*
X3247907D1*
X3239971Y1423034D2*
X3247510D1*
X3239816Y1421538D2*
X3247318D1*
X3239747Y1420042D2*
X3247241D1*
X3239725Y1418546D2*
X3247260D1*
X3239766Y1417050D2*
X3247444D1*
X3239959Y1415554D2*
X3247856D1*
X3240369Y1414058D2*
X3248499D1*
X3240948Y1412562D2*
X3249307D1*
X3241626Y1411066D2*
X3250962D1*
X3242397Y1409570D2*
X3255263D1*
X3243335Y1408073D2*
X3261757D1*
X3266631D2*
X3271119D1*
X3244555Y1406577D2*
X3270608D1*
X3246200Y1405081D2*
X3270157D1*
X3248590Y1403585D2*
X3269821D1*
X3252110Y1402089D2*
X3269483D1*
X3256814Y1400593D2*
X3269053D1*
X3262143Y1399097D2*
X3268590D1*
X3261447Y1397601D2*
X3268128D1*
X3260964Y1396105D2*
X3267621D1*
X3260556Y1394609D2*
X3267120D1*
X3260101Y1393113D2*
X3266642D1*
X3259675Y1391617D2*
X3266135D1*
X3259376Y1390121D2*
X3265678D1*
X3241198Y1388625D2*
X3265337D1*
X3241198Y1387129D2*
X3264996D1*
X3241198Y1385633D2*
X3264558D1*
X3241198Y1384136D2*
X3264084D1*
X3241198Y1382640D2*
X3263639D1*
X3249663Y1564491D2*
X3260135D1*
X3246560Y1562995D2*
X3262827D1*
X3243886Y1561499D2*
X3265146D1*
X3241765Y1560003D2*
X3266946D1*
X3240230Y1558507D2*
X3268275D1*
X3239144Y1557010D2*
X3250014D1*
X3258339D2*
X3269296D1*
X3238371Y1555514D2*
X3247840D1*
X3260652D2*
X3270156D1*
X3237777Y1554018D2*
X3246260D1*
X3262400D2*
X3270897D1*
X3237224Y1552522D2*
X3245154D1*
X3263730D2*
X3271471D1*
X3236756Y1551026D2*
X3244421D1*
X3264234D2*
X3271838D1*
X3236462Y1549530D2*
X3244013D1*
X3264623D2*
X3272104D1*
X3236316Y1548034D2*
X3243822D1*
X3236301Y1546538D2*
X3243796D1*
X3236470Y1545042D2*
X3244011D1*
X3236876Y1543546D2*
X3244462D1*
X3237505Y1542050D2*
X3245779D1*
X3238372Y1540554D2*
X3247765D1*
X3239501Y1539058D2*
X3250347D1*
X3240816Y1537562D2*
X3252730D1*
X3242230Y1536066D2*
X3254546D1*
X3243678Y1534570D2*
X3255138D1*
X3242239Y1533073D2*
X3255199D1*
X3240941Y1531577D2*
X3252866D1*
X3239862Y1530081D2*
X3250272D1*
X3238999Y1528585D2*
X3248007D1*
X3238371Y1527089D2*
X3246345D1*
X3238005Y1525593D2*
X3245197D1*
X3237824Y1524097D2*
X3244333D1*
X3237745Y1522601D2*
X3244233D1*
X3237719Y1521105D2*
X3244486D1*
X3263127D2*
X3270608D1*
X3237765Y1519609D2*
X3244968D1*
X3262293D2*
X3270039D1*
X3238004Y1518113D2*
X3246089D1*
X3261220D2*
X3269396D1*
X3238557Y1516617D2*
X3249270D1*
X3258577D2*
X3268696D1*
X3239363Y1515121D2*
X3254162D1*
X3254571D2*
X3267911D1*
X3240315Y1513625D2*
X3266918D1*
X3241571Y1512129D2*
X3265512D1*
X3243365Y1510633D2*
X3263585D1*
X3245655Y1509136D2*
X3261210D1*
X3248167Y1507640D2*
X3258639D1*
X2457591Y872751D2*
D13*
X2460543D1*
X2457591Y871766D2*
X2460543D1*
X2457591Y870782D2*
X2460543D1*
X2457591Y869798D2*
X2460543D1*
X2457591Y868814D2*
X2460543D1*
X2457591Y867829D2*
X2460543D1*
X2457591Y866845D2*
X2460543D1*
X2457591Y865861D2*
X2460543D1*
X2457591Y864877D2*
X2460543D1*
X2457591Y863892D2*
X2460543D1*
X2457591Y862908D2*
X2460543D1*
X2457591Y861924D2*
X2488102D1*
X2457591Y860940D2*
X2488102D1*
X2457591Y859955D2*
X2488102D1*
X2457591Y858971D2*
X2488102D1*
X2457591Y857987D2*
X2460543D1*
X2457591Y857003D2*
X2460543D1*
X2457591Y856018D2*
X2460543D1*
X2457591Y855034D2*
X2460543D1*
X2457591Y854050D2*
X2460543D1*
X2457591Y853066D2*
X2460543D1*
X2457591Y852081D2*
X2460543D1*
X2457591Y851097D2*
X2460543D1*
X2457591Y850113D2*
X2460543D1*
X2457591Y849129D2*
X2460543D1*
X2457591Y848144D2*
X2460543D1*
X2457591Y845192D2*
X2460543D1*
X2485150D2*
X2488102D1*
X2457591Y844207D2*
X2460543D1*
X2470386D2*
X2473339D1*
X2485150D2*
X2488102D1*
X2457591Y843223D2*
X2460543D1*
X2470386D2*
X2473339D1*
X2485150D2*
X2488102D1*
X2457591Y842239D2*
X2460543D1*
X2470386D2*
X2473339D1*
X2485150D2*
X2488102D1*
X2457591Y841255D2*
X2460543D1*
X2470386D2*
X2473339D1*
X2485150D2*
X2488102D1*
X2457591Y840270D2*
X2460543D1*
X2470386D2*
X2473339D1*
X2485150D2*
X2488102D1*
X2457591Y839286D2*
X2460543D1*
X2470386D2*
X2473339D1*
X2485150D2*
X2488102D1*
X2457591Y838302D2*
X2460543D1*
X2470386D2*
X2473339D1*
X2485150D2*
X2488102D1*
X2457591Y837318D2*
X2460543D1*
X2470386D2*
X2473339D1*
X2485150D2*
X2488102D1*
X2457591Y836333D2*
X2460543D1*
X2470386D2*
X2473339D1*
X2485150D2*
X2488102D1*
X2457591Y835349D2*
X2460543D1*
X2470386D2*
X2473339D1*
X2485150D2*
X2488102D1*
X2457591Y834365D2*
X2460543D1*
X2470386D2*
X2473339D1*
X2485150D2*
X2488102D1*
X2457591Y833381D2*
X2460543D1*
X2470386D2*
X2473339D1*
X2485150D2*
X2488102D1*
X2457591Y832396D2*
X2460543D1*
X2470386D2*
X2473339D1*
X2485150D2*
X2488102D1*
X2457591Y831412D2*
X2460543D1*
X2470386D2*
X2473339D1*
X2485150D2*
X2488102D1*
X2457591Y830428D2*
X2488102D1*
X2457591Y829444D2*
X2488102D1*
X2457591Y828459D2*
X2488102D1*
X2457591Y827475D2*
X2488102D1*
X2457591Y826491D2*
X2488102D1*
X2457591Y821570D2*
X2460543D1*
X2470386D2*
X2473339D1*
X2457591Y820585D2*
X2460543D1*
X2470386D2*
X2473339D1*
X2457591Y819601D2*
X2460543D1*
X2470386D2*
X2473339D1*
X2457591Y818617D2*
X2460543D1*
X2470386D2*
X2473339D1*
X2457591Y817633D2*
X2460543D1*
X2470386D2*
X2473339D1*
X2457591Y816648D2*
X2460543D1*
X2470386D2*
X2473339D1*
X2457591Y815664D2*
X2460543D1*
X2470386D2*
X2473339D1*
X2457591Y814680D2*
X2460543D1*
X2470386D2*
X2473339D1*
X2457591Y813696D2*
X2460543D1*
X2470386D2*
X2473339D1*
X2457591Y812711D2*
X2460543D1*
X2470386D2*
X2473339D1*
X2457591Y811727D2*
X2460543D1*
X2470386D2*
X2473339D1*
X2457591Y810743D2*
X2460543D1*
X2470386D2*
X2473339D1*
X2457591Y809759D2*
X2460543D1*
X2470386D2*
X2473339D1*
X2457591Y808774D2*
X2460543D1*
X2470386D2*
X2473339D1*
X2457591Y807790D2*
X2488102D1*
X2457591Y806806D2*
X2488102D1*
X2457591Y805822D2*
X2488102D1*
X2457591Y804837D2*
X2488102D1*
X2457591Y803853D2*
X2488102D1*
X2476291Y797948D2*
X2484165D1*
X2458575Y796963D2*
X2462512D1*
X2475345D2*
X2485146D1*
X2458238Y795979D2*
X2462020D1*
X2474490D2*
X2486095D1*
X2457942Y794995D2*
X2461611D1*
X2473780D2*
X2486950D1*
X2457720Y794010D2*
X2461228D1*
X2473209D2*
X2478609D1*
X2482832D2*
X2487660D1*
X2457499Y793026D2*
X2460878D1*
X2472761D2*
X2477332D1*
X2484109D2*
X2488228D1*
X2457219Y792042D2*
X2460555D1*
X2472395D2*
X2476433D1*
X2485004D2*
X2488641D1*
X2456949Y791058D2*
X2460222D1*
X2472040D2*
X2475826D1*
X2485675D2*
X2488882D1*
X2456771Y790073D2*
X2459959D1*
X2471732D2*
X2475391D1*
X2485911D2*
X2489001D1*
X2456681Y789089D2*
X2459815D1*
X2471504D2*
X2475009D1*
X2486039D2*
X2489053D1*
X2456673Y788105D2*
X2460016D1*
X2471276D2*
X2474690D1*
X2486097D2*
X2489074D1*
X2456781Y787121D2*
X2460273D1*
X2470961D2*
X2474459D1*
X2486116D2*
X2489082D1*
X2457013Y786136D2*
X2460564D1*
X2470557D2*
X2474233D1*
X2486091D2*
X2489085D1*
X2457298Y785152D2*
X2460973D1*
X2470055D2*
X2473949D1*
X2485968D2*
X2489082D1*
X2457598Y784168D2*
X2461519D1*
X2469444D2*
X2473639D1*
X2485730D2*
X2489048D1*
X2457963Y783184D2*
X2463096D1*
X2467849D2*
X2473297D1*
X2485443D2*
X2488923D1*
X2458425Y782199D2*
X2465502D1*
X2465433D2*
X2472800D1*
X2485142D2*
X2488683D1*
X2459051Y781215D2*
X2472068D1*
X2484778D2*
X2488393D1*
X2459952Y780231D2*
X2471075D1*
X2484329D2*
X2488069D1*
X2461151Y779247D2*
X2469819D1*
X2483788D2*
X2487636D1*
X2462512Y778262D2*
X2468417D1*
X2483181D2*
X2487118D1*
X2470386Y774325D2*
X2476291D1*
X2467210Y773341D2*
X2479312D1*
X2464680Y772357D2*
X2481730D1*
X2462736Y771373D2*
X2483516D1*
X2461274Y770388D2*
X2484880D1*
X2460212Y769404D2*
X2467786D1*
X2478857D2*
X2485993D1*
X2459370Y768420D2*
X2465559D1*
X2480989D2*
X2486913D1*
X2458659Y767436D2*
X2463809D1*
X2482598D2*
X2487647D1*
X2458137Y766451D2*
X2462527D1*
X2483772D2*
X2488224D1*
X2457803Y765467D2*
X2461645D1*
X2484621D2*
X2488640D1*
X2457531Y764483D2*
X2461051D1*
X2485244D2*
X2488882D1*
X2457231Y763499D2*
X2460622D1*
X2485678D2*
X2489001D1*
X2456953Y762514D2*
X2460247D1*
X2485926D2*
X2489053D1*
X2456776Y761530D2*
X2459968D1*
X2486047D2*
X2489074D1*
X2456716Y760546D2*
X2459816D1*
X2486096D2*
X2489082D1*
X2456798Y759562D2*
X2460016D1*
X2486083D2*
X2489085D1*
X2457016Y758577D2*
X2460277D1*
X2485962D2*
X2489082D1*
X2457266Y757593D2*
X2460598D1*
X2485690D2*
X2489048D1*
X2457474Y756609D2*
X2461083D1*
X2485271D2*
X2488919D1*
X2457724Y755625D2*
X2461782D1*
X2484662D2*
X2488645D1*
X2458130Y754640D2*
X2462742D1*
X2483713D2*
X2488228D1*
X2458678Y753656D2*
X2463959D1*
X2482440D2*
X2487657D1*
X2459307Y752672D2*
X2467716D1*
X2478880D2*
X2486910D1*
X2460105Y751688D2*
X2473734D1*
X2473325D2*
X2486006D1*
X2461211Y750703D2*
X2484899D1*
X2462749Y749719D2*
X2483423D1*
X2464957Y748735D2*
X2481340D1*
X2467950Y747751D2*
X2478533D1*
X2471370Y746766D2*
X2475307D1*
X2457591Y741845D2*
X2488102D1*
X2457591Y740861D2*
X2488102D1*
X2457594Y739877D2*
X2488102D1*
X2457637Y738892D2*
X2488102D1*
X2457740Y737908D2*
X2488102D1*
X2458238Y736924D2*
X2463534D1*
X2459451Y735940D2*
X2465628D1*
X2461083Y734955D2*
X2467833D1*
X2463069Y733971D2*
X2470057D1*
X2465230Y732987D2*
X2472224D1*
X2467450Y732003D2*
X2474333D1*
X2469657Y731018D2*
X2476251D1*
X2471613Y730034D2*
X2477905D1*
X2473111Y729050D2*
X2478669D1*
X2474323Y728066D2*
X2479007D1*
X2471900Y727081D2*
X2478064D1*
X2469645Y726097D2*
X2476694D1*
X2467499Y725113D2*
X2474916D1*
X2465345Y724129D2*
X2472851D1*
X2463158Y723144D2*
X2470686D1*
X2461129Y722160D2*
X2468567D1*
X2459549Y721176D2*
X2466514D1*
X2458360Y720192D2*
X2464507D1*
X2457960Y719207D2*
X2462521D1*
X2457746Y718223D2*
X2488102D1*
X2457651Y717239D2*
X2488102D1*
X2457611Y716255D2*
X2488102D1*
X2457591Y715270D2*
X2488102D1*
X2886552Y490987D2*
D12*
Y489491D1*
Y487995D1*
Y486499D1*
Y485003D1*
Y483507D1*
Y482010D1*
Y480514D1*
Y479018D1*
Y477522D1*
Y476026D1*
Y474530D1*
Y473034D1*
Y471538D1*
Y470042D1*
Y468546D1*
Y467050D1*
Y465554D1*
Y464058D1*
Y462562D1*
Y461066D1*
Y459570D1*
Y458073D1*
Y456577D1*
Y455081D1*
Y453585D1*
Y452089D1*
Y450593D1*
Y449097D1*
Y447601D1*
Y446105D1*
Y444609D1*
Y443113D1*
Y441617D1*
Y440121D1*
Y438625D1*
Y437129D1*
Y435633D1*
Y434136D1*
Y432640D1*
X2888049Y490987D2*
X2889545Y489491D1*
X2891035Y487995D1*
X2892478Y486499D1*
X2893784Y485003D1*
X2894921Y483507D1*
X2896034Y482010D1*
X2897269Y480514D1*
X2898626Y479018D1*
X2900059Y477522D1*
X2901529Y476026D1*
X2903015Y474530D1*
X2904507Y473034D1*
X2906002Y471538D1*
X2907498Y470042D1*
X2908994Y468546D1*
X2910490Y467050D1*
X2911986Y465554D1*
X2913482Y464058D1*
X2914978Y462562D1*
X2916474Y461066D1*
X2917964Y459570D1*
X2919407Y458073D1*
X2920713Y456577D1*
X2921856Y455081D1*
X2923026Y453585D1*
X2924491Y452089D1*
X2926352Y450593D1*
X2928442Y449097D1*
X2850647Y489491D2*
X2846336Y487995D1*
X2842735Y486499D1*
X2839916Y485003D1*
X2837722Y483507D1*
X2835910Y482010D1*
X2834331Y480514D1*
X2832979Y479018D1*
X2831874Y477522D1*
X2830952Y476026D1*
X2830131Y474530D1*
X2829400Y473034D1*
X2828782Y471538D1*
X2828252Y470042D1*
X2827723Y468546D1*
X2827264Y467050D1*
X2826972Y465554D1*
X2826822Y464058D1*
X2826754Y462562D1*
X2826726Y461066D1*
X2826722Y459570D1*
X2826770Y458073D1*
X2826960Y456577D1*
X2827323Y455081D1*
X2827759Y453585D1*
X2828217Y452089D1*
X2828766Y450593D1*
X2829410Y449097D1*
X2830114Y447601D1*
X2830895Y446105D1*
X2831831Y444609D1*
X2832988Y443113D1*
X2834320Y441617D1*
X2835799Y440121D1*
X2837525Y438625D1*
X2839731Y437129D1*
X2842675Y435633D1*
X2846433Y434136D1*
X2850647Y432640D1*
X2870096Y489491D2*
Y487995D1*
Y486499D1*
Y485003D1*
Y483507D1*
Y482010D1*
Y480514D1*
Y479018D1*
Y477522D1*
Y476026D1*
Y474530D1*
Y473034D1*
Y471538D1*
Y470042D1*
Y468546D1*
Y467050D1*
Y465554D1*
Y464058D1*
Y462562D1*
Y461066D1*
Y459570D1*
Y458073D1*
Y456577D1*
Y455081D1*
Y453585D1*
Y452089D1*
Y450593D1*
Y449097D1*
Y447601D1*
Y446105D1*
Y444609D1*
Y443113D1*
Y441617D1*
Y440121D1*
Y438625D1*
Y437129D1*
Y435633D1*
Y434136D1*
Y432640D1*
X2928442Y489491D2*
Y487995D1*
Y486499D1*
Y485003D1*
Y483507D1*
Y482010D1*
Y480514D1*
Y479018D1*
Y477522D1*
Y476026D1*
Y474530D1*
Y473034D1*
Y471538D1*
Y470042D1*
Y468546D1*
Y467050D1*
Y465554D1*
Y464058D1*
Y462562D1*
Y461066D1*
Y459570D1*
Y458073D1*
Y456577D1*
X2928436Y455081D1*
X2928379Y453585D1*
X2928148Y452089D1*
X2927637Y450593D1*
X2926946Y449097D1*
X2935923Y489491D2*
Y487995D1*
Y486499D1*
Y485003D1*
Y483507D1*
Y482010D1*
Y480514D1*
Y479018D1*
Y477522D1*
Y476026D1*
Y474530D1*
Y473034D1*
Y471538D1*
Y470042D1*
Y468546D1*
Y467050D1*
Y465554D1*
Y464058D1*
Y462562D1*
Y461066D1*
Y459570D1*
Y458073D1*
Y456577D1*
Y455081D1*
Y453585D1*
Y452089D1*
Y450593D1*
Y449097D1*
Y447601D1*
Y446105D1*
Y444609D1*
Y443113D1*
Y441617D1*
Y440121D1*
Y438625D1*
Y437129D1*
Y435633D1*
Y434136D1*
Y432640D1*
Y431144D1*
X2970332Y489491D2*
X2966712Y487995D1*
X2963541Y486499D1*
X2960939Y485003D1*
X2958847Y483507D1*
X2957120Y482010D1*
X2955695Y480514D1*
X2954516Y479018D1*
X2953444Y477522D1*
X2952446Y476026D1*
X2951641Y474530D1*
X2951008Y473034D1*
X2950432Y471538D1*
X2949953Y470042D1*
X2949654Y468546D1*
X2949500Y467050D1*
X2949432Y465554D1*
X2949404Y464058D1*
X2949393Y462562D1*
X2949387Y461066D1*
X2982301Y489491D2*
X2986380Y487995D1*
X2989610Y486499D1*
X2992042Y485003D1*
X2993974Y483507D1*
X2995647Y482010D1*
X2997162Y480514D1*
X2998488Y479018D1*
X2999583Y477522D1*
X3000502Y476026D1*
X3001321Y474530D1*
X3002052Y473034D1*
X3002669Y471538D1*
X3003200Y470042D1*
X3003729Y468546D1*
X3004188Y467050D1*
X3004479Y465554D1*
X3004630Y464058D1*
X3004697Y462562D1*
X3004719Y461066D1*
X3004677Y459570D1*
X3004490Y458073D1*
X3004133Y456577D1*
X3003744Y455081D1*
X3003431Y453585D1*
X3003096Y452089D1*
X3002616Y450593D1*
X3001963Y449097D1*
X3001137Y447601D1*
X3000194Y446105D1*
X2999236Y444609D1*
X2998196Y443113D1*
X2996940Y441617D1*
X2995392Y440121D1*
X2993489Y438625D1*
X2991139Y437129D1*
X2988188Y435633D1*
X2984636Y434136D1*
X2980804Y432640D1*
X2977812Y483507D2*
X2972653Y482010D1*
X2968346Y480514D1*
X2965041Y479018D1*
X2962623Y477522D1*
X2960915Y476026D1*
X2959597Y474530D1*
X2958500Y473034D1*
X2957707Y471538D1*
X2957248Y470042D1*
X2957014Y468546D1*
X2956867Y467050D1*
X2971828D1*
Y465554D1*
Y464058D1*
Y462562D1*
Y461066D1*
X2976316Y483507D2*
X2980505Y482010D1*
X2984307Y480514D1*
X2987499Y479018D1*
X2989936Y477522D1*
X2991678Y476026D1*
X2993018Y474530D1*
X2994131Y473034D1*
X2994981Y471538D1*
X2995631Y470042D1*
X2996213Y468546D1*
X2996694Y467050D1*
X2996994Y465554D1*
X2997148Y464058D1*
X2997216Y462562D1*
X2997245Y461066D1*
X2997249Y459570D1*
X2997201Y458073D1*
X2997006Y456577D1*
X2996595Y455081D1*
X2996015Y453585D1*
X2995338Y452089D1*
X2994566Y450593D1*
X2993634Y449097D1*
X2992473Y447601D1*
X2991077Y446105D1*
X2989261Y444609D1*
X2986406Y443113D1*
X2981572Y441617D1*
X2974369Y440121D1*
X2965844Y438625D1*
X2850647Y482010D2*
X2847718Y480514D1*
X2844976Y479018D1*
X2842597Y477522D1*
X2840649Y476026D1*
X2839105Y474530D1*
X2837914Y473034D1*
X2836956Y471538D1*
X2836122Y470042D1*
X2835392Y468546D1*
X2834826Y467050D1*
X2834485Y465554D1*
X2834314Y464058D1*
X2834239Y462562D1*
X2834208Y461066D1*
X2834202Y459570D1*
X2834251Y458073D1*
X2834446Y456577D1*
X2834856Y455081D1*
X2835436Y453585D1*
X2836114Y452089D1*
X2836885Y450593D1*
X2837817Y449097D1*
X2838985Y447601D1*
X2840480Y446105D1*
X2842320Y444609D1*
X2847513Y443113D1*
X2855625Y441617D1*
X2865608Y440121D1*
X2862615Y482010D2*
Y480514D1*
Y479018D1*
Y477522D1*
Y476026D1*
Y474530D1*
Y473034D1*
Y471538D1*
Y470042D1*
Y468546D1*
Y467050D1*
Y465554D1*
Y464058D1*
Y462562D1*
Y461066D1*
Y459570D1*
Y458073D1*
Y456577D1*
Y455081D1*
Y453585D1*
Y452089D1*
Y450593D1*
Y449097D1*
Y447601D1*
Y446105D1*
Y444609D1*
Y443113D1*
Y441617D1*
X2849151Y440121D1*
X2894033Y471538D2*
Y470042D1*
Y468546D1*
Y467050D1*
Y465554D1*
Y464058D1*
Y462562D1*
Y461066D1*
Y459570D1*
Y458073D1*
Y456577D1*
Y455081D1*
Y453585D1*
Y452089D1*
Y450593D1*
Y449097D1*
Y447601D1*
Y446105D1*
Y444609D1*
Y443113D1*
Y441617D1*
Y440121D1*
Y438625D1*
Y437129D1*
Y435633D1*
Y434136D1*
Y432640D1*
X2895529Y471538D2*
X2897025Y470042D1*
X2898521Y468546D1*
X2900017Y467050D1*
X2901513Y465554D1*
X2903009Y464058D1*
X2904505Y462562D1*
X2906001Y461066D1*
X2907497Y459570D1*
X2908993Y458073D1*
X2910490Y456577D1*
X2911986Y455081D1*
X2913482Y453585D1*
X2914978Y452089D1*
X2916468Y450593D1*
X2917911Y449097D1*
X2919217Y447601D1*
X2920355Y446105D1*
X2921467Y444609D1*
X2922702Y443113D1*
X2924059Y441617D1*
X2925492Y440121D1*
X2926962Y438625D1*
X2928448Y437129D1*
X2929940Y435633D1*
X2931435Y434136D1*
X2932931Y432640D1*
X2934427Y431144D1*
X2953875Y446105D2*
X2953248Y444609D1*
X2952878Y443113D1*
X2953292Y441617D1*
X2954558Y440121D1*
X2956288Y438625D1*
X2958555Y437129D1*
X2961473Y435633D1*
X2965012Y434136D1*
X2968836Y432640D1*
X2958364Y446105D2*
X2960757Y444609D1*
X2963854Y443113D1*
X2968387Y441617D1*
X2974793Y440121D1*
X2982301Y438625D1*
X853659Y1644491D2*
X850270Y1642995D1*
X847469Y1641499D1*
X845255Y1640003D1*
X843425Y1638507D1*
X841843Y1637010D1*
X840534Y1635514D1*
X839572Y1634018D1*
X838869Y1632522D1*
X838264Y1631026D1*
X837774Y1629530D1*
X837471Y1628034D1*
X837316Y1626538D1*
X837247Y1625042D1*
X837225Y1623546D1*
X837266Y1622050D1*
X837459Y1620554D1*
X837869Y1619058D1*
X838448Y1617562D1*
X839126Y1616066D1*
X839897Y1614570D1*
X840835Y1613073D1*
X842055Y1611577D1*
X843700Y1610081D1*
X846090Y1608585D1*
X849610Y1607089D1*
X854314Y1605593D1*
X859643Y1604097D1*
X858947Y1602601D1*
X858464Y1601105D1*
X858056Y1599609D1*
X857601Y1598113D1*
X857175Y1596617D1*
X856876Y1595121D1*
X856651Y1593625D1*
X864131Y1644491D2*
X867240Y1642995D1*
X869960Y1641499D1*
X872208Y1640003D1*
X873903Y1638507D1*
X875249Y1637010D1*
X874346Y1635514D1*
X873060Y1634018D1*
X871612Y1632522D1*
X858147Y1638507D2*
X854253Y1637010D1*
X851059Y1635514D1*
X848758Y1634018D1*
X847192Y1632522D1*
X846119Y1631026D1*
X845407Y1629530D1*
X845010Y1628034D1*
X844818Y1626538D1*
X844741Y1625042D1*
X844760Y1623546D1*
X844944Y1622050D1*
X845356Y1620554D1*
X845999Y1619058D1*
X846807Y1617562D1*
X848462Y1616066D1*
X852763Y1614570D1*
X859257Y1613073D1*
X867123Y1611577D1*
X858147Y1638507D2*
X862048Y1637010D1*
X865304Y1635514D1*
X867871Y1634018D1*
X870115Y1632522D1*
X864131Y1613073D2*
X862635Y1611577D1*
X868619Y1613073D2*
X868108Y1611577D1*
X867657Y1610081D1*
X867321Y1608585D1*
X866983Y1607089D1*
X866553Y1605593D1*
X866090Y1604097D1*
X865628Y1602601D1*
X865121Y1601105D1*
X864620Y1599609D1*
X864142Y1598113D1*
X863635Y1596617D1*
X863178Y1595121D1*
X862837Y1593625D1*
X862496Y1592129D1*
X862058Y1590633D1*
X861584Y1589136D1*
X861139Y1587640D1*
X838698Y1593625D2*
Y1592129D1*
Y1590633D1*
Y1589136D1*
Y1587640D1*
X1159663Y1641991D2*
X1156560Y1640495D1*
X1153886Y1638999D1*
X1151765Y1637503D1*
X1150230Y1636007D1*
X1149144Y1634510D1*
X1148371Y1633014D1*
X1147777Y1631518D1*
X1147224Y1630022D1*
X1146756Y1628526D1*
X1146462Y1627030D1*
X1146316Y1625534D1*
X1146301Y1624038D1*
X1146470Y1622542D1*
X1146876Y1621046D1*
X1147505Y1619550D1*
X1148372Y1618054D1*
X1149501Y1616558D1*
X1150816Y1615062D1*
X1152230Y1613566D1*
X1153678Y1612070D1*
X1152239Y1610573D1*
X1150941Y1609077D1*
X1149862Y1607581D1*
X1148999Y1606085D1*
X1148371Y1604589D1*
X1148005Y1603093D1*
X1147824Y1601597D1*
X1147745Y1600101D1*
X1147719Y1598605D1*
X1147765Y1597109D1*
X1148004Y1595613D1*
X1148557Y1594117D1*
X1149363Y1592621D1*
X1150315Y1591125D1*
X1151571Y1589629D1*
X1153365Y1588133D1*
X1155655Y1586636D1*
X1158167Y1585140D1*
X1170135Y1641991D2*
X1172827Y1640495D1*
X1175146Y1638999D1*
X1176946Y1637503D1*
X1178275Y1636007D1*
X1179296Y1634510D1*
X1180156Y1633014D1*
X1180897Y1631518D1*
X1181471Y1630022D1*
X1181838Y1628526D1*
X1182104Y1627030D1*
X1195568Y1641991D2*
X1194372Y1640495D1*
X1193378Y1638999D1*
X1193094Y1637503D1*
X1193610Y1636007D1*
X1194497Y1634510D1*
X1195568Y1633014D1*
X1198560Y1641991D2*
X1199757Y1640495D1*
X1200750Y1638999D1*
X1201035Y1637503D1*
X1200519Y1636007D1*
X1199632Y1634510D1*
X1198560Y1633014D1*
X1231474Y1641991D2*
X1228371Y1640495D1*
X1225697Y1638999D1*
X1223576Y1637503D1*
X1222041Y1636007D1*
X1220955Y1634510D1*
X1220182Y1633014D1*
X1219588Y1631518D1*
X1219035Y1630022D1*
X1218567Y1628526D1*
X1218273Y1627030D1*
X1218127Y1625534D1*
X1218112Y1624038D1*
X1218281Y1622542D1*
X1218687Y1621046D1*
X1219316Y1619550D1*
X1220183Y1618054D1*
X1221312Y1616558D1*
X1222627Y1615062D1*
X1224041Y1613566D1*
X1225490Y1612070D1*
X1224050Y1610573D1*
X1222752Y1609077D1*
X1221673Y1607581D1*
X1220810Y1606085D1*
X1220182Y1604589D1*
X1219816Y1603093D1*
X1219635Y1601597D1*
X1219556Y1600101D1*
X1219530Y1598605D1*
X1219576Y1597109D1*
X1219815Y1595613D1*
X1220368Y1594117D1*
X1221174Y1592621D1*
X1222126Y1591125D1*
X1223382Y1589629D1*
X1225176Y1588133D1*
X1227466Y1586636D1*
X1229978Y1585140D1*
X1241946Y1641991D2*
X1244638Y1640495D1*
X1246957Y1638999D1*
X1248757Y1637503D1*
X1250086Y1636007D1*
X1251107Y1634510D1*
X1251967Y1633014D1*
X1252708Y1631518D1*
X1253282Y1630022D1*
X1253649Y1628526D1*
X1253915Y1627030D1*
X1162655Y1636007D2*
X1160014Y1634510D1*
X1157840Y1633014D1*
X1156260Y1631518D1*
X1155154Y1630022D1*
X1154421Y1628526D1*
X1154013Y1627030D1*
X1153822Y1625534D1*
X1153796Y1624038D1*
X1154011Y1622542D1*
X1154462Y1621046D1*
X1155779Y1619550D1*
X1157765Y1618054D1*
X1160347Y1616558D1*
X1162730Y1615062D1*
X1164546Y1613566D1*
X1165138Y1612070D1*
X1165199Y1610573D1*
X1162866Y1609077D1*
X1160272Y1607581D1*
X1158007Y1606085D1*
X1156345Y1604589D1*
X1155197Y1603093D1*
X1154333Y1601597D1*
X1154233Y1600101D1*
X1154486Y1598605D1*
X1154968Y1597109D1*
X1156089Y1595613D1*
X1159270Y1594117D1*
X1164162Y1592621D1*
X1170135Y1591125D1*
X1165647Y1636007D2*
X1168339Y1634510D1*
X1170652Y1633014D1*
X1172400Y1631518D1*
X1173730Y1630022D1*
X1174234Y1628526D1*
X1174623Y1627030D1*
X1234466Y1636007D2*
X1231825Y1634510D1*
X1229651Y1633014D1*
X1228071Y1631518D1*
X1226965Y1630022D1*
X1226232Y1628526D1*
X1225824Y1627030D1*
X1225633Y1625534D1*
X1225607Y1624038D1*
X1225822Y1622542D1*
X1226273Y1621046D1*
X1227590Y1619550D1*
X1229576Y1618054D1*
X1232158Y1616558D1*
X1234541Y1615062D1*
X1236357Y1613566D1*
X1236949Y1612070D1*
X1237010Y1610573D1*
X1234677Y1609077D1*
X1232083Y1607581D1*
X1229818Y1606085D1*
X1228156Y1604589D1*
X1227008Y1603093D1*
X1226144Y1601597D1*
X1226044Y1600101D1*
X1226297Y1598605D1*
X1226779Y1597109D1*
X1227900Y1595613D1*
X1231081Y1594117D1*
X1235973Y1592621D1*
X1241946Y1591125D1*
X1237458Y1636007D2*
X1240150Y1634510D1*
X1242463Y1633014D1*
X1244211Y1631518D1*
X1245541Y1630022D1*
X1246045Y1628526D1*
X1246434Y1627030D1*
X1173127Y1598605D2*
X1172293Y1597109D1*
X1171220Y1595613D1*
X1168577Y1594117D1*
X1164571Y1592621D1*
X1159663Y1591125D1*
X1180608Y1598605D2*
X1180039Y1597109D1*
X1179396Y1595613D1*
X1178696Y1594117D1*
X1177911Y1592621D1*
X1176918Y1591125D1*
X1175512Y1589629D1*
X1173585Y1588133D1*
X1171210Y1586636D1*
X1168639Y1585140D1*
X1244938Y1598605D2*
X1244104Y1597109D1*
X1243031Y1595613D1*
X1240388Y1594117D1*
X1236382Y1592621D1*
X1231474Y1591125D1*
X1252419Y1598605D2*
X1251850Y1597109D1*
X1251207Y1595613D1*
X1250507Y1594117D1*
X1249722Y1592621D1*
X1248729Y1591125D1*
X1247323Y1589629D1*
X1245396Y1588133D1*
X1243021Y1586636D1*
X1240450Y1585140D1*
X994052Y1643487D2*
Y1641991D1*
Y1640495D1*
Y1638999D1*
Y1637503D1*
Y1636007D1*
Y1634510D1*
Y1633014D1*
Y1631518D1*
Y1630022D1*
Y1628526D1*
Y1627030D1*
Y1625534D1*
Y1624038D1*
Y1622542D1*
Y1621046D1*
Y1619550D1*
Y1618054D1*
Y1616558D1*
Y1615062D1*
Y1613566D1*
Y1612070D1*
Y1610573D1*
Y1609077D1*
Y1607581D1*
Y1606085D1*
Y1604589D1*
Y1603093D1*
Y1601597D1*
Y1600101D1*
Y1598605D1*
Y1597109D1*
Y1595613D1*
Y1594117D1*
Y1592621D1*
Y1591125D1*
Y1589629D1*
Y1588133D1*
Y1586636D1*
Y1585140D1*
X995549Y1643487D2*
X997045Y1641991D1*
X998535Y1640495D1*
X999978Y1638999D1*
X1001284Y1637503D1*
X1002421Y1636007D1*
X1003534Y1634510D1*
X1004769Y1633014D1*
X1006126Y1631518D1*
X1007559Y1630022D1*
X1009029Y1628526D1*
X1010515Y1627030D1*
X1012007Y1625534D1*
X1013502Y1624038D1*
X1014998Y1622542D1*
X1016494Y1621046D1*
X1017990Y1619550D1*
X1019486Y1618054D1*
X1020982Y1616558D1*
X1022478Y1615062D1*
X1023974Y1613566D1*
X1025464Y1612070D1*
X1026907Y1610573D1*
X1028213Y1609077D1*
X1029356Y1607581D1*
X1030526Y1606085D1*
X1031991Y1604589D1*
X1033852Y1603093D1*
X1035942Y1601597D1*
X958147Y1641991D2*
X953836Y1640495D1*
X950235Y1638999D1*
X947416Y1637503D1*
X945222Y1636007D1*
X943410Y1634510D1*
X941831Y1633014D1*
X940479Y1631518D1*
X939374Y1630022D1*
X938452Y1628526D1*
X937631Y1627030D1*
X936900Y1625534D1*
X936282Y1624038D1*
X935752Y1622542D1*
X935223Y1621046D1*
X934764Y1619550D1*
X934472Y1618054D1*
X934322Y1616558D1*
X934254Y1615062D1*
X934226Y1613566D1*
X934222Y1612070D1*
X934270Y1610573D1*
X934460Y1609077D1*
X934823Y1607581D1*
X935259Y1606085D1*
X935717Y1604589D1*
X936266Y1603093D1*
X936910Y1601597D1*
X937614Y1600101D1*
X938395Y1598605D1*
X939331Y1597109D1*
X940488Y1595613D1*
X941820Y1594117D1*
X943299Y1592621D1*
X945025Y1591125D1*
X947231Y1589629D1*
X950175Y1588133D1*
X953933Y1586636D1*
X958147Y1585140D1*
X977596Y1641991D2*
Y1640495D1*
Y1638999D1*
Y1637503D1*
Y1636007D1*
Y1634510D1*
Y1633014D1*
Y1631518D1*
Y1630022D1*
Y1628526D1*
Y1627030D1*
Y1625534D1*
Y1624038D1*
Y1622542D1*
Y1621046D1*
Y1619550D1*
Y1618054D1*
Y1616558D1*
Y1615062D1*
Y1613566D1*
Y1612070D1*
Y1610573D1*
Y1609077D1*
Y1607581D1*
Y1606085D1*
Y1604589D1*
Y1603093D1*
Y1601597D1*
Y1600101D1*
Y1598605D1*
Y1597109D1*
Y1595613D1*
Y1594117D1*
Y1592621D1*
Y1591125D1*
Y1589629D1*
Y1588133D1*
Y1586636D1*
Y1585140D1*
X1035942Y1641991D2*
Y1640495D1*
Y1638999D1*
Y1637503D1*
Y1636007D1*
Y1634510D1*
Y1633014D1*
Y1631518D1*
Y1630022D1*
Y1628526D1*
Y1627030D1*
Y1625534D1*
Y1624038D1*
Y1622542D1*
Y1621046D1*
Y1619550D1*
Y1618054D1*
Y1616558D1*
Y1615062D1*
Y1613566D1*
Y1612070D1*
Y1610573D1*
Y1609077D1*
X1035936Y1607581D1*
X1035879Y1606085D1*
X1035648Y1604589D1*
X1035137Y1603093D1*
X1034446Y1601597D1*
X1043423Y1641991D2*
Y1640495D1*
Y1638999D1*
Y1637503D1*
Y1636007D1*
Y1634510D1*
Y1633014D1*
Y1631518D1*
Y1630022D1*
Y1628526D1*
Y1627030D1*
Y1625534D1*
Y1624038D1*
Y1622542D1*
Y1621046D1*
Y1619550D1*
Y1618054D1*
Y1616558D1*
Y1615062D1*
Y1613566D1*
Y1612070D1*
Y1610573D1*
Y1609077D1*
Y1607581D1*
Y1606085D1*
Y1604589D1*
Y1603093D1*
Y1601597D1*
Y1600101D1*
Y1598605D1*
Y1597109D1*
Y1595613D1*
Y1594117D1*
Y1592621D1*
Y1591125D1*
Y1589629D1*
Y1588133D1*
Y1586636D1*
Y1585140D1*
Y1583644D1*
X1077832Y1641991D2*
X1074212Y1640495D1*
X1071041Y1638999D1*
X1068439Y1637503D1*
X1066347Y1636007D1*
X1064620Y1634510D1*
X1063195Y1633014D1*
X1062016Y1631518D1*
X1060944Y1630022D1*
X1059946Y1628526D1*
X1059141Y1627030D1*
X1058508Y1625534D1*
X1057932Y1624038D1*
X1057453Y1622542D1*
X1057154Y1621046D1*
X1057000Y1619550D1*
X1056932Y1618054D1*
X1056904Y1616558D1*
X1056893Y1615062D1*
X1056887Y1613566D1*
X1089801Y1641991D2*
X1093880Y1640495D1*
X1097110Y1638999D1*
X1099542Y1637503D1*
X1101474Y1636007D1*
X1103147Y1634510D1*
X1104662Y1633014D1*
X1105988Y1631518D1*
X1107083Y1630022D1*
X1108002Y1628526D1*
X1108821Y1627030D1*
X1109552Y1625534D1*
X1110169Y1624038D1*
X1110700Y1622542D1*
X1111229Y1621046D1*
X1111688Y1619550D1*
X1111979Y1618054D1*
X1112130Y1616558D1*
X1112197Y1615062D1*
X1112219Y1613566D1*
X1112177Y1612070D1*
X1111990Y1610573D1*
X1111633Y1609077D1*
X1111244Y1607581D1*
X1110931Y1606085D1*
X1110596Y1604589D1*
X1110116Y1603093D1*
X1109463Y1601597D1*
X1108637Y1600101D1*
X1107694Y1598605D1*
X1106736Y1597109D1*
X1105696Y1595613D1*
X1104440Y1594117D1*
X1102892Y1592621D1*
X1100989Y1591125D1*
X1098639Y1589629D1*
X1095688Y1588133D1*
X1092136Y1586636D1*
X1088304Y1585140D1*
X1085312Y1636007D2*
X1080153Y1634510D1*
X1075846Y1633014D1*
X1072541Y1631518D1*
X1070123Y1630022D1*
X1068415Y1628526D1*
X1067097Y1627030D1*
X1066000Y1625534D1*
X1065207Y1624038D1*
X1064748Y1622542D1*
X1064514Y1621046D1*
X1064367Y1619550D1*
X1079328D1*
Y1618054D1*
Y1616558D1*
Y1615062D1*
Y1613566D1*
X1083816Y1636007D2*
X1088005Y1634510D1*
X1091807Y1633014D1*
X1094999Y1631518D1*
X1097436Y1630022D1*
X1099178Y1628526D1*
X1100518Y1627030D1*
X1101631Y1625534D1*
X1102481Y1624038D1*
X1103131Y1622542D1*
X1103713Y1621046D1*
X1104194Y1619550D1*
X1104494Y1618054D1*
X1104648Y1616558D1*
X1104716Y1615062D1*
X1104745Y1613566D1*
X1104749Y1612070D1*
X1104701Y1610573D1*
X1104506Y1609077D1*
X1104095Y1607581D1*
X1103515Y1606085D1*
X1102838Y1604589D1*
X1102066Y1603093D1*
X1101134Y1601597D1*
X1099973Y1600101D1*
X1098577Y1598605D1*
X1096761Y1597109D1*
X1093906Y1595613D1*
X1089072Y1594117D1*
X1081869Y1592621D1*
X1073344Y1591125D1*
X958147Y1634510D2*
X955218Y1633014D1*
X952476Y1631518D1*
X950097Y1630022D1*
X948149Y1628526D1*
X946605Y1627030D1*
X945414Y1625534D1*
X944456Y1624038D1*
X943622Y1622542D1*
X942892Y1621046D1*
X942326Y1619550D1*
X941985Y1618054D1*
X941814Y1616558D1*
X941739Y1615062D1*
X941708Y1613566D1*
X941702Y1612070D1*
X941751Y1610573D1*
X941946Y1609077D1*
X942356Y1607581D1*
X942936Y1606085D1*
X943614Y1604589D1*
X944385Y1603093D1*
X945317Y1601597D1*
X946485Y1600101D1*
X947980Y1598605D1*
X949820Y1597109D1*
X955013Y1595613D1*
X963125Y1594117D1*
X973108Y1592621D1*
X970115Y1634510D2*
Y1633014D1*
Y1631518D1*
Y1630022D1*
Y1628526D1*
Y1627030D1*
Y1625534D1*
Y1624038D1*
Y1622542D1*
Y1621046D1*
Y1619550D1*
Y1618054D1*
Y1616558D1*
Y1615062D1*
Y1613566D1*
Y1612070D1*
Y1610573D1*
Y1609077D1*
Y1607581D1*
Y1606085D1*
Y1604589D1*
Y1603093D1*
Y1601597D1*
Y1600101D1*
Y1598605D1*
Y1597109D1*
Y1595613D1*
Y1594117D1*
X956651Y1592621D1*
X1001533Y1624038D2*
Y1622542D1*
Y1621046D1*
Y1619550D1*
Y1618054D1*
Y1616558D1*
Y1615062D1*
Y1613566D1*
Y1612070D1*
Y1610573D1*
Y1609077D1*
Y1607581D1*
Y1606085D1*
Y1604589D1*
Y1603093D1*
Y1601597D1*
Y1600101D1*
Y1598605D1*
Y1597109D1*
Y1595613D1*
Y1594117D1*
Y1592621D1*
Y1591125D1*
Y1589629D1*
Y1588133D1*
Y1586636D1*
Y1585140D1*
X1003029Y1624038D2*
X1004525Y1622542D1*
X1006021Y1621046D1*
X1007517Y1619550D1*
X1009013Y1618054D1*
X1010509Y1616558D1*
X1012005Y1615062D1*
X1013501Y1613566D1*
X1014997Y1612070D1*
X1016493Y1610573D1*
X1017990Y1609077D1*
X1019486Y1607581D1*
X1020982Y1606085D1*
X1022478Y1604589D1*
X1023968Y1603093D1*
X1025411Y1601597D1*
X1026717Y1600101D1*
X1027855Y1598605D1*
X1028967Y1597109D1*
X1030202Y1595613D1*
X1031559Y1594117D1*
X1032992Y1592621D1*
X1034462Y1591125D1*
X1035948Y1589629D1*
X1037440Y1588133D1*
X1038935Y1586636D1*
X1040431Y1585140D1*
X1041927Y1583644D1*
X1061375Y1598605D2*
X1060748Y1597109D1*
X1060378Y1595613D1*
X1060792Y1594117D1*
X1062058Y1592621D1*
X1063788Y1591125D1*
X1066055Y1589629D1*
X1068973Y1588133D1*
X1072512Y1586636D1*
X1076336Y1585140D1*
X1065864Y1598605D2*
X1068257Y1597109D1*
X1071354Y1595613D1*
X1075887Y1594117D1*
X1082293Y1592621D1*
X1089801Y1591125D1*
X1071552Y1115022D2*
X1064775Y1112030D1*
X1059174Y1109038D1*
X1054745Y1106046D1*
X1051085Y1103054D1*
X1047910Y1100062D1*
X1045186Y1097070D1*
X1042857Y1094077D1*
X1040500Y1091085D1*
X1037538Y1088093D1*
X1033712Y1085101D1*
X1029248Y1082109D1*
X1024547Y1079117D1*
X1019693Y1076125D1*
X1014702Y1073133D1*
X1089505Y1115022D2*
X1096283Y1112030D1*
X1101872Y1109038D1*
X1106196Y1106046D1*
X1109474Y1103054D1*
X1111933Y1100062D1*
X1113878Y1097070D1*
X1115557Y1094077D1*
X1117021Y1091085D1*
X1118155Y1088093D1*
X1118837Y1085101D1*
X1119167Y1082109D1*
X1119213Y1079117D1*
X1118892Y1076125D1*
X1118187Y1073133D1*
X1117300Y1070140D1*
X1116170Y1067148D1*
X1114630Y1064156D1*
X1111259Y1061164D1*
X1107458Y1058172D1*
X1071552Y1100062D2*
X1068560Y1097070D1*
X1065568Y1094077D1*
X1062576Y1091085D1*
X1059584Y1088093D1*
X1073203Y1085101D1*
X1088321Y1082109D1*
X1104466Y1079117D1*
X1077537Y1100062D2*
X1082921Y1097070D1*
X1087546Y1094077D1*
X1091007Y1091085D1*
X1093558Y1088093D1*
X1094481Y1085101D1*
X1090834Y1082109D1*
X1086513Y1079117D1*
X835175Y1088093D2*
X830699Y1085101D1*
X826581Y1082109D1*
X822935Y1079117D1*
X819792Y1076125D1*
X818480Y1073133D1*
X817721Y1070140D1*
X817222Y1067148D1*
X844151Y1088093D2*
X845995Y1085101D1*
X847596Y1082109D1*
X848805Y1079117D1*
X849522Y1076125D1*
X849878Y1073133D1*
X850035Y1070140D1*
X850110Y1067148D1*
X850248Y1064156D1*
X850719Y1061164D1*
X851745Y1058172D1*
X853127Y1055180D1*
X1002734Y1088093D2*
X998372Y1085101D1*
X994626Y1082109D1*
X991582Y1079117D1*
X989139Y1076125D1*
X986957Y1073133D1*
X984781Y1070140D1*
X1008718Y1088093D2*
X1011134Y1085101D1*
X1012998Y1082109D1*
X1014465Y1079117D1*
X1015997Y1076125D1*
X1017694Y1073133D1*
X862104Y1085101D2*
X862092Y1082109D1*
X861987Y1079117D1*
X861605Y1076125D1*
X860889Y1073133D1*
X860110Y1070140D1*
X859460Y1067148D1*
X858571Y1064156D1*
X857210Y1061164D1*
X853895Y1058172D1*
X850135Y1055180D1*
X871080Y1085101D2*
X874195Y1082109D1*
X877652Y1079117D1*
X881667Y1076125D1*
X886041Y1073133D1*
X901001Y1085101D2*
X895482Y1082109D1*
X890264Y1079117D1*
X885178Y1076125D1*
X880056Y1073133D1*
X909978Y1085101D2*
X912382Y1082109D1*
X914120Y1079117D1*
X915289Y1076125D1*
X915190Y1073133D1*
X914620Y1070140D1*
X913819Y1067148D1*
X912944Y1064156D1*
X911960Y1061164D1*
X911082Y1058172D1*
X910622Y1055180D1*
X910531Y1052188D1*
X911606Y1049196D1*
X912970Y1046203D1*
X930923Y1085101D2*
X929541Y1082109D1*
X928682Y1079117D1*
X928247Y1076125D1*
X928043Y1073133D1*
X927859Y1070140D1*
X927437Y1067148D1*
X926593Y1064156D1*
X925324Y1061164D1*
X923574Y1058172D1*
X921200Y1055180D1*
X918108Y1052188D1*
X914257Y1049196D1*
X909978Y1046203D1*
X936907Y1085101D2*
X939785Y1082109D1*
X942391Y1079117D1*
X944641Y1076125D1*
X946743Y1073133D1*
X948875Y1070140D1*
X969820Y1085101D2*
X964973Y1082109D1*
X960265Y1079117D1*
X955592Y1076125D1*
X950808Y1073133D1*
X945883Y1070140D1*
X978797Y1085101D2*
X980189Y1082109D1*
X981163Y1079117D1*
X982061Y1076125D1*
X983284Y1073133D1*
X984781Y1070140D1*
X1053600Y1076125D2*
X1053486Y1073133D1*
X1053102Y1070140D1*
X1052373Y1067148D1*
X1051501Y1064156D1*
X1050598Y1061164D1*
X1049604Y1058172D1*
X1048698Y1055180D1*
X1048018Y1052188D1*
X1047339Y1049196D1*
X1046488Y1046203D1*
X1045666Y1043211D1*
X1045112Y1040219D1*
X1044721Y1037227D1*
X1044210Y1034235D1*
X1043440Y1031243D1*
X1042653Y1028251D1*
X1042123Y1025259D1*
X1041843Y1022266D1*
X1041716Y1019274D1*
X1041663Y1016282D1*
X1041654Y1013290D1*
X1041761Y1010298D1*
X1042221Y1007306D1*
X1043243Y1004314D1*
X1044623Y1001322D1*
X1059584Y1076125D2*
X1070815Y1073133D1*
X1080819Y1070140D1*
X1088702Y1067148D1*
X1094240Y1064156D1*
X1098149Y1061164D1*
X1101474Y1058172D1*
X832182Y1073133D2*
X826198Y1070140D1*
X820214Y1067148D1*
X829190Y1073133D2*
X831594Y1070140D1*
X833344Y1067148D1*
X834346Y1064156D1*
X834832Y1061164D1*
X835019Y1058172D1*
X834869Y1055180D1*
X834348Y1052188D1*
X831734Y1049196D1*
X828296Y1046203D1*
X824868Y1043211D1*
X822022Y1040219D1*
X819580Y1037227D1*
X817222Y1034235D1*
X819164Y1031243D1*
X821139Y1028251D1*
X823206Y1025259D1*
X1032655Y1073133D2*
X1027259Y1070140D1*
X1022528Y1067148D1*
X1018639Y1064156D1*
X1015554Y1061164D1*
X1013197Y1058172D1*
X1011492Y1055180D1*
X1010253Y1052188D1*
X1010362Y1049196D1*
X1010431Y1046203D1*
X1009986Y1043211D1*
X1009043Y1040219D1*
X1007792Y1037227D1*
X1006293Y1034235D1*
X1004435Y1031243D1*
X1002015Y1028251D1*
X998905Y1025259D1*
X995047Y1022266D1*
X990765Y1019274D1*
X1035647Y1073133D2*
X1033231Y1070140D1*
X1031376Y1067148D1*
X1029993Y1064156D1*
X1028790Y1061164D1*
X1027801Y1058172D1*
X1027090Y1055180D1*
X1026400Y1052188D1*
X1025545Y1049196D1*
X1024710Y1046203D1*
X1024062Y1043211D1*
X1023395Y1040219D1*
X1022549Y1037227D1*
X1021728Y1034235D1*
X1021186Y1031243D1*
X1020889Y1028251D1*
X1020655Y1025259D1*
X1020220Y1022266D1*
X1019483Y1019274D1*
X1018708Y1016282D1*
X1018184Y1013290D1*
X1017905Y1010298D1*
X1017778Y1007306D1*
X1017737Y1004314D1*
X1017822Y1001322D1*
X1018208Y998329D1*
X1019051Y995337D1*
X1020428Y992345D1*
X1022619Y989353D1*
X1025848Y986361D1*
X1029663Y983369D1*
X892025Y1070140D2*
X889033Y1067148D1*
X886041Y1064156D1*
X883060Y1061164D1*
X880185Y1058172D1*
X877691Y1055180D1*
X875914Y1052188D1*
X874892Y1049196D1*
X874298Y1046203D1*
X873706Y1043211D1*
X872906Y1040219D1*
X872107Y1037227D1*
X871574Y1034235D1*
X871281Y1031243D1*
X871048Y1028251D1*
X870613Y1025259D1*
X869877Y1022266D1*
X869102Y1019274D1*
X868566Y1016282D1*
X868182Y1013290D1*
X867674Y1010298D1*
X866893Y1007306D1*
X866000Y1004314D1*
X865078Y1001322D1*
X863965Y998329D1*
X862560Y995337D1*
X860656Y992345D1*
X857917Y989353D1*
X854274Y986361D1*
X850135Y983369D1*
X898009Y1070140D2*
X897895Y1067148D1*
X897500Y1064156D1*
X896678Y1061164D1*
X895517Y1058172D1*
X894174Y1055180D1*
X892748Y1052188D1*
X891371Y1049196D1*
X890168Y1046203D1*
X889118Y1043211D1*
X888076Y1040219D1*
X887276Y1037227D1*
X886866Y1034235D1*
X888013Y1031243D1*
X889846Y1028251D1*
X892025Y1025259D1*
X960844Y1070140D2*
X957852Y1067148D1*
X954860Y1064156D1*
X951879Y1061164D1*
X949004Y1058172D1*
X946510Y1055180D1*
X944733Y1052188D1*
X943711Y1049196D1*
X943117Y1046203D1*
X942514Y1043211D1*
X941596Y1040219D1*
X940299Y1037227D1*
X938540Y1034235D1*
X936163Y1031243D1*
X933069Y1028251D1*
X929218Y1025259D1*
X924938Y1022266D1*
X966828Y1070140D2*
X966714Y1067148D1*
X966331Y1064156D1*
X965602Y1061164D1*
X964729Y1058172D1*
X963814Y1055180D1*
X962715Y1052188D1*
X961440Y1049196D1*
X960137Y1046203D1*
X958967Y1043211D1*
X957930Y1040219D1*
X956880Y1037227D1*
X955977Y1034235D1*
X955512Y1031243D1*
X955426Y1028251D1*
X956707Y1025259D1*
X958617Y1022266D1*
X960844Y1019274D1*
X987773Y1067148D2*
X984906Y1064156D1*
X982403Y1061164D1*
X980521Y1058172D1*
X979130Y1055180D1*
X977925Y1052188D1*
X976935Y1049196D1*
X976224Y1046203D1*
X975534Y1043211D1*
X974679Y1040219D1*
X973856Y1037227D1*
X973312Y1034235D1*
X973016Y1031243D1*
X972772Y1028251D1*
X972256Y1025259D1*
X971212Y1022266D1*
X969820Y1019274D1*
X996749Y1067148D2*
X996635Y1064156D1*
X996252Y1061164D1*
X995523Y1058172D1*
X994651Y1055180D1*
X993736Y1052188D1*
X992636Y1049196D1*
X991349Y1046203D1*
X989953Y1043211D1*
X988495Y1040219D1*
X987017Y1037227D1*
X985536Y1034235D1*
X984162Y1031243D1*
X983171Y1028251D1*
X982641Y1025259D1*
X983547Y1022266D1*
X984781Y1019274D1*
X856119Y1049196D2*
X851186Y1046203D1*
X847197Y1043211D1*
X844083Y1040219D1*
X841498Y1037227D1*
X839177Y1034235D1*
X836541Y1031243D1*
X833115Y1028251D1*
X829190Y1025259D1*
X859112Y1049196D2*
X858649Y1046203D1*
X857896Y1043211D1*
X857016Y1040219D1*
X856099Y1037227D1*
X854999Y1034235D1*
X853712Y1031243D1*
X852315Y1028251D1*
X850857Y1025259D1*
X849380Y1022266D1*
X847887Y1019274D1*
X846395Y1016282D1*
X844897Y1013290D1*
X843404Y1010298D1*
X841917Y1007306D1*
X840529Y1004314D1*
X839423Y1001322D1*
X838752Y998329D1*
X838425Y995337D1*
X838389Y992345D1*
X838790Y989353D1*
X839790Y986361D1*
X841159Y983369D1*
X918954Y1043211D2*
X915962Y1040219D1*
X912958Y1037227D1*
X909852Y1034235D1*
X906398Y1031243D1*
X902383Y1028251D1*
X898009Y1025259D1*
X924938Y1043211D2*
X922534Y1040219D1*
X920784Y1037227D1*
X919794Y1034235D1*
X919422Y1031243D1*
X919674Y1028251D1*
X920611Y1025259D1*
X921946Y1022266D1*
X1065568Y1040219D2*
X1065454Y1037227D1*
X1065059Y1034235D1*
X1064237Y1031243D1*
X1063088Y1028251D1*
X1061838Y1025259D1*
X1060676Y1022266D1*
X1059529Y1019274D1*
X1057985Y1016282D1*
X1055844Y1013290D1*
X1053166Y1010298D1*
X1049900Y1007306D1*
X1045963Y1004314D1*
X1041631Y1001322D1*
X1074545Y1040219D2*
X1076388Y1037227D1*
X1077978Y1034235D1*
X1079082Y1031243D1*
X1079694Y1028251D1*
X1079115Y1025259D1*
X1078347Y1022266D1*
X1077482Y1019274D1*
X1076404Y1016282D1*
X1075125Y1013290D1*
X1073720Y1010298D1*
X1072157Y1007306D1*
X1070287Y1004314D1*
X1067972Y1001322D1*
X1065309Y998329D1*
X1062339Y995337D1*
X1058796Y992345D1*
X1054161Y989353D1*
X1048241Y986361D1*
X1041631Y983369D1*
X1111887Y1351046D2*
X1106133Y1348054D1*
X1101434Y1345062D1*
X1097677Y1342070D1*
X1094680Y1339077D1*
X1092260Y1336085D1*
X1090093Y1333093D1*
X1088088Y1330101D1*
X1086476Y1327109D1*
X1085209Y1324117D1*
X1084044Y1321125D1*
X1082980Y1318133D1*
X1082001Y1315140D1*
X1080978Y1312148D1*
X1080061Y1309156D1*
X1079378Y1306164D1*
X1078628Y1303172D1*
X1077597Y1300180D1*
X1074666Y1297188D1*
X1068298Y1294196D1*
X1061431Y1291203D1*
X1055879Y1288211D1*
X1051701Y1285219D1*
X1050319Y1282227D1*
X1049583Y1279235D1*
X1049245Y1276243D1*
X1049052Y1273251D1*
X1072990D1*
X1072527Y1270259D1*
X1071785Y1267266D1*
X1070999Y1264274D1*
X1070335Y1261282D1*
X1069646Y1258290D1*
X1067699Y1255298D1*
X1063217Y1252306D1*
X1058029Y1249314D1*
X1123856Y1351046D2*
X1128778Y1348054D1*
X1132661Y1345062D1*
X1135382Y1342070D1*
X1137422Y1339077D1*
X1138127Y1336085D1*
X1138411Y1333093D1*
X1138193Y1330101D1*
X1137443Y1327109D1*
X1136310Y1324117D1*
X1134964Y1321125D1*
X1133425Y1318133D1*
X1131562Y1315140D1*
X1129251Y1312148D1*
X1126600Y1309156D1*
X1123747Y1306164D1*
X1120711Y1303172D1*
X1117360Y1300180D1*
X1113672Y1297188D1*
X1110032Y1294196D1*
X1107017Y1291203D1*
X1104622Y1288211D1*
X1103729Y1285219D1*
X1103124Y1282227D1*
X1102317Y1279235D1*
X1100750Y1276243D1*
X1098505Y1273251D1*
X1096332Y1270259D1*
X1094614Y1267266D1*
X1093109Y1264274D1*
X1091654Y1261282D1*
X1090289Y1258290D1*
X1089189Y1255298D1*
X1088472Y1252306D1*
X1087950Y1249314D1*
X1112542Y1246322D1*
X1138816Y1243329D1*
X1114879Y1339077D2*
X1112013Y1336085D1*
X1109509Y1333093D1*
X1107627Y1330101D1*
X1106236Y1327109D1*
X1105020Y1324117D1*
X1103936Y1321125D1*
X1102949Y1318133D1*
X1101935Y1315140D1*
X1101144Y1312148D1*
X1100730Y1309156D1*
X1101660Y1306164D1*
X1102911Y1303172D1*
X1117871Y1339077D2*
X1120264Y1336085D1*
X1122251Y1333093D1*
X1122867Y1330101D1*
X1122257Y1327109D1*
X1121137Y1324117D1*
X1119467Y1321125D1*
X1117235Y1318133D1*
X1114603Y1315140D1*
X1111659Y1312148D1*
X1108269Y1309156D1*
X1104279Y1306164D1*
X1099919Y1303172D1*
X812675Y1333093D2*
X808199Y1330101D1*
X804081Y1327109D1*
X800435Y1324117D1*
X797292Y1321125D1*
X795980Y1318133D1*
X795221Y1315140D1*
X794722Y1312148D1*
X821651Y1333093D2*
X823495Y1330101D1*
X825096Y1327109D1*
X826305Y1324117D1*
X827022Y1321125D1*
X827378Y1318133D1*
X827535Y1315140D1*
X827610Y1312148D1*
X827748Y1309156D1*
X828219Y1306164D1*
X829245Y1303172D1*
X830627Y1300180D1*
X980234Y1333093D2*
X975872Y1330101D1*
X972126Y1327109D1*
X969082Y1324117D1*
X966639Y1321125D1*
X964457Y1318133D1*
X962281Y1315140D1*
X986218Y1333093D2*
X988634Y1330101D1*
X990498Y1327109D1*
X991965Y1324117D1*
X993497Y1321125D1*
X995194Y1318133D1*
X1013147Y1333093D2*
X1008762Y1330101D1*
X1004797Y1327109D1*
X1000906Y1324117D1*
X996691Y1321125D1*
X992202Y1318133D1*
X1025115Y1333093D2*
X1027520Y1330101D1*
X1029269Y1327109D1*
X1030260Y1324117D1*
X1030641Y1321125D1*
X1030469Y1318133D1*
X1029825Y1315140D1*
X1028984Y1312148D1*
X1028092Y1309156D1*
X1027102Y1306164D1*
X1026232Y1303172D1*
X1025623Y1300180D1*
X1026067Y1297188D1*
X1028308Y1294196D1*
X1031100Y1291203D1*
X839604Y1330101D2*
X839592Y1327109D1*
X839487Y1324117D1*
X839105Y1321125D1*
X838389Y1318133D1*
X837610Y1315140D1*
X836960Y1312148D1*
X836071Y1309156D1*
X834710Y1306164D1*
X831395Y1303172D1*
X827635Y1300180D1*
X848580Y1330101D2*
X851695Y1327109D1*
X855152Y1324117D1*
X859167Y1321125D1*
X863541Y1318133D1*
X878501Y1330101D2*
X872982Y1327109D1*
X867764Y1324117D1*
X862678Y1321125D1*
X857556Y1318133D1*
X887478Y1330101D2*
X889882Y1327109D1*
X891620Y1324117D1*
X892789Y1321125D1*
X892690Y1318133D1*
X892120Y1315140D1*
X891319Y1312148D1*
X890444Y1309156D1*
X889460Y1306164D1*
X888582Y1303172D1*
X888122Y1300180D1*
X888031Y1297188D1*
X889106Y1294196D1*
X890470Y1291203D1*
X908423Y1330101D2*
X907041Y1327109D1*
X906182Y1324117D1*
X905747Y1321125D1*
X905543Y1318133D1*
X905359Y1315140D1*
X904937Y1312148D1*
X904093Y1309156D1*
X902824Y1306164D1*
X901074Y1303172D1*
X898700Y1300180D1*
X895608Y1297188D1*
X891757Y1294196D1*
X887478Y1291203D1*
X914407Y1330101D2*
X917285Y1327109D1*
X919891Y1324117D1*
X922141Y1321125D1*
X924243Y1318133D1*
X926375Y1315140D1*
X947320Y1330101D2*
X942473Y1327109D1*
X937765Y1324117D1*
X933092Y1321125D1*
X928308Y1318133D1*
X923383Y1315140D1*
X956297Y1330101D2*
X957689Y1327109D1*
X958663Y1324117D1*
X959561Y1321125D1*
X960784Y1318133D1*
X962281Y1315140D1*
X809682Y1318133D2*
X803698Y1315140D1*
X797714Y1312148D1*
X806690Y1318133D2*
X809094Y1315140D1*
X810844Y1312148D1*
X811846Y1309156D1*
X812332Y1306164D1*
X812519Y1303172D1*
X812369Y1300180D1*
X811848Y1297188D1*
X809234Y1294196D1*
X805796Y1291203D1*
X802368Y1288211D1*
X799522Y1285219D1*
X797080Y1282227D1*
X794722Y1279235D1*
X796664Y1276243D1*
X798639Y1273251D1*
X800706Y1270259D1*
X1010155Y1318133D2*
X1004770Y1315140D1*
X1000133Y1312148D1*
X996521Y1309156D1*
X993771Y1306164D1*
X991464Y1303172D1*
X989514Y1300180D1*
X987998Y1297188D1*
X987981Y1294196D1*
Y1291203D1*
X987506Y1288211D1*
X986551Y1285219D1*
X985294Y1282227D1*
X983794Y1279235D1*
X981935Y1276243D1*
X979515Y1273251D1*
X976405Y1270259D1*
X972547Y1267266D1*
X968265Y1264274D1*
X1013147Y1318133D2*
X1013033Y1315140D1*
X1012650Y1312148D1*
X1011921Y1309156D1*
X1011048Y1306164D1*
X1010133Y1303172D1*
X1009034Y1300180D1*
X1007759Y1297188D1*
X1006468Y1294196D1*
X1005414Y1291203D1*
X1004887Y1288211D1*
X1004796Y1285219D1*
X1006199Y1282227D1*
X1009474Y1279235D1*
X1012920Y1276243D1*
X1015914Y1273251D1*
X1017148Y1270259D1*
X1015834Y1267266D1*
X1014765Y1264274D1*
X1015253Y1261282D1*
X1016139Y1258290D1*
X869525Y1315140D2*
X866533Y1312148D1*
X863541Y1309156D1*
X860560Y1306164D1*
X857685Y1303172D1*
X855191Y1300180D1*
X853414Y1297188D1*
X852392Y1294196D1*
X851798Y1291203D1*
X851206Y1288211D1*
X850406Y1285219D1*
X849607Y1282227D1*
X849074Y1279235D1*
X848781Y1276243D1*
X848548Y1273251D1*
X848113Y1270259D1*
X847377Y1267266D1*
X846602Y1264274D1*
X846066Y1261282D1*
X845682Y1258290D1*
X845174Y1255298D1*
X844393Y1252306D1*
X843500Y1249314D1*
X842578Y1246322D1*
X841465Y1243329D1*
X840060Y1240337D1*
X838156Y1237345D1*
X835417Y1234353D1*
X831774Y1231361D1*
X827635Y1228369D1*
X875509Y1315140D2*
X875395Y1312148D1*
X875000Y1309156D1*
X874178Y1306164D1*
X873017Y1303172D1*
X871674Y1300180D1*
X870248Y1297188D1*
X868871Y1294196D1*
X867668Y1291203D1*
X866618Y1288211D1*
X865576Y1285219D1*
X864776Y1282227D1*
X864366Y1279235D1*
X865513Y1276243D1*
X867346Y1273251D1*
X869525Y1270259D1*
X938344Y1315140D2*
X935352Y1312148D1*
X932360Y1309156D1*
X929379Y1306164D1*
X926504Y1303172D1*
X924010Y1300180D1*
X922233Y1297188D1*
X921211Y1294196D1*
X920617Y1291203D1*
X920014Y1288211D1*
X919096Y1285219D1*
X917799Y1282227D1*
X916040Y1279235D1*
X913663Y1276243D1*
X910569Y1273251D1*
X906718Y1270259D1*
X902438Y1267266D1*
X944328Y1315140D2*
X944214Y1312148D1*
X943831Y1309156D1*
X943102Y1306164D1*
X942229Y1303172D1*
X941314Y1300180D1*
X940215Y1297188D1*
X938940Y1294196D1*
X937637Y1291203D1*
X936467Y1288211D1*
X935430Y1285219D1*
X934380Y1282227D1*
X933477Y1279235D1*
X933012Y1276243D1*
X932926Y1273251D1*
X934207Y1270259D1*
X936117Y1267266D1*
X938344Y1264274D1*
X965273Y1312148D2*
X962406Y1309156D1*
X959903Y1306164D1*
X958021Y1303172D1*
X956630Y1300180D1*
X955425Y1297188D1*
X954435Y1294196D1*
X953724Y1291203D1*
X953034Y1288211D1*
X952179Y1285219D1*
X951356Y1282227D1*
X950812Y1279235D1*
X950516Y1276243D1*
X950272Y1273251D1*
X949756Y1270259D1*
X948712Y1267266D1*
X947320Y1264274D1*
X974249Y1312148D2*
X974135Y1309156D1*
X973752Y1306164D1*
X973023Y1303172D1*
X972151Y1300180D1*
X971236Y1297188D1*
X970136Y1294196D1*
X968849Y1291203D1*
X967453Y1288211D1*
X965995Y1285219D1*
X964517Y1282227D1*
X963036Y1279235D1*
X961662Y1276243D1*
X960671Y1273251D1*
X960141Y1270259D1*
X961047Y1267266D1*
X962281Y1264274D1*
X1043068Y1309156D2*
X1040550Y1306164D1*
X1038393Y1303172D1*
X1036446Y1300180D1*
X1034259Y1297188D1*
X1031428Y1294196D1*
X1028108Y1291203D1*
X1046060Y1309156D2*
X1047223Y1306164D1*
X1046954Y1303172D1*
X1045517Y1300180D1*
X1043968Y1297188D1*
X1042513Y1294196D1*
X1041366Y1291203D1*
X1040675Y1288211D1*
X1040316Y1285219D1*
X1040058Y1282227D1*
X1039603Y1279235D1*
X1038746Y1276243D1*
X1037472Y1273251D1*
X1035720Y1270259D1*
X1033346Y1267266D1*
X1030253Y1264274D1*
X1026402Y1261282D1*
X1022123Y1258290D1*
X833619Y1294196D2*
X828686Y1291203D1*
X824697Y1288211D1*
X821583Y1285219D1*
X818998Y1282227D1*
X816677Y1279235D1*
X814041Y1276243D1*
X810615Y1273251D1*
X806690Y1270259D1*
X836612Y1294196D2*
X836149Y1291203D1*
X835396Y1288211D1*
X834516Y1285219D1*
X833599Y1282227D1*
X832499Y1279235D1*
X831212Y1276243D1*
X829815Y1273251D1*
X828357Y1270259D1*
X826880Y1267266D1*
X825387Y1264274D1*
X823895Y1261282D1*
X822397Y1258290D1*
X820904Y1255298D1*
X819417Y1252306D1*
X818029Y1249314D1*
X816923Y1246322D1*
X816252Y1243329D1*
X815925Y1240337D1*
X815889Y1237345D1*
X816290Y1234353D1*
X817290Y1231361D1*
X818659Y1228369D1*
X896454Y1288211D2*
X893462Y1285219D1*
X890458Y1282227D1*
X887352Y1279235D1*
X883898Y1276243D1*
X879883Y1273251D1*
X875509Y1270259D1*
X902438Y1288211D2*
X900034Y1285219D1*
X898284Y1282227D1*
X897294Y1279235D1*
X896922Y1276243D1*
X897174Y1273251D1*
X898111Y1270259D1*
X899446Y1267266D1*
X1129840Y1279235D2*
X1126006Y1276243D1*
X1123139Y1273251D1*
X1120864Y1270259D1*
X1125123Y1267266D1*
X1128579Y1264274D1*
X1131160Y1261282D1*
X1132963Y1258290D1*
X1134225Y1255298D1*
X1134286Y1252306D1*
X1127095Y1249314D1*
X1115120Y1246322D1*
X1099919Y1243329D1*
X1132832Y1279235D2*
X1137091Y1276243D1*
X1140548Y1273251D1*
X1143141Y1270259D1*
X1145060Y1267266D1*
X1146394Y1264274D1*
X1147156Y1261282D1*
X1147516Y1258290D1*
X1147573Y1255298D1*
X1147245Y1252306D1*
X1146436Y1249314D1*
X1145179Y1246322D1*
X1143446Y1243329D1*
X1141164Y1240337D1*
X1138306Y1237345D1*
X1134547Y1234353D1*
X1129575Y1231361D1*
X1123856Y1228369D1*
X1040076Y1252306D2*
X1036177Y1249314D1*
X1033196Y1246322D1*
X1031118Y1243329D1*
X1029831Y1240337D1*
X1029011Y1237345D1*
X1042232Y1234353D1*
X1058366Y1231361D1*
X1075982Y1228369D1*
X1058029Y1252306D2*
X1061021Y1249314D1*
X875135Y1223487D2*
X872949Y1221991D1*
X871023Y1220495D1*
X869315Y1218999D1*
X867781Y1217503D1*
X866489Y1216007D1*
X865533Y1214510D1*
X864832Y1213014D1*
X864228Y1211518D1*
X863738Y1210022D1*
X863429Y1208526D1*
X863222Y1207030D1*
X862962Y1205534D1*
X862582Y1204038D1*
X862240Y1202542D1*
X862166Y1201046D1*
X862384Y1199550D1*
X862704Y1198054D1*
X862938Y1196558D1*
X863061Y1195062D1*
X863062Y1193566D1*
X862838Y1192070D1*
X862240Y1190573D1*
X861247Y1189077D1*
X859940Y1187581D1*
X858318Y1186085D1*
X856354Y1184589D1*
X854190Y1183093D1*
X882615Y1223487D2*
X883818Y1221991D1*
X884692Y1220495D1*
X885188Y1218999D1*
X885378Y1217503D1*
X885287Y1216007D1*
X884918Y1214510D1*
X884353Y1213014D1*
X883687Y1211518D1*
X882970Y1210022D1*
X882230Y1208526D1*
X881432Y1207030D1*
X880496Y1205534D1*
X879401Y1204038D1*
X878376Y1202542D1*
X877563Y1201046D1*
X877589Y1199550D1*
X877781Y1198054D1*
X878003Y1196558D1*
X878294Y1195062D1*
X878701Y1193566D1*
X879111Y1192070D1*
X879433Y1190573D1*
X879765Y1189077D1*
X880194Y1187581D1*
X880669Y1186085D1*
X881245Y1184589D1*
X882021Y1183093D1*
X883707Y1181597D1*
X885608Y1180101D1*
X908049Y1198054D2*
X904654Y1196558D1*
X901801Y1195062D1*
X899396Y1193566D1*
X897202Y1192070D1*
X895178Y1190573D1*
X893364Y1189077D1*
X891709Y1187581D1*
X890136Y1186085D1*
X888554Y1184589D1*
X886816Y1183093D1*
X884804Y1181597D1*
X882615Y1180101D1*
X914033Y1198054D2*
X915466Y1196558D1*
X916712Y1195062D1*
X917600Y1193566D1*
X918105Y1192070D1*
X918344Y1190573D1*
X918396Y1189077D1*
X918248Y1187581D1*
X917905Y1186085D1*
X917521Y1184589D1*
X917210Y1183093D1*
X916881Y1181597D1*
X916454Y1180101D1*
X915991Y1178605D1*
X915524Y1177109D1*
X914970Y1175613D1*
X914331Y1174117D1*
X913680Y1172621D1*
X913090Y1171125D1*
X912530Y1169629D1*
X911843Y1168133D1*
X911041Y1166636D1*
X913238Y1165140D1*
X915529Y1163644D1*
X928993Y1196558D2*
X928303Y1195062D1*
X927873Y1193566D1*
X927650Y1192070D1*
X927501Y1190573D1*
X927271Y1189077D1*
X926898Y1187581D1*
X926509Y1186085D1*
X926246Y1184589D1*
X926101Y1183093D1*
X925985Y1181597D1*
X925768Y1180101D1*
X925400Y1178605D1*
X925006Y1177109D1*
X924686Y1175613D1*
X924297Y1174117D1*
X923626Y1172621D1*
X922603Y1171125D1*
X921277Y1169629D1*
X919577Y1168133D1*
X917288Y1166636D1*
X914340Y1165140D1*
X911041Y1163644D1*
X934978Y1196558D2*
X937102Y1195062D1*
X938777Y1193566D1*
X940072Y1192070D1*
X940532Y1190573D1*
X940779Y1189077D1*
X940891Y1187581D1*
X940930Y1186085D1*
X940894Y1184589D1*
X940710Y1183093D1*
X940353Y1181597D1*
X939965Y1180101D1*
X939651Y1178605D1*
X939322Y1177109D1*
X938895Y1175613D1*
X938432Y1174117D1*
X937965Y1172621D1*
X937411Y1171125D1*
X936771Y1169629D1*
X936112Y1168133D1*
X935509Y1166636D1*
X934978Y1165140D1*
X939466Y1163644D1*
X1009781Y1196558D2*
X1006335Y1195062D1*
X1003343Y1193566D1*
X1000770Y1192070D1*
X998550Y1190573D1*
X996649Y1189077D1*
X994958Y1187581D1*
X993377Y1186085D1*
X991848Y1184589D1*
X990345Y1183093D1*
X988897Y1181597D1*
X987590Y1180101D1*
X986457Y1178605D1*
X985403Y1177109D1*
X984417Y1175613D1*
X983673Y1174117D1*
X983162Y1172621D1*
X983270Y1171125D1*
X983706Y1169629D1*
X984348Y1168133D1*
X1015765Y1196558D2*
X1017198Y1195062D1*
X1018444Y1193566D1*
X1019333Y1192070D1*
X1019838Y1190573D1*
X1020076Y1189077D1*
X1020129Y1187581D1*
X1019980Y1186085D1*
X1019637Y1184589D1*
X1019254Y1183093D1*
X1018942Y1181597D1*
X1018613Y1180101D1*
X1018186Y1178605D1*
X1017723Y1177109D1*
X1017256Y1175613D1*
X1016703Y1174117D1*
X1016064Y1172621D1*
X1015418Y1171125D1*
X1014897Y1169629D1*
X1014541Y1168133D1*
X1014751Y1166636D1*
X1015868Y1165140D1*
X1017261Y1163644D1*
X1062143Y1196558D2*
X1059388Y1195062D1*
X1056825Y1193566D1*
X1054470Y1192070D1*
X1052347Y1190573D1*
X1050479Y1189077D1*
X1048745Y1187581D1*
X1046939Y1186085D1*
X1044898Y1184589D1*
X1042694Y1183093D1*
X1069623Y1196558D2*
X1070831Y1195062D1*
X1071759Y1193566D1*
X1072445Y1192070D1*
X1072993Y1190573D1*
X1073424Y1189077D1*
X1073269Y1187581D1*
X1073015Y1186085D1*
X1072811Y1184589D1*
X1072646Y1183093D1*
X1072403Y1181597D1*
X1072016Y1180101D1*
X1071571Y1178605D1*
X1071116Y1177109D1*
X1070618Y1175613D1*
X1070171Y1174117D1*
X1069883Y1172621D1*
X1069740Y1171125D1*
X1069730Y1169629D1*
X1069934Y1168133D1*
X1070434Y1166636D1*
X1071119Y1165140D1*
X1070372Y1163644D1*
X1069745Y1162148D1*
X1069110Y1160652D1*
X1068387Y1159156D1*
X1067532Y1157660D1*
X1066572Y1156164D1*
X1065557Y1154668D1*
X1064326Y1153172D1*
X1062706Y1151676D1*
X1060742Y1150180D1*
X1058522Y1148684D1*
X1056159Y1147188D1*
X951434Y1195062D2*
X950744Y1193566D1*
X950314Y1192070D1*
X950097Y1190573D1*
X950000Y1189077D1*
X949955Y1187581D1*
X949888Y1186085D1*
X949692Y1184589D1*
X949332Y1183093D1*
X948948Y1181597D1*
X948686Y1180101D1*
X948542Y1178605D1*
X948426Y1177109D1*
X948203Y1175613D1*
X947776Y1174117D1*
X947140Y1172621D1*
X946270Y1171125D1*
X945123Y1169629D1*
X943636Y1168133D1*
X941526Y1166636D1*
X938528Y1165140D1*
X934978Y1163644D1*
X957419Y1195062D2*
X959368Y1193566D1*
X960870Y1192070D1*
X962000Y1190573D1*
X962914Y1189077D1*
X963677Y1187581D1*
X964256Y1186085D1*
X964602Y1184589D1*
X964768Y1183093D1*
X964792Y1181597D1*
X964632Y1180101D1*
X964285Y1178605D1*
X963900Y1177109D1*
X963588Y1175613D1*
X963259Y1174117D1*
X962837Y1172621D1*
X962428Y1171125D1*
X962157Y1169629D1*
X962014Y1168133D1*
X961949Y1166636D1*
X961923Y1165140D1*
X961913Y1163644D1*
X961903Y1162148D1*
X961849Y1160652D1*
X961652Y1159156D1*
X961235Y1157660D1*
X960602Y1156164D1*
X959728Y1154668D1*
X958534Y1153172D1*
X956913Y1151676D1*
X954663Y1150180D1*
X951732Y1148684D1*
X948442Y1147188D1*
X1029230Y1195062D2*
X1028539Y1193566D1*
X1028109Y1192070D1*
X1027892Y1190573D1*
X1027796Y1189077D1*
X1027756Y1187581D1*
X1027742Y1186085D1*
X1027731Y1184589D1*
X1027676Y1183093D1*
X1027485Y1181597D1*
X1027126Y1180101D1*
X1026743Y1178605D1*
X1026476Y1177109D1*
X1026279Y1175613D1*
X1025966Y1174117D1*
X1025332Y1172621D1*
X1024331Y1171125D1*
X1023064Y1169629D1*
X1021558Y1168133D1*
X1019641Y1166636D1*
X1017138Y1165140D1*
X1014269Y1163644D1*
X1035214Y1195062D2*
X1036984Y1193566D1*
X1038502Y1192070D1*
X1039698Y1190573D1*
X1040668Y1189077D1*
X1041515Y1187581D1*
X1042342Y1186085D1*
X1043230Y1184589D1*
X1044190Y1183093D1*
X843718Y1186085D2*
X843027Y1184589D1*
X842598Y1183093D1*
X842398Y1181597D1*
X842330Y1180101D1*
X842801Y1178605D1*
X844233Y1177109D1*
X845731Y1175613D1*
X846964Y1174117D1*
X847183Y1172621D1*
X846780Y1171125D1*
X846212Y1169629D1*
X845540Y1168133D1*
X844824Y1166636D1*
X844091Y1165140D1*
X843401Y1163644D1*
X842850Y1162148D1*
X842520Y1160652D1*
X842403Y1159156D1*
X842525Y1157660D1*
X842906Y1156164D1*
X843474Y1154668D1*
X844153Y1153172D1*
X844980Y1151676D1*
X846138Y1150180D1*
X847780Y1148684D1*
X849702Y1147188D1*
Y1186085D2*
X854892Y1184589D1*
X860175Y1183093D1*
X899072Y1184589D2*
X897576Y1183093D1*
X896080Y1181597D1*
X894584Y1180101D1*
X893088Y1178605D1*
X891592Y1177109D1*
X890102Y1175613D1*
X888664Y1174117D1*
X887417Y1172621D1*
X886528Y1171125D1*
X886023Y1169629D1*
X885779Y1168133D1*
X885674Y1166636D1*
X885632Y1165140D1*
X885610Y1163644D1*
X885552Y1162148D1*
X885359Y1160652D1*
X884995Y1159156D1*
X884552Y1157660D1*
X884048Y1156164D1*
X883355Y1154668D1*
X882491Y1153172D1*
X881565Y1151676D1*
X880490Y1150180D1*
X879044Y1148684D1*
X877099Y1147188D1*
X874718Y1145692D1*
X872143Y1144196D1*
X903560Y1184589D2*
X903503Y1183093D1*
X903312Y1181597D1*
X902947Y1180101D1*
X902511Y1178605D1*
X902054Y1177109D1*
X901504Y1175613D1*
X900866Y1174117D1*
X900215Y1172621D1*
X899630Y1171125D1*
X899105Y1169629D1*
X898528Y1168133D1*
X897880Y1166636D1*
X897225Y1165140D1*
X896638Y1163644D1*
X896119Y1162148D1*
X895594Y1160652D1*
X895137Y1159156D1*
X894846Y1157660D1*
X894696Y1156164D1*
X894628Y1154668D1*
X894606Y1153172D1*
X894660Y1151676D1*
X894813Y1150180D1*
X895562Y1148684D1*
X897203Y1147188D1*
X899072Y1145692D1*
X1002301Y1183093D2*
X999602Y1181597D1*
X997231Y1180101D1*
X995240Y1178605D1*
X993554Y1177109D1*
X992143Y1175613D1*
X990964Y1174117D1*
X989836Y1172621D1*
X988596Y1171125D1*
X987244Y1169629D1*
X985844Y1168133D1*
X1005293Y1183093D2*
X1005236Y1181597D1*
X1005044Y1180101D1*
X1004679Y1178605D1*
X1004243Y1177109D1*
X1003786Y1175613D1*
X1003236Y1174117D1*
X1002598Y1172621D1*
X1001947Y1171125D1*
X1001362Y1169629D1*
X1000838Y1168133D1*
X1000260Y1166636D1*
X999612Y1165140D1*
X998957Y1163644D1*
X998371Y1162148D1*
X997851Y1160652D1*
X997327Y1159156D1*
X996869Y1157660D1*
X996578Y1156164D1*
X996434Y1154668D1*
X996419Y1153172D1*
X996593Y1151676D1*
X997055Y1150180D1*
X997901Y1148684D1*
X999206Y1147188D1*
X1000804Y1145692D1*
X1053167Y1181597D2*
X1051671Y1180101D1*
X1050175Y1178605D1*
X1048678Y1177109D1*
X1047182Y1175613D1*
X1045692Y1174117D1*
X1044249Y1172621D1*
X1042944Y1171125D1*
X1041819Y1169629D1*
X1040768Y1168133D1*
X1039702Y1166636D1*
X1040387Y1165140D1*
X1040764Y1163644D1*
X1040791Y1162148D1*
X1040523Y1160652D1*
X1040120Y1159156D1*
X1039631Y1157660D1*
X1038942Y1156164D1*
X1038080Y1154668D1*
X1037161Y1153172D1*
X1036138Y1151676D1*
X1034889Y1150180D1*
X1033354Y1148684D1*
X1031556Y1147188D1*
X1029644Y1145692D1*
X1027734Y1144196D1*
X1057655Y1181597D2*
X1057649Y1180101D1*
X1057596Y1178605D1*
X1057400Y1177109D1*
X1056989Y1175613D1*
X1056415Y1174117D1*
X1055790Y1172621D1*
X1055215Y1171125D1*
X1054694Y1169629D1*
X1054118Y1168133D1*
X1053470Y1166636D1*
X1052815Y1165140D1*
X1052229Y1163644D1*
X1051710Y1162148D1*
X1051179Y1160652D1*
X1050669Y1159156D1*
X1050187Y1157660D1*
X1049679Y1156164D1*
X1049233Y1154668D1*
X1049003Y1153172D1*
X1048961Y1151676D1*
X1049602Y1150180D1*
X1050557Y1148684D1*
X1051671Y1147188D1*
X864663Y1180101D2*
X863173Y1178605D1*
X861735Y1177109D1*
X860488Y1175613D1*
X859599Y1174117D1*
X859094Y1172621D1*
X858850Y1171125D1*
X858745Y1169629D1*
X858703Y1168133D1*
X858687Y1166636D1*
X858681Y1165140D1*
X858674Y1163644D1*
X858620Y1162148D1*
X858429Y1160652D1*
X858071Y1159156D1*
X857682Y1157660D1*
X857368Y1156164D1*
X857033Y1154668D1*
X856553Y1153172D1*
X855894Y1151676D1*
X855020Y1150180D1*
X853913Y1148684D1*
X852694Y1147188D1*
X866159Y1180101D2*
X866390Y1178605D1*
X866761Y1177109D1*
X867148Y1175613D1*
X867416Y1174117D1*
X867608Y1172621D1*
X867862Y1171125D1*
X868247Y1169629D1*
X868640Y1168133D1*
X868905Y1166636D1*
X869045Y1165140D1*
X869109Y1163644D1*
X869129Y1162148D1*
X869087Y1160652D1*
X868894Y1159156D1*
X868479Y1157660D1*
X867846Y1156164D1*
X866984Y1154668D1*
X865913Y1153172D1*
X864846Y1151676D1*
X864043Y1150180D1*
X863493Y1148684D1*
X863592Y1147188D1*
X864024Y1145692D1*
X864663Y1144196D1*
X918521Y1160652D2*
X917256Y1159156D1*
X916131Y1157660D1*
X915022Y1156164D1*
X913788Y1154668D1*
X912425Y1153172D1*
X910940Y1151676D1*
X909279Y1150180D1*
X907422Y1148684D1*
X905484Y1147188D1*
X903560Y1145692D1*
X920017Y1160652D2*
X920011Y1159156D1*
X919954Y1157660D1*
X919723Y1156164D1*
X919212Y1154668D1*
X918521Y1153172D1*
X919334Y1151676D1*
X920230Y1150180D1*
X921482Y1148684D1*
X923009Y1147188D1*
X942458Y1160652D2*
X941019Y1159156D1*
X939715Y1157660D1*
X938577Y1156164D1*
X937459Y1154668D1*
X936165Y1153172D1*
X934559Y1151676D1*
X932525Y1150180D1*
X930099Y1148684D1*
X927497Y1147188D1*
X945450Y1160652D2*
X944248Y1159156D1*
X943367Y1157660D1*
X942809Y1156164D1*
X942335Y1154668D1*
X941714Y1153172D1*
X940962Y1151676D1*
X941933Y1150180D1*
X942920Y1148684D1*
X943954Y1147188D1*
X1021749Y1160652D2*
X1020484Y1159156D1*
X1019359Y1157660D1*
X1018251Y1156164D1*
X1017017Y1154668D1*
X1015654Y1153172D1*
X1014163Y1151676D1*
X1012444Y1150180D1*
X1010356Y1148684D1*
X1007907Y1147188D1*
X1005293Y1145692D1*
X1023245Y1160652D2*
X1023014Y1159156D1*
X1022643Y1157660D1*
X1022256Y1156164D1*
X1021994Y1154668D1*
X1021855Y1153172D1*
X1021791Y1151676D1*
X1021765Y1150180D1*
X1021755Y1148684D1*
X1021751Y1147188D1*
X1021750Y1145692D1*
X1021749Y1144196D1*
X1047182Y1136715D2*
X1045923Y1135219D1*
X1044851Y1133723D1*
X1043939Y1132227D1*
X1043121Y1130731D1*
X1042397Y1129235D1*
X1041833Y1127739D1*
X1041499Y1126243D1*
X1041386Y1124747D1*
X1041433Y1123251D1*
X1042166Y1121755D1*
X1043400Y1120259D1*
X1045154Y1118762D1*
X1047182Y1117266D1*
X1051671Y1136715D2*
X1052592Y1135219D1*
X1053393Y1133723D1*
X1053998Y1132227D1*
X1054356Y1130731D1*
X1054534Y1129235D1*
X1054607Y1127739D1*
X1054586Y1126243D1*
X1054407Y1124747D1*
X1054047Y1123251D1*
X1053608Y1121755D1*
X1053115Y1120259D1*
X1052458Y1118762D1*
X1051671Y1117266D1*
X3256159Y1439491D2*
X3252770Y1437995D1*
X3249969Y1436499D1*
X3247755Y1435003D1*
X3245925Y1433507D1*
X3244343Y1432010D1*
X3243034Y1430514D1*
X3242072Y1429018D1*
X3241369Y1427522D1*
X3240764Y1426026D1*
X3240274Y1424530D1*
X3239971Y1423034D1*
X3239816Y1421538D1*
X3239747Y1420042D1*
X3239725Y1418546D1*
X3239766Y1417050D1*
X3239959Y1415554D1*
X3240369Y1414058D1*
X3240948Y1412562D1*
X3241626Y1411066D1*
X3242397Y1409570D1*
X3243335Y1408073D1*
X3244555Y1406577D1*
X3246200Y1405081D1*
X3248590Y1403585D1*
X3252110Y1402089D1*
X3256814Y1400593D1*
X3262143Y1399097D1*
X3261447Y1397601D1*
X3260964Y1396105D1*
X3260556Y1394609D1*
X3260101Y1393113D1*
X3259675Y1391617D1*
X3259376Y1390121D1*
X3259151Y1388625D1*
X3266631Y1439491D2*
X3269740Y1437995D1*
X3272460Y1436499D1*
X3274708Y1435003D1*
X3276403Y1433507D1*
X3277749Y1432010D1*
X3276846Y1430514D1*
X3275560Y1429018D1*
X3274112Y1427522D1*
X3260647Y1433507D2*
X3256753Y1432010D1*
X3253559Y1430514D1*
X3251258Y1429018D1*
X3249692Y1427522D1*
X3248619Y1426026D1*
X3247907Y1424530D1*
X3247510Y1423034D1*
X3247318Y1421538D1*
X3247241Y1420042D1*
X3247260Y1418546D1*
X3247444Y1417050D1*
X3247856Y1415554D1*
X3248499Y1414058D1*
X3249307Y1412562D1*
X3250962Y1411066D1*
X3255263Y1409570D1*
X3261757Y1408073D1*
X3269623Y1406577D1*
X3260647Y1433507D2*
X3264548Y1432010D1*
X3267804Y1430514D1*
X3270371Y1429018D1*
X3272615Y1427522D1*
X3266631Y1408073D2*
X3265135Y1406577D1*
X3271119Y1408073D2*
X3270608Y1406577D1*
X3270157Y1405081D1*
X3269821Y1403585D1*
X3269483Y1402089D1*
X3269053Y1400593D1*
X3268590Y1399097D1*
X3268128Y1397601D1*
X3267621Y1396105D1*
X3267120Y1394609D1*
X3266642Y1393113D1*
X3266135Y1391617D1*
X3265678Y1390121D1*
X3265337Y1388625D1*
X3264996Y1387129D1*
X3264558Y1385633D1*
X3264084Y1384136D1*
X3263639Y1382640D1*
X3241198Y1388625D2*
Y1387129D1*
Y1385633D1*
Y1384136D1*
Y1382640D1*
X3249663Y1564491D2*
X3246560Y1562995D1*
X3243886Y1561499D1*
X3241765Y1560003D1*
X3240230Y1558507D1*
X3239144Y1557010D1*
X3238371Y1555514D1*
X3237777Y1554018D1*
X3237224Y1552522D1*
X3236756Y1551026D1*
X3236462Y1549530D1*
X3236316Y1548034D1*
X3236301Y1546538D1*
X3236470Y1545042D1*
X3236876Y1543546D1*
X3237505Y1542050D1*
X3238372Y1540554D1*
X3239501Y1539058D1*
X3240816Y1537562D1*
X3242230Y1536066D1*
X3243678Y1534570D1*
X3242239Y1533073D1*
X3240941Y1531577D1*
X3239862Y1530081D1*
X3238999Y1528585D1*
X3238371Y1527089D1*
X3238005Y1525593D1*
X3237824Y1524097D1*
X3237745Y1522601D1*
X3237719Y1521105D1*
X3237765Y1519609D1*
X3238004Y1518113D1*
X3238557Y1516617D1*
X3239363Y1515121D1*
X3240315Y1513625D1*
X3241571Y1512129D1*
X3243365Y1510633D1*
X3245655Y1509136D1*
X3248167Y1507640D1*
X3260135Y1564491D2*
X3262827Y1562995D1*
X3265146Y1561499D1*
X3266946Y1560003D1*
X3268275Y1558507D1*
X3269296Y1557010D1*
X3270156Y1555514D1*
X3270897Y1554018D1*
X3271471Y1552522D1*
X3271838Y1551026D1*
X3272104Y1549530D1*
X3252655Y1558507D2*
X3250014Y1557010D1*
X3247840Y1555514D1*
X3246260Y1554018D1*
X3245154Y1552522D1*
X3244421Y1551026D1*
X3244013Y1549530D1*
X3243822Y1548034D1*
X3243796Y1546538D1*
X3244011Y1545042D1*
X3244462Y1543546D1*
X3245779Y1542050D1*
X3247765Y1540554D1*
X3250347Y1539058D1*
X3252730Y1537562D1*
X3254546Y1536066D1*
X3255138Y1534570D1*
X3255199Y1533073D1*
X3252866Y1531577D1*
X3250272Y1530081D1*
X3248007Y1528585D1*
X3246345Y1527089D1*
X3245197Y1525593D1*
X3244333Y1524097D1*
X3244233Y1522601D1*
X3244486Y1521105D1*
X3244968Y1519609D1*
X3246089Y1518113D1*
X3249270Y1516617D1*
X3254162Y1515121D1*
X3260135Y1513625D1*
X3255647Y1558507D2*
X3258339Y1557010D1*
X3260652Y1555514D1*
X3262400Y1554018D1*
X3263730Y1552522D1*
X3264234Y1551026D1*
X3264623Y1549530D1*
X3263127Y1521105D2*
X3262293Y1519609D1*
X3261220Y1518113D1*
X3258577Y1516617D1*
X3254571Y1515121D1*
X3249663Y1513625D1*
X3270608Y1521105D2*
X3270039Y1519609D1*
X3269396Y1518113D1*
X3268696Y1516617D1*
X3267911Y1515121D1*
X3266918Y1513625D1*
X3265512Y1512129D1*
X3263585Y1510633D1*
X3261210Y1509136D1*
X3258639Y1507640D1*
X2457591Y872751D2*
D13*
Y871766D1*
Y870782D1*
Y869798D1*
Y868814D1*
Y867829D1*
Y866845D1*
Y865861D1*
Y864877D1*
Y863892D1*
Y862908D1*
Y861924D1*
Y860940D1*
Y859955D1*
Y858971D1*
Y857987D1*
Y857003D1*
Y856018D1*
Y855034D1*
Y854050D1*
Y853066D1*
Y852081D1*
Y851097D1*
Y850113D1*
Y849129D1*
Y848144D1*
X2460543Y872751D2*
Y871766D1*
Y870782D1*
Y869798D1*
Y868814D1*
Y867829D1*
Y866845D1*
Y865861D1*
Y864877D1*
Y863892D1*
Y862908D1*
Y861924D1*
X2488102D2*
Y860940D1*
Y859955D1*
Y858971D1*
X2460543D2*
Y857987D1*
Y857003D1*
Y856018D1*
Y855034D1*
Y854050D1*
Y853066D1*
Y852081D1*
Y851097D1*
Y850113D1*
Y849129D1*
Y848144D1*
X2457591Y845192D2*
Y844207D1*
Y843223D1*
Y842239D1*
Y841255D1*
Y840270D1*
Y839286D1*
Y838302D1*
Y837318D1*
Y836333D1*
Y835349D1*
Y834365D1*
Y833381D1*
Y832396D1*
Y831412D1*
Y830428D1*
Y829444D1*
Y828459D1*
Y827475D1*
Y826491D1*
X2460543Y845192D2*
Y844207D1*
Y843223D1*
Y842239D1*
Y841255D1*
Y840270D1*
Y839286D1*
Y838302D1*
Y837318D1*
Y836333D1*
Y835349D1*
Y834365D1*
Y833381D1*
Y832396D1*
Y831412D1*
X2469402Y830428D1*
X2485150Y845192D2*
Y844207D1*
Y843223D1*
Y842239D1*
Y841255D1*
Y840270D1*
Y839286D1*
Y838302D1*
Y837318D1*
Y836333D1*
Y835349D1*
Y834365D1*
Y833381D1*
Y832396D1*
Y831412D1*
X2474323Y830428D1*
X2488102Y845192D2*
Y844207D1*
Y843223D1*
Y842239D1*
Y841255D1*
Y840270D1*
Y839286D1*
Y838302D1*
Y837318D1*
Y836333D1*
Y835349D1*
Y834365D1*
Y833381D1*
Y832396D1*
Y831412D1*
Y830428D1*
Y829444D1*
Y828459D1*
Y827475D1*
Y826491D1*
X2470386Y844207D2*
Y843223D1*
Y842239D1*
Y841255D1*
Y840270D1*
Y839286D1*
Y838302D1*
Y837318D1*
Y836333D1*
Y835349D1*
Y834365D1*
Y833381D1*
Y832396D1*
Y831412D1*
X2461528Y830428D1*
X2473339Y844207D2*
Y843223D1*
Y842239D1*
Y841255D1*
Y840270D1*
Y839286D1*
Y838302D1*
Y837318D1*
Y836333D1*
Y835349D1*
Y834365D1*
Y833381D1*
Y832396D1*
Y831412D1*
X2484165Y830428D1*
X2457591Y821570D2*
Y820585D1*
Y819601D1*
Y818617D1*
Y817633D1*
Y816648D1*
Y815664D1*
Y814680D1*
Y813696D1*
Y812711D1*
Y811727D1*
Y810743D1*
Y809759D1*
Y808774D1*
Y807790D1*
Y806806D1*
Y805822D1*
Y804837D1*
Y803853D1*
X2460543Y821570D2*
Y820585D1*
Y819601D1*
Y818617D1*
Y817633D1*
Y816648D1*
Y815664D1*
Y814680D1*
Y813696D1*
Y812711D1*
Y811727D1*
Y810743D1*
Y809759D1*
Y808774D1*
X2469402Y807790D1*
X2470386Y821570D2*
Y820585D1*
Y819601D1*
Y818617D1*
Y817633D1*
Y816648D1*
Y815664D1*
Y814680D1*
Y813696D1*
Y812711D1*
Y811727D1*
Y810743D1*
Y809759D1*
Y808774D1*
X2461528Y807790D1*
X2473339Y821570D2*
Y820585D1*
Y819601D1*
Y818617D1*
Y817633D1*
Y816648D1*
Y815664D1*
Y814680D1*
Y813696D1*
Y812711D1*
Y811727D1*
Y810743D1*
Y809759D1*
Y808774D1*
Y807790D1*
X2488102D2*
Y806806D1*
Y805822D1*
Y804837D1*
Y803853D1*
X2476291Y797948D2*
X2475345Y796963D1*
X2474490Y795979D1*
X2473780Y794995D1*
X2473209Y794010D1*
X2472761Y793026D1*
X2472395Y792042D1*
X2472040Y791058D1*
X2471732Y790073D1*
X2471504Y789089D1*
X2471276Y788105D1*
X2470961Y787121D1*
X2470557Y786136D1*
X2470055Y785152D1*
X2469444Y784168D1*
X2467849Y783184D1*
X2465433Y782199D1*
X2462512Y781215D1*
X2484165Y797948D2*
X2485146Y796963D1*
X2486095Y795979D1*
X2486950Y794995D1*
X2487660Y794010D1*
X2488228Y793026D1*
X2488641Y792042D1*
X2488882Y791058D1*
X2489001Y790073D1*
X2489053Y789089D1*
X2489074Y788105D1*
X2489082Y787121D1*
X2489085Y786136D1*
X2489082Y785152D1*
X2489048Y784168D1*
X2488923Y783184D1*
X2488683Y782199D1*
X2488393Y781215D1*
X2488069Y780231D1*
X2487636Y779247D1*
X2487118Y778262D1*
X2458575Y796963D2*
X2458238Y795979D1*
X2457942Y794995D1*
X2457720Y794010D1*
X2457499Y793026D1*
X2457219Y792042D1*
X2456949Y791058D1*
X2456771Y790073D1*
X2456681Y789089D1*
X2456673Y788105D1*
X2456781Y787121D1*
X2457013Y786136D1*
X2457298Y785152D1*
X2457598Y784168D1*
X2457963Y783184D1*
X2458425Y782199D1*
X2459051Y781215D1*
X2459952Y780231D1*
X2461151Y779247D1*
X2462512Y778262D1*
Y796963D2*
X2462020Y795979D1*
X2461611Y794995D1*
X2461228Y794010D1*
X2460878Y793026D1*
X2460555Y792042D1*
X2460222Y791058D1*
X2459959Y790073D1*
X2459815Y789089D1*
X2460016Y788105D1*
X2460273Y787121D1*
X2460564Y786136D1*
X2460973Y785152D1*
X2461519Y784168D1*
X2463096Y783184D1*
X2465502Y782199D1*
X2468417Y781215D1*
X2480228Y794995D2*
X2478609Y794010D1*
X2477332Y793026D1*
X2476433Y792042D1*
X2475826Y791058D1*
X2475391Y790073D1*
X2475009Y789089D1*
X2474690Y788105D1*
X2474459Y787121D1*
X2474233Y786136D1*
X2473949Y785152D1*
X2473639Y784168D1*
X2473297Y783184D1*
X2472800Y782199D1*
X2472068Y781215D1*
X2471075Y780231D1*
X2469819Y779247D1*
X2468417Y778262D1*
X2481213Y794995D2*
X2482832Y794010D1*
X2484109Y793026D1*
X2485004Y792042D1*
X2485675Y791058D1*
X2485911Y790073D1*
X2486039Y789089D1*
X2486097Y788105D1*
X2486116Y787121D1*
X2486091Y786136D1*
X2485968Y785152D1*
X2485730Y784168D1*
X2485443Y783184D1*
X2485142Y782199D1*
X2484778Y781215D1*
X2484329Y780231D1*
X2483788Y779247D1*
X2483181Y778262D1*
X2470386Y774325D2*
X2467210Y773341D1*
X2464680Y772357D1*
X2462736Y771373D1*
X2461274Y770388D1*
X2460212Y769404D1*
X2459370Y768420D1*
X2458659Y767436D1*
X2458137Y766451D1*
X2457803Y765467D1*
X2457531Y764483D1*
X2457231Y763499D1*
X2456953Y762514D1*
X2456776Y761530D1*
X2456716Y760546D1*
X2456798Y759562D1*
X2457016Y758577D1*
X2457266Y757593D1*
X2457474Y756609D1*
X2457724Y755625D1*
X2458130Y754640D1*
X2458678Y753656D1*
X2459307Y752672D1*
X2460105Y751688D1*
X2461211Y750703D1*
X2462749Y749719D1*
X2464957Y748735D1*
X2467950Y747751D1*
X2471370Y746766D1*
X2476291Y774325D2*
X2479312Y773341D1*
X2481730Y772357D1*
X2483516Y771373D1*
X2484880Y770388D1*
X2485993Y769404D1*
X2486913Y768420D1*
X2487647Y767436D1*
X2488224Y766451D1*
X2488640Y765467D1*
X2488882Y764483D1*
X2489001Y763499D1*
X2489053Y762514D1*
X2489074Y761530D1*
X2489082Y760546D1*
X2489085Y759562D1*
X2489082Y758577D1*
X2489048Y757593D1*
X2488919Y756609D1*
X2488645Y755625D1*
X2488228Y754640D1*
X2487657Y753656D1*
X2486910Y752672D1*
X2486006Y751688D1*
X2484899Y750703D1*
X2483423Y749719D1*
X2481340Y748735D1*
X2478533Y747751D1*
X2475307Y746766D1*
X2470386Y770388D2*
X2467786Y769404D1*
X2465559Y768420D1*
X2463809Y767436D1*
X2462527Y766451D1*
X2461645Y765467D1*
X2461051Y764483D1*
X2460622Y763499D1*
X2460247Y762514D1*
X2459968Y761530D1*
X2459816Y760546D1*
X2460016Y759562D1*
X2460277Y758577D1*
X2460598Y757593D1*
X2461083Y756609D1*
X2461782Y755625D1*
X2462742Y754640D1*
X2463959Y753656D1*
X2467716Y752672D1*
X2473734Y751688D1*
X2481213Y750703D1*
X2476291Y770388D2*
X2478857Y769404D1*
X2480989Y768420D1*
X2482598Y767436D1*
X2483772Y766451D1*
X2484621Y765467D1*
X2485244Y764483D1*
X2485678Y763499D1*
X2485926Y762514D1*
X2486047Y761530D1*
X2486096Y760546D1*
X2486083Y759562D1*
X2485962Y758577D1*
X2485690Y757593D1*
X2485271Y756609D1*
X2484662Y755625D1*
X2483713Y754640D1*
X2482440Y753656D1*
X2478880Y752672D1*
X2473325Y751688D1*
X2466449Y750703D1*
X2457591Y741845D2*
Y740861D1*
X2457594Y739877D1*
X2457637Y738892D1*
X2457740Y737908D1*
X2458238Y736924D1*
X2459451Y735940D1*
X2461083Y734955D1*
X2463069Y733971D1*
X2465230Y732987D1*
X2467450Y732003D1*
X2469657Y731018D1*
X2471613Y730034D1*
X2473111Y729050D1*
X2474323Y728066D1*
X2471900Y727081D1*
X2469645Y726097D1*
X2467499Y725113D1*
X2465345Y724129D1*
X2463158Y723144D1*
X2461129Y722160D1*
X2459549Y721176D1*
X2458360Y720192D1*
X2457960Y719207D1*
X2457746Y718223D1*
X2457651Y717239D1*
X2457611Y716255D1*
X2457591Y715270D1*
X2488102Y741845D2*
Y740861D1*
Y739877D1*
Y738892D1*
Y737908D1*
X2461528D2*
X2463534Y736924D1*
X2465628Y735940D1*
X2467833Y734955D1*
X2470057Y733971D1*
X2472224Y732987D1*
X2474333Y732003D1*
X2476251Y731018D1*
X2477905Y730034D1*
X2478669Y729050D1*
X2479007Y728066D1*
X2478064Y727081D1*
X2476694Y726097D1*
X2474916Y725113D1*
X2472851Y724129D1*
X2470686Y723144D1*
X2468567Y722160D1*
X2466514Y721176D1*
X2464507Y720192D1*
X2462521Y719207D1*
X2460543Y718223D1*
X2488102D2*
Y717239D1*
Y716255D1*
Y715270D1*
X2443593Y422486D2*
D140*
Y452630D1*
X2433545D1*
X2429234Y451171D1*
X2426349Y448319D1*
X2424923Y445434D1*
X2423497Y441156D1*
Y433960D1*
X2424923Y429649D1*
X2426349Y426797D1*
X2429234Y423912D1*
X2433545Y422486D1*
X2443593D1*
X2414234Y428256D2*
X2411349Y426797D1*
X2407038Y422519D1*
Y452630D1*
X2552919Y424986D2*
Y455130D1*
X2542871D1*
X2538560Y453671D1*
X2535675Y450819D1*
X2534249Y447934D1*
X2532823Y443656D1*
Y436460D1*
X2534249Y432149D1*
X2535675Y429297D1*
X2538560Y426412D1*
X2542871Y424986D1*
X2552919D1*
X2509200Y455130D2*
Y425019D1*
X2523559Y445082D1*
X2502037D1*
X2351494Y424986D2*
Y455130D1*
X2341446D1*
X2337135Y453671D1*
X2334250Y450819D1*
X2332824Y447934D1*
X2331398Y443656D1*
Y436460D1*
X2332824Y432149D1*
X2334250Y429297D1*
X2337135Y426412D1*
X2341446Y424986D1*
X2351494D1*
X2313512Y425019D2*
X2317823Y426445D1*
X2320708Y430756D1*
X2322134Y437919D1*
Y442230D1*
X2320708Y449393D1*
X2317823Y453704D1*
X2313512Y455130D1*
X2310660D1*
X2306349Y453704D1*
X2303497Y449393D1*
X2302038Y442230D1*
Y437919D1*
X2303497Y430756D1*
X2306349Y426445D1*
X2310660Y425019D1*
X2313512D1*
X2303497Y430756D2*
X2320708Y449393D1*
X2218802Y455130D2*
Y424986D1*
X2230276Y455130D1*
X2241750Y424986D1*
Y455130D1*
X2209538Y424986D2*
Y455130D1*
X2129249D2*
Y424986D1*
X2140723Y455130D1*
X2152197Y424986D1*
Y455130D1*
X2111364Y424986D2*
X2114249Y426412D1*
X2117101Y429297D1*
X2118560Y432149D1*
X2119986Y436460D1*
Y443656D1*
X2118560Y447934D1*
X2117101Y450819D1*
X2114249Y453671D1*
X2111364Y455130D1*
X2105627D1*
X2102775Y453671D1*
X2099890Y450819D1*
X2098464Y447934D1*
X2097038Y443656D1*
Y436460D1*
X2098464Y432149D1*
X2099890Y429297D1*
X2102775Y426412D1*
X2105627Y424986D1*
X2111364D1*
X2047182Y429297D2*
X2050034Y426412D1*
X2054345Y424986D1*
X2060082D1*
X2064393Y426412D1*
X2067278Y429297D1*
Y432149D1*
X2065819Y435034D1*
X2064393Y436460D1*
X2061541Y437886D1*
X2052919Y440771D1*
X2050034Y442197D1*
X2048608Y443656D1*
X2047183Y446508D1*
Y450819D1*
X2050034Y453671D1*
X2054345Y455130D1*
X2060082D1*
X2064393Y453671D1*
X2067278Y450819D1*
X2016397Y432149D2*
X2017823Y429297D1*
X2020708Y426412D1*
X2023560Y424986D1*
X2029297D1*
X2032182Y426412D1*
X2035034Y429297D1*
X2036493Y432149D1*
X2037919Y436460D1*
Y443656D1*
X2036493Y447934D1*
X2035034Y450819D1*
X2032182Y453671D1*
X2029297Y455130D1*
X2023560D1*
X2020708Y453671D1*
X2017823Y450819D1*
X2016397Y447934D1*
X2007134Y424986D2*
Y455130D1*
X1987038Y424986D2*
X2007134Y445082D1*
X1999971Y437886D2*
X1987038Y455130D1*
X1928897Y457630D2*
X1940404Y427486D1*
X1951878Y457630D1*
X1947567Y447582D2*
X1933208D1*
X1902423Y427519D2*
X1916749D1*
X1918175Y440419D1*
X1916749Y438993D1*
X1912438Y437534D1*
X1908160D1*
X1903849Y438993D1*
X1900964Y441845D1*
X1899538Y446156D1*
Y449008D1*
X1900964Y453319D1*
X1903849Y456204D1*
X1908160Y457630D1*
X1912438D1*
X1916749Y456204D1*
X1918175Y454745D1*
X1919634Y451893D1*
X1832824Y457630D2*
X1844331Y427486D1*
X1855805Y457630D1*
X1851494Y447582D2*
X1837135D1*
X1809201Y457630D2*
Y427519D1*
X1823560Y447582D1*
X1802038D1*
X1728897Y457630D2*
X1740404Y427486D1*
X1751878Y457630D1*
X1747567Y447582D2*
X1733208D1*
X1716749Y427519D2*
X1700997D1*
X1709586Y438993D1*
X1705275D1*
X1702423Y440419D1*
X1700997Y441845D1*
X1699538Y446156D1*
Y449008D1*
X1700997Y453319D1*
X1703849Y456204D1*
X1708160Y457630D1*
X1712471D1*
X1716749Y456204D1*
X1718175Y454745D1*
X1719634Y451893D1*
X1626397Y455130D2*
X1637904Y424986D1*
X1649378Y455130D1*
X1645067Y445082D2*
X1630708D1*
X1615675Y432182D2*
Y430756D1*
X1614249Y427871D1*
X1612823Y426445D1*
X1609938Y425019D1*
X1604201D1*
X1601349Y426445D1*
X1599923Y427871D1*
X1598464Y430756D1*
Y433608D1*
X1599923Y436493D1*
X1602775Y440771D1*
X1617134Y455130D1*
X1597038D1*
X1518497D2*
X1530004Y424986D1*
X1541478Y455130D1*
X1537167Y445082D2*
X1522808D1*
X1509233Y430756D2*
X1506348Y429297D1*
X1502037Y425019D1*
Y455130D1*
X1428897Y457630D2*
X1440404Y427486D1*
X1451878Y457630D1*
X1447567Y447582D2*
X1433208D1*
X1411012Y427519D2*
X1415323Y428945D1*
X1418208Y433256D1*
X1419634Y440419D1*
Y444730D1*
X1418208Y451893D1*
X1415323Y456204D1*
X1411012Y457630D1*
X1408160D1*
X1403849Y456204D1*
X1400997Y451893D1*
X1399538Y444730D1*
Y440419D1*
X1400997Y433256D1*
X1403849Y428945D1*
X1408160Y427519D1*
X1411012D1*
X1400997Y433256D2*
X1418208Y451893D1*
X1350757Y432149D2*
X1352182Y429297D1*
X1355068Y426412D1*
X1357919Y424986D1*
X1363656D1*
X1366541Y426412D1*
X1369393Y429297D1*
X1370853Y432149D1*
X1372278Y436460D1*
Y443656D1*
X1370853Y447934D1*
X1369393Y450819D1*
X1366542Y453671D1*
X1363656Y455130D1*
X1357920D1*
X1355068Y453671D1*
X1352183Y450819D1*
X1350757Y447934D1*
Y443656D1*
X1357919D1*
X1321397Y424986D2*
Y455130D1*
X1341493Y424986D1*
Y455130D1*
X1312134Y424986D2*
Y455130D1*
X1302086D1*
X1297775Y453671D1*
X1294889Y450819D1*
X1293463Y447934D1*
X1292038Y443656D1*
Y436460D1*
X1293463Y432149D1*
X1294889Y429297D1*
X1297774Y426412D1*
X1302086Y424986D1*
X1312134D1*
X1254731Y457630D2*
X1266238Y427486D1*
X1277712Y457630D1*
X1273401Y447582D2*
X1259042D1*
X1245467Y441845D2*
X1232567D1*
X1228256Y440386D1*
X1226797Y438960D1*
X1225371Y436108D1*
Y433223D1*
X1226797Y430371D1*
X1228256Y428912D1*
X1232567Y427486D1*
X1245467D1*
Y457630D1*
X1235419Y441845D2*
X1225371Y457630D1*
X1197471Y427486D2*
X1216107D1*
Y457630D1*
X1197471D1*
X1216107Y441845D2*
X1204634D1*
X1169537Y427486D2*
X1188207D1*
Y457630D1*
Y441845D2*
X1176733D1*
X1153257Y427519D2*
X1137505D1*
X1146094Y438993D1*
X1141783D1*
X1138931Y440419D1*
X1137505Y441845D1*
X1136046Y446156D1*
Y449008D1*
X1137505Y453319D1*
X1140357Y456204D1*
X1144668Y457630D1*
X1148979D1*
X1153257Y456204D1*
X1154683Y454745D1*
X1156142Y451893D1*
X1125357Y454745D2*
X1126783Y456204D1*
X1125357Y457630D1*
X1123897Y456204D1*
X1125357Y454745D1*
X1111749Y427519D2*
X1095997D1*
X1104586Y438993D1*
X1100275D1*
X1097423Y440419D1*
X1095997Y441845D1*
X1094538Y446156D1*
Y449008D1*
X1095997Y453319D1*
X1098849Y456204D1*
X1103160Y457630D1*
X1107471D1*
X1111749Y456204D1*
X1113175Y454745D1*
X1114634Y451893D1*
X1063353Y441845D2*
X1050453D1*
X1046142Y440386D1*
X1044683Y438960D1*
X1043257Y436108D1*
Y433223D1*
X1044683Y430371D1*
X1046142Y428912D1*
X1050453Y427486D1*
X1063353D1*
Y457630D1*
X1053305Y441845D2*
X1043257Y457630D1*
X1013898Y431797D2*
X1016750Y428912D1*
X1021061Y427486D1*
X1026798D1*
X1031109Y428912D1*
X1033994Y431797D1*
Y434649D1*
X1032535Y437534D1*
X1031109Y438960D1*
X1028257Y440386D1*
X1019635Y443271D1*
X1016750Y444697D1*
X1015324Y446156D1*
X1013898Y449008D1*
Y453319D1*
X1016750Y456171D1*
X1021061Y457630D1*
X1026798D1*
X1031109Y456171D1*
X1033994Y453319D1*
X994586Y427486D2*
Y457630D1*
X1004634Y427486D2*
X984538D1*
X2543642Y1601797D2*
X2546494Y1598912D1*
X2550805Y1597486D1*
X2556542D1*
X2560853Y1598912D1*
X2563738Y1601797D1*
Y1604649D1*
X2562279Y1607534D1*
X2560853Y1608960D1*
X2558001Y1610386D1*
X2549379Y1613271D1*
X2546494Y1614697D1*
X2545068Y1616156D1*
X2543642Y1619008D1*
Y1623319D1*
X2546494Y1626171D1*
X2550805Y1627630D1*
X2556542D1*
X2560853Y1626171D1*
X2563738Y1623319D1*
X2534378Y1597486D2*
Y1627630D1*
X2524330D1*
X2520019Y1626171D1*
X2517134Y1623319D1*
X2515708Y1620434D1*
X2514282Y1616156D1*
Y1608960D1*
X2515708Y1604649D1*
X2517134Y1601797D1*
X2520019Y1598912D1*
X2524330Y1597486D1*
X2534378D1*
X2482038Y1627630D2*
X2493545Y1597486D1*
X2505019Y1627630D1*
X2500708Y1617582D2*
X2486349D1*
X2441798Y1604297D2*
X2444650Y1601412D1*
X2448961Y1599986D1*
X2454698D1*
X2459009Y1601412D1*
X2461894Y1604297D1*
Y1607149D1*
X2460435Y1610034D1*
X2459009Y1611460D1*
X2456157Y1612886D1*
X2447535Y1615771D1*
X2444650Y1617197D1*
X2443224Y1618656D1*
X2441798Y1621508D1*
Y1625819D1*
X2444650Y1628671D1*
X2448961Y1630130D1*
X2454698D1*
X2459009Y1628671D1*
X2461894Y1625819D1*
X2411013Y1607149D2*
X2412438Y1604297D1*
X2415324Y1601412D1*
X2418175Y1599986D1*
X2423912D1*
X2426797Y1601412D1*
X2429649Y1604297D1*
X2431109Y1607149D1*
X2432534Y1611460D1*
Y1618656D1*
X2431109Y1622934D1*
X2429649Y1625819D1*
X2426798Y1628671D1*
X2423912Y1630130D1*
X2418176D1*
X2415324Y1628671D1*
X2412439Y1625819D1*
X2411013Y1622934D1*
X2401749Y1599986D2*
Y1630130D1*
X2384538D1*
X2346494Y1599986D2*
Y1630130D1*
X2336446D1*
X2332135Y1628671D1*
X2329250Y1625819D1*
X2327824Y1622934D1*
X2326398Y1618656D1*
Y1611460D1*
X2327824Y1607149D1*
X2329250Y1604297D1*
X2332135Y1601412D1*
X2336446Y1599986D1*
X2346494D1*
X2299923Y1600019D2*
X2314249D1*
X2315675Y1612919D1*
X2314249Y1611493D1*
X2309938Y1610034D1*
X2305660D1*
X2301349Y1611493D1*
X2298464Y1614345D1*
X2297038Y1618656D1*
Y1621508D1*
X2298464Y1625819D1*
X2301349Y1628704D1*
X2305660Y1630130D1*
X2309938D1*
X2314249Y1628704D1*
X2315675Y1627245D1*
X2317134Y1624393D1*
X2247534Y1602486D2*
Y1632630D1*
X2237486D1*
X2233175Y1631171D1*
X2230290Y1628319D1*
X2228864Y1625434D1*
X2227438Y1621156D1*
Y1613960D1*
X2228864Y1609649D1*
X2230290Y1606797D1*
X2233175Y1603912D1*
X2237486Y1602486D1*
X2247534D1*
X2200964Y1606797D2*
X2202390Y1603945D1*
X2206701Y1602519D1*
X2209553D1*
X2213864Y1603945D1*
X2216749Y1608256D1*
X2218175Y1615419D1*
Y1622582D1*
X2216749Y1628319D1*
X2213864Y1631204D1*
X2209553Y1632630D1*
X2208127D1*
X2203849Y1631204D1*
X2200964Y1628319D1*
X2199538Y1624008D1*
Y1622582D1*
X2200964Y1618271D1*
X2203849Y1615419D1*
X2208127Y1613993D1*
X2209553D1*
X2213864Y1615419D1*
X2216749Y1618271D1*
X2218175Y1622582D1*
X2150067Y1599986D2*
Y1630130D1*
X2140019D1*
X2135708Y1628671D1*
X2132823Y1625819D1*
X2131397Y1622934D1*
X2129971Y1618656D1*
Y1611460D1*
X2131397Y1607149D1*
X2132823Y1604297D1*
X2135708Y1601412D1*
X2140019Y1599986D1*
X2150067D1*
X2102038Y1610034D2*
X2103497Y1614345D1*
X2106349Y1617230D1*
X2110660Y1618656D1*
X2112086D1*
X2116397Y1617230D1*
X2119249Y1614345D1*
X2120708Y1610034D1*
Y1608608D1*
X2119249Y1604297D1*
X2116397Y1601445D1*
X2112086Y1600019D1*
X2110660D1*
X2106349Y1601445D1*
X2103497Y1604297D1*
X2102038Y1610034D1*
Y1617230D1*
X2103497Y1624393D1*
X2106349Y1628704D1*
X2110660Y1630130D1*
X2113512D1*
X2117823Y1628704D1*
X2119249Y1625819D1*
X2057953Y1602486D2*
Y1632630D1*
X2047905D1*
X2043594Y1631171D1*
X2040709Y1628319D1*
X2039283Y1625434D1*
X2037857Y1621156D1*
Y1613960D1*
X2039283Y1609649D1*
X2040709Y1606797D1*
X2043594Y1603912D1*
X2047905Y1602486D1*
X2057953D1*
X2028594Y1608256D2*
X2025708Y1606797D1*
X2021397Y1602519D1*
Y1632630D1*
X2003512Y1602519D2*
X2007823Y1603945D1*
X2010708Y1608256D1*
X2012134Y1615419D1*
Y1619730D1*
X2010708Y1626893D1*
X2007823Y1631204D1*
X2003512Y1632630D1*
X2000660D1*
X1996349Y1631204D1*
X1993497Y1626893D1*
X1992038Y1619730D1*
Y1615419D1*
X1993497Y1608256D1*
X1996349Y1603945D1*
X2000660Y1602519D1*
X2003512D1*
X1993497Y1608256D2*
X2010708Y1626893D1*
X1950053Y1602486D2*
Y1632630D1*
X1940005D1*
X1935694Y1631171D1*
X1932809Y1628319D1*
X1931383Y1625434D1*
X1929957Y1621156D1*
Y1613960D1*
X1931383Y1609649D1*
X1932809Y1606797D1*
X1935694Y1603912D1*
X1940005Y1602486D1*
X1950053D1*
X1920693Y1608256D2*
X1917808Y1606797D1*
X1913497Y1602519D1*
Y1632630D1*
X1904234Y1608256D2*
X1901349Y1606797D1*
X1897038Y1602519D1*
Y1632630D1*
X1857953Y1602486D2*
Y1632630D1*
X1847905D1*
X1843594Y1631171D1*
X1840709Y1628319D1*
X1839283Y1625434D1*
X1837857Y1621156D1*
Y1613960D1*
X1839283Y1609649D1*
X1840709Y1606797D1*
X1843594Y1603912D1*
X1847905Y1602486D1*
X1857953D1*
X1828594Y1608256D2*
X1825708Y1606797D1*
X1821397Y1602519D1*
Y1632630D1*
X1810675Y1609682D2*
Y1608256D1*
X1809249Y1605371D1*
X1807823Y1603945D1*
X1804938Y1602519D1*
X1799201D1*
X1796349Y1603945D1*
X1794923Y1605371D1*
X1793464Y1608256D1*
Y1611108D1*
X1794923Y1613993D1*
X1797775Y1618271D1*
X1812134Y1632630D1*
X1792038D1*
X1752953Y1604986D2*
Y1635130D1*
X1742905D1*
X1738594Y1633671D1*
X1735709Y1630819D1*
X1734283Y1627934D1*
X1732857Y1623656D1*
Y1616460D1*
X1734283Y1612149D1*
X1735709Y1609297D1*
X1738594Y1606412D1*
X1742905Y1604986D1*
X1752953D1*
X1723594Y1610756D2*
X1720708Y1609297D1*
X1716397Y1605019D1*
Y1635130D1*
X1704249Y1605019D2*
X1688497D1*
X1697086Y1616493D1*
X1692775D1*
X1689923Y1617919D1*
X1688497Y1619345D1*
X1687038Y1623656D1*
Y1626508D1*
X1688497Y1630819D1*
X1691349Y1633704D1*
X1695660Y1635130D1*
X1699971D1*
X1704249Y1633704D1*
X1705675Y1632245D1*
X1707134Y1629393D1*
X1629634Y1605019D2*
X1643960D1*
X1645386Y1617919D1*
X1643960Y1616493D1*
X1639649Y1615034D1*
X1635371D1*
X1631060Y1616493D1*
X1628175Y1619345D1*
X1626749Y1623656D1*
Y1626508D1*
X1628175Y1630819D1*
X1631060Y1633704D1*
X1635372Y1635130D1*
X1639649D1*
X1643960Y1633704D1*
X1645386Y1632245D1*
X1646845Y1629393D1*
X1617486Y1604986D2*
X1606012Y1635130D1*
X1594538Y1604986D1*
X1526398Y1602486D2*
X1545034D1*
Y1632630D1*
X1526398D1*
X1545034Y1616845D2*
X1533560D1*
X1497038Y1602486D2*
Y1632630D1*
X1517134Y1602486D1*
Y1632630D1*
M02*
